<svg xmlns="http://www.w3.org/2000/svg" viewBox="0 0 1817.13 727.85"><defs><style>.cls-1{fill:#494949;}.cls-2{fill:#3a3a3a;}.cls-3{fill:#3f3f3f;}.cls-4{fill:#565656;}.cls-5{fill:#eaeaea;}.cls-6{fill:#999;}.cls-7{fill:#878787;}.cls-8{fill:#777;}.cls-9{fill:#bcbcbc;}.cls-10{fill:#fffffd;}.cls-11{fill:#909198;}.cls-12,.cls-16,.cls-17,.cls-18{fill:#78797f;}.cls-13{fill:#0a0a0a;}.cls-14{fill:#eaeae8;opacity:0.76;}.cls-15{fill:#fff;}.cls-16{opacity:0.27;}.cls-17{opacity:0.29;}.cls-18{opacity:0.08;}.cls-19{fill:#efefef;}</style></defs><title>Asset 7</title><g id="Layer_2" data-name="Layer 2"><g id="Layer_1-2" data-name="Layer 1"><path class="cls-1" d="M218.84,585.56c.93-5.67,118.4,33.08,235.48,13,296.76-50.78,442.29-453.77,445.06-452.06s-150,441.92-450,478.49C334.37,639.06,217.9,591.24,218.84,585.56Z"/><circle class="cls-1" cx="196.56" cy="339.81" r="196.56"/><ellipse class="cls-2" cx="119.5" cy="245.01" rx="25.67" ry="5.33"/><ellipse class="cls-2" cx="50.5" cy="296.51" rx="25.67" ry="5.33"/><ellipse class="cls-2" cx="152.5" cy="409.84" rx="25.67" ry="5.33"/><ellipse class="cls-2" cx="187.83" cy="481.18" rx="25.67" ry="5.33"/><ellipse class="cls-2" cx="244.5" cy="201.17" rx="25.67" ry="5.33"/><ellipse class="cls-2" cx="337.17" cy="301.84" rx="25.67" ry="5.33"/><ellipse class="cls-2" cx="292.5" cy="451.18" rx="25.67" ry="5.33"/><ellipse class="cls-2" cx="208.5" cy="307.18" rx="25.67" ry="5.33"/><ellipse class="cls-2" cx="59.17" cy="387.06" rx="25.67" ry="5.33"/><circle class="cls-1" cx="925.34" cy="580.88" r="146.97"/><ellipse class="cls-3" cx="816.13" cy="548.51" rx="19.19" ry="3.99"/><ellipse class="cls-3" cx="892.4" cy="633.25" rx="19.19" ry="3.99"/><ellipse class="cls-3" cx="918.82" cy="686.58" rx="19.19" ry="3.99"/><ellipse class="cls-3" cx="822.61" cy="616.22" rx="19.19" ry="3.99"/><path class="cls-3" d="M802.18,566.83c-2.54,6.24-9.63,9.26-10.1,8.72s4.09-3.14,6.36-8.72c3.7-9.1-1.59-18.2-.88-18.44S805.72,558.1,802.18,566.83Z"/><path class="cls-3" d="M830,566.83c2.54,6.24,9.63,9.26,10.1,8.72s-4.09-3.14-6.36-8.72c-3.7-9.1,1.58-18.2.87-18.44S826.41,558.1,830,566.83Z"/><ellipse class="cls-3" cx="980.44" cy="604.66" rx="19.19" ry="3.99"/><path class="cls-3" d="M966.49,623c-2.54,6.24-9.63,9.26-10.1,8.72s4.09-3.14,6.36-8.72c3.7-9.1-1.58-18.2-.87-18.44S970,614.25,966.49,623Z"/><path class="cls-3" d="M994.27,623c2.53,6.24,9.62,9.26,10.09,8.72s-4.09-3.14-6.36-8.72c-3.7-9.1,1.59-18.2.88-18.44S990.72,614.25,994.27,623Z"/><ellipse class="cls-3" cx="868.46" cy="482.9" rx="19.19" ry="3.99"/><path class="cls-3" d="M854.5,501.22c-2.54,6.24-9.63,9.26-10.09,8.72s4.08-3.14,6.35-8.72c3.7-9.1-1.58-18.2-.87-18.44S858.05,492.49,854.5,501.22Z"/><path class="cls-3" d="M882.28,501.22c2.54,6.24,9.63,9.26,10.09,8.72s-4.08-3.14-6.35-8.72c-3.7-9.1,1.58-18.2.87-18.44S878.73,492.49,882.28,501.22Z"/><ellipse class="cls-3" cx="937.97" cy="543.28" rx="19.19" ry="3.99"/><path class="cls-3" d="M924,561.59c-2.54,6.25-9.63,9.26-10.09,8.73s4.08-3.14,6.35-8.73c3.7-9.1-1.58-18.2-.87-18.44S927.55,552.87,924,561.59Z"/><path class="cls-3" d="M951.79,561.59c2.53,6.25,9.62,9.26,10.09,8.73s-4.08-3.14-6.35-8.73c-3.7-9.1,1.58-18.2.87-18.44S948.24,552.87,951.79,561.59Z"/><ellipse class="cls-3" cx="961.97" cy="471.34" rx="19.19" ry="3.99"/><path class="cls-3" d="M948,489.66c-2.54,6.25-9.63,9.26-10.1,8.73s4.09-3.14,6.36-8.73c3.7-9.1-1.58-18.2-.87-18.44S951.56,480.94,948,489.66Z"/><path class="cls-3" d="M975.79,489.66c2.54,6.25,9.63,9.26,10.1,8.73s-4.09-3.14-6.36-8.73c-3.7-9.1,1.59-18.2.88-18.44S972.25,480.94,975.79,489.66Z"/><ellipse class="cls-3" cx="1030.54" cy="550.85" rx="19.19" ry="3.99"/><path class="cls-3" d="M1016.58,569.16c-2.53,6.25-9.62,9.26-10.09,8.73s4.08-3.14,6.35-8.73c3.7-9.1-1.58-18.2-.87-18.44S1020.13,560.44,1016.58,569.16Z"/><path class="cls-3" d="M1044.36,569.16c2.54,6.25,9.63,9.26,10.09,8.73s-4.08-3.14-6.35-8.73c-3.7-9.1,1.58-18.2.87-18.44S1040.82,560.44,1044.36,569.16Z"/><ellipse class="cls-3" cx="892.46" cy="633.25" rx="19.19" ry="3.99"/><path class="cls-3" d="M878.51,651.57c-2.54,6.24-9.63,9.26-10.1,8.72s4.09-3.14,6.36-8.72c3.7-9.1-1.58-18.2-.87-18.45S882.05,642.84,878.51,651.57Z"/><path class="cls-3" d="M906.29,651.57c2.53,6.24,9.62,9.26,10.09,8.72s-4.08-3.14-6.36-8.72c-3.7-9.1,1.59-18.2.88-18.45S902.74,642.84,906.29,651.57Z"/><ellipse class="cls-3" cx="822.68" cy="617.7" rx="19.19" ry="3.99"/><path class="cls-3" d="M808.72,636c-2.53,6.25-9.62,9.26-10.09,8.73s4.08-3.14,6.35-8.73c3.71-9.1-1.58-18.2-.87-18.44S812.27,627.3,808.72,636Z"/><path class="cls-3" d="M836.5,636c2.54,6.25,9.63,9.26,10.1,8.73s-4.09-3.14-6.36-8.73c-3.7-9.1,1.58-18.2.87-18.44S833,627.3,836.5,636Z"/><ellipse class="cls-3" cx="916.59" cy="686.58" rx="19.19" ry="3.99"/><path class="cls-3" d="M902.63,704.9c-2.54,6.25-9.63,9.26-10.09,8.73s4.08-3.14,6.35-8.73c3.7-9.1-1.58-18.2-.87-18.44S906.17,696.18,902.63,704.9Z"/><path class="cls-3" d="M930.41,704.9c2.53,6.25,9.62,9.26,10.09,8.73s-4.08-3.14-6.35-8.73c-3.7-9.1,1.58-18.2.87-18.44S926.86,696.18,930.41,704.9Z"/><ellipse class="cls-3" cx="993.38" cy="659.48" rx="19.19" ry="3.99"/><path class="cls-3" d="M979.42,677.8c-2.54,6.25-9.63,9.26-10.09,8.72s4.08-3.14,6.35-8.72c3.7-9.1-1.58-18.2-.87-18.44S983,669.08,979.42,677.8Z"/><path class="cls-3" d="M1007.2,677.8c2.54,6.25,9.62,9.26,10.09,8.72s-4.08-3.14-6.35-8.72c-3.7-9.1,1.58-18.2.87-18.44S1003.65,669.08,1007.2,677.8Z"/><circle class="cls-1" cx="1525.03" cy="234.7" r="196.56"/><ellipse class="cls-1" cx="1530.96" cy="248.96" rx="286.17" ry="35.26"/><path class="cls-4" d="M974.08,149.33l-58,.16q9.21-9.88,18.43-19.75l42.21,6.48Z"/><path class="cls-5" d="M975.32,137l-41.1,4c-.16-3.75-.33-7.5-.49-11.25h33.45Z"/><path class="cls-6" d="M976.75,136.22a2.84,2.84,0,0,0-.06.29,7.63,7.63,0,0,1-.25,1.22c-.43.45-4.72-3.84-8.38-5.78-3.46-1.83-6.22-1.47-13-1.26-4.51.15-10.94.24-18.93,0l1.4-2.05,29.71-.12Z"/><path class="cls-7" d="M974.47,136.55l-1.41.21-1.52.22-1.41.2-1.79.27-1.41.2-1.55.23-1.41.21-1.74.25-1.41.2-1.76.26-1.41.21-2.09.3-1.4.21-9.44,1.39a14.69,14.69,0,0,1-1.08-1c-.3-.31-.56-.62-.8-.92,2.87-.18,4.64-.34,5.75-.45l3.06-.31,1.5-.15,2.24-.23,1.51-.15,1.9-.19,1.5-.15,1.87-.19,1.5-.15,1.67-.17,1.51-.15,1.93-.19,1.5-.15,1.63-.17,1.51-.15Z"/><path class="cls-8" d="M939,252.09,901.33,264.3l44-123.55,31.44-4.53Z"/><path class="cls-9" d="M968.34,137.45l-1.41.2-1.59-.84,1.51-.15Z"/><path class="cls-9" d="M971.54,137l-1.41.2-1.35-.71,1.5-.15Z"/><path class="cls-9" d="M974.47,136.55l-1.41.21-1.15-.61,1.51-.15Z"/><ellipse class="cls-10" cx="889.13" cy="76.61" rx="71.1" ry="76.61"/><path class="cls-11" d="M959.81,179.59c0,.75-.13,1.49-.23,2.24C958,194,950.67,206,941.9,216.4c-.38.44-.75.88-1.14,1.32-2.07,2.38-4.21,4.66-6.37,6.83-.41.41-.82.82-1.24,1.22-2.4,2.36-4.81,4.57-7.16,6.6l-1.34,1.14c-10.21,8.62-18.89,13.7-19.79,12.82-.56-.55,3.17-5.57,10.62-15.62q1.34-1.8,2.59-3.47l1.06-1.4q3.27-4.35,5.94-7.77c.36-.47.72-.93,1.08-1.37,2.37-3,4.34-5.48,5.84-7.33l.3-.36.56-.67.25-.32c1.72-2.07,2.61-3.08,2.61-3.08a56.48,56.48,0,0,0,9.13-14.15c.46-1,.83-1.94,1.13-2.76a23.44,23.44,0,0,0,.76-2.48,7.13,7.13,0,0,0,0-4.5c-.7-1.87-2.45-3.93-6-8.05l-1.15-1.32c-1.74-2-3.5-3.79-5.21-5.49L933.18,165c-1.95-1.92-3.82-3.7-5.5-5.4-.41-.43-.82-.84-1.21-1.26-4.22-4.47-6.87-8.47-5.93-13.21,1.25-6.29,8.29-11.26,14-11.38,4.33-.1,8.32,2.63,11.8,6.8.37.45.73.9,1.09,1.37a51.63,51.63,0,0,1,4.15,6.61c.29.53.56,1.06.83,1.6a77.36,77.36,0,0,1,3.19,7.31h0c.22.59.43,1.18.64,1.76a82,82,0,0,1,2.65,9.11q.18.81.33,1.62h0c.08.36.23,1.09.36,2A34.14,34.14,0,0,1,959.81,179.59Z"/><path class="cls-12" d="M947.39,141.89l-19.71,17.67-1.21-1.26,19.83-17.78C946.67,141,947,141.41,947.39,141.89Z"/><path class="cls-12" d="M941.9,216.4c-.38.44-.75.88-1.14,1.32L932,209.37l.3-.36.56-.67.25-.32Z"/><path class="cls-12" d="M934.39,224.55c-.41.41-.82.82-1.24,1.22l-8.08-7.7c.36-.47.72-.93,1.08-1.37Z"/><path class="cls-12" d="M926,232.37l-1.34,1.14-6.58-6.27,1.06-1.4Z"/><path class="cls-12" d="M952.37,150.09l-18,16.1L933.18,165l18.36-16.47C951.83,149,952.1,149.55,952.37,150.09Z"/><path class="cls-12" d="M956.2,159.16,940.78,173l-1.15-1.32,15.93-14.28C955.78,158,956,158.58,956.2,159.16Z"/><path class="cls-12" d="M959.54,171.9l-11.88,10.66c-.3-.51-.61-1-.93-1.51l12.45-11.16C959.31,170.56,959.44,171.23,959.54,171.9Z"/><path class="cls-12" d="M959.81,179.59c0,.75-.13,1.49-.23,2.24L946,188a23.44,23.44,0,0,0,.76-2.48Z"/><path class="cls-11" d="M858.6,161.27c-.39.42-.79.83-1.21,1.26-1.67,1.7-3.54,3.48-5.5,5.4l-1.24,1.23c-1.71,1.7-3.46,3.52-5.21,5.49q-.57.65-1.14,1.32l-1,1.19a31.54,31.54,0,0,0-9.48,2.82c-.56.24-1.15.51-1.73.78a84.81,84.81,0,0,0-7.52,4,75,75,0,0,1,.95-9.9q.16-1,.36-2h0c.11-.54.22-1.08.34-1.62a81.22,81.22,0,0,1,2.64-9.11c.21-.59.42-1.17.65-1.76h0c.93-2.46,2-4.94,3.18-7.31.12-.23.23-.46.35-.68l.48-.92a50.59,50.59,0,0,1,4.16-6.61c.36-.47.72-.93,1.08-1.37,3.48-4.17,7.48-6.9,11.81-6.8,4.13.09,9,2.75,11.81,6.63a12.14,12.14,0,0,1,2.14,4.75C865.47,152.8,862.83,156.8,858.6,161.27Z"/><path class="cls-12" d="M837.69,144.85l19.7,17.68,1.21-1.26-19.83-17.79C838.41,143.92,838.05,144.38,837.69,144.85Z"/><path class="cls-12" d="M832.7,153.06l17.95,16.1,1.24-1.23-18.36-16.47C833.25,152,833,152.52,832.7,153.06Z"/><path class="cls-12" d="M828.87,162.13,844.3,176q.57-.67,1.14-1.32l-15.92-14.28C829.29,161,829.08,161.54,828.87,162.13Z"/><path class="cls-12" d="M833.83,180c-.56.24-1.15.51-1.73.78l-6.57-5.89q.16-1,.36-2Z"/><path class="cls-10" d="M985.41,243.26c-2.88,5.76-10.16,9.67-15.8,8.62a8.13,8.13,0,0,1-1.13-.29c-4.7-1.54-6.91-7.07-14-19.1-9.9-16.91-21.39-33.05-24.78-31.6-.48.2-1,1.41-2,3.83a41.47,41.47,0,0,0-2.08,5.93c-1.21,4.78-16.45,45.13-30.34,67.8-18.34,29.93-53.36,56.82-60.69,51.35-10.44-7.78,31.46-83.86,19.9-91.35a16.81,16.81,0,0,0-6.32-1.9c-6.69-.7-12,2.71-14.15,4.06a28.38,28.38,0,0,0-3.16,2.34c-8.27,7-12.05,17.61-13.15,20.78-7.55,21.95-9.13,39.41-10.66,49.46-.88,5.79-1.73,9.12-3.7,9.43-5,.79-13.54-17.43-15.44-34.47A68.32,68.32,0,0,1,789,266.08c4.29-18.77,15.16-25.43,35.21-51.18,10-12.88,25.79-33.13,22.26-37-.56-.62-1.65-.85-3.13-.75a31.54,31.54,0,0,0-9.48,2.82c-.56.24-1.15.51-1.73.78a84.81,84.81,0,0,0-7.52,4,97.21,97.21,0,0,0-14.77,10.73c-10.26,9.13-14.13,17.09-24,18.39-5.34.7-14-.33-16.16-5.1C764.79,198.43,791.88,174,814.84,161a144.94,144.94,0,0,1,18.21-8.65l1.05-.41c2.94-1.15,5.71-2.12,8.23-2.95l1.92-.63c2.63-.84,5-1.52,6.86-2.08,3.49-1,7.19-2.07,11.28-3a114.85,114.85,0,0,1,16.68-2.54c11.88-.93,33-2.58,52.15,9.12.83.51,1.65,1,2.47,1.6A71.51,71.51,0,0,1,947,163.55c9,9.88,12.23,17.54,20.46,34.11C983.76,230.47,989,236.18,985.41,243.26Z"/><ellipse class="cls-13" cx="889.51" cy="75.09" rx="64.4" ry="68.24"/><path class="cls-14" d="M921.73,47.31c18.17,26.74,18.93,29.7,20,29.26,3.89-1.55-.85-39.57-23.22-51.95-3-1.68-9.34-4.52-11-2.63C905.58,24.19,911,31.58,921.73,47.31Z"/><rect class="cls-15" x="860.89" y="108.82" width="19.46" height="2.14" rx="1.07" ry="1.07" transform="translate(332.71 -583.44) rotate(45)"/><rect class="cls-15" x="873.16" y="108.82" width="19.46" height="2.14" rx="1.07" ry="1.07" transform="translate(1584.89 -436.7) rotate(135)"/><rect class="cls-15" x="885.63" y="108.82" width="19.46" height="2.14" rx="1.07" ry="1.07" transform="translate(339.95 -600.93) rotate(45)"/><rect class="cls-15" x="897.9" y="108.82" width="19.46" height="2.14" rx="1.07" ry="1.07" transform="translate(1627.12 -454.19) rotate(135)"/><path class="cls-9" d="M955.56,139.31l-1.4.21-2.51-1.33,1.5-.15Z"/><path class="cls-9" d="M959.06,138.8l-1.41.21-2.26-1.2,1.51-.15Z"/><path class="cls-9" d="M962.23,138.34l-1.41.2-2-1.07,1.5-.15Z"/><path class="cls-9" d="M965.38,137.88l-1.41.21-1.8-1,1.5-.15Z"/><path class="cls-16" d="M985.41,243.26c-2.88,5.76-10.16,9.67-15.8,8.62a8.13,8.13,0,0,1-1.13-.29,47.86,47.86,0,0,0,7.48-7.66c1.59-2,3.59-4.62,4.41-7,2.43-7.06-4.44-15.12-10.39-22.68-1.6-2-4-5.18-6.81-9.18-4.41-6.33-7.2-11.14-15.7-26.14s-9.3-16.53-11.73-19.63A80.73,80.73,0,0,0,921.24,145h0a62.88,62.88,0,0,1,12.45,6.52A73.58,73.58,0,0,1,947,163.55c9,9.88,12.23,17.54,20.46,34.11C983.76,230.47,989,236.18,985.41,243.26Z"/><path class="cls-17" d="M830.86,243c-8.27,7-12.05,17.61-13.15,20.78-7.55,21.95-9.13,39.41-10.66,49.46-3.41-.39-7-20.83-.23-39.81C813.05,256,826.79,243.21,830.86,243Z"/><path class="cls-18" d="M921.94,144.5c.09.24-12.08,8.26-28.73,8.46-18.4.22-32-9.24-32-9.39a63,63,0,0,0,29.4,8.43C908.65,152.45,921.85,144.26,921.94,144.5Z"/><rect class="cls-19" x="900.57" y="179.06" width="15.65" height="19.36" rx="7.83" ry="7.83" transform="translate(117.87 -296.94) rotate(19.83)"/><path class="cls-10" d="M903.38,186.94a5.12,5.12,0,0,1,1.54-2.34,4.62,4.62,0,0,1,.5-.37,3.76,3.76,0,0,1,.55-.32,5,5,0,0,1,.53-.23,5.09,5.09,0,0,1,5.79,1.72,4.9,4.9,0,0,1,.31.48,4.66,4.66,0,0,1,.47,1q.09.3.15.6a5.12,5.12,0,0,1-.14,2.45,5.2,5.2,0,0,1-.93,1.72,4.16,4.16,0,0,1-.46.48,5.12,5.12,0,0,1-1.87,1.11,5.1,5.1,0,0,1-5.45-1.52,5.55,5.55,0,0,1-.35-.46,5.1,5.1,0,0,1-.72-1.64A5,5,0,0,1,903.38,186.94Zm.52,2.86a4.18,4.18,0,0,0,.65,1.3l0,0a2.37,2.37,0,0,0,.32.39s0,0,0,0a4.33,4.33,0,0,0,1.94,1.21,4.54,4.54,0,0,0,2.63,0,4.61,4.61,0,0,0,2-1.26,4.87,4.87,0,0,0,.4-.5,4.62,4.62,0,0,0,.61-1.24,4.51,4.51,0,0,0,.17-1.92c0-.2-.06-.39-.11-.59a4.86,4.86,0,0,0-.54-1.24c-.1-.15-.2-.3-.32-.45a4.55,4.55,0,0,0-2.18-1.48,4.46,4.46,0,0,0-2.68,0h0a3.94,3.94,0,0,0-.48.18l0,0a4.27,4.27,0,0,0-.79.48,4,4,0,0,0-.46.38,4.54,4.54,0,0,0-1.32,4A6.23,6.23,0,0,0,903.9,189.8Z"/><path class="cls-10" d="M904.58,191.14l0,0a4.49,4.49,0,0,0,2.41-2.73v0a2.18,2.18,0,0,0,.11-.44v0s0,0,0-.06v0a2.89,2.89,0,0,0,.07-.49v0a4.53,4.53,0,0,0-.84-2.93l0,0a4,4,0,0,0-.33-.39,4.93,4.93,0,0,1,.53-.22,3.39,3.39,0,0,1,.33.42l0,0a5.08,5.08,0,0,1,.83,3.47h0a1.2,1.2,0,0,1,0,.2h0c0,.12,0,.23-.07.35a1.21,1.21,0,0,1,0,.18h0c0,.05,0,.09,0,.14a5.08,5.08,0,0,1-2.59,3h0a4.4,4.4,0,0,1-.5.21,3.79,3.79,0,0,1-.34-.45Z"/><path class="cls-10" d="M909.25,188.15a5.44,5.44,0,0,0,.58,0,2,2,0,0,0-.13.25h0a1.36,1.36,0,0,0-.24-.13l-.18-.08-.07,0A.25.25,0,0,0,909.25,188.15Zm-.22.58v0l0,0c.05-.16.1-.3.16-.45a.25.25,0,0,0,0-.07,5.05,5.05,0,0,1,2.51-2.54.45.45,0,0,1,.84.27,5.34,5.34,0,0,0-.52.18,4.5,4.5,0,0,0-2.25,2.14,2,2,0,0,0-.13.25h0l-.1.27-.05.14,0,.1h0a4.56,4.56,0,0,0,.51,3.64,3.65,3.65,0,0,0,.32.45,4.87,4.87,0,0,1-.53.21,4.76,4.76,0,0,1-.31-.47A5.07,5.07,0,0,1,909,188.73Z"/><path class="cls-10" d="M907.6,188.39H907v0a2.18,2.18,0,0,0,.11-.44v0a4.94,4.94,0,0,0,.49.3,2.87,2.87,0,0,0,.4.18l.35.13.07,0,.1,0a4.15,4.15,0,0,0,.48.11h.07c0-.14.1-.29.16-.43h0l.17.09.24.12.08,0h0c0,.07-.06.14-.09.23s0,0,0,0l0,.13a.56.56,0,0,0,0,.12l-.07,0a3.29,3.29,0,0,0-.42-.21l-.07,0a2.58,2.58,0,0,0-.39-.14l-.36-.1-.47-.08Zm-3.85.79a5.07,5.07,0,0,1,3.24-1.36h.18a3.93,3.93,0,0,1,.48,0h.07a5.16,5.16,0,0,1,1,.2l.48.18.07,0,.18.08a1.36,1.36,0,0,1,.24.13l.07,0,.37.24a5.06,5.06,0,0,1,1.81,2.31,4.75,4.75,0,0,1,.2.64,4.16,4.16,0,0,1-.46.48,4.29,4.29,0,0,0-.14-.62,4.54,4.54,0,0,0-2-2.57l-.42-.22-.07,0a2.58,2.58,0,0,0-.39-.14l-.07,0-.1,0a4.28,4.28,0,0,0-.87-.15h-.07a2.68,2.68,0,0,0-.49,0H907a4.56,4.56,0,0,0-3.06,1.44,3.81,3.81,0,0,0-.4.5,4.75,4.75,0,0,1-.2-.64A5.11,5.11,0,0,1,903.75,189.18Z"/><path class="cls-10" d="M907.1,187.81a5,5,0,0,0,.07-.54.18.18,0,0,0,.07,0,4.17,4.17,0,0,0,.44.29l.07,0a4.83,4.83,0,0,0,.81.35l.17,0,.52.11a.25.25,0,0,1,0,.07l.07,0c-.06.14-.11.29-.16.43h-.07a4.15,4.15,0,0,1-.48-.11l-.1,0-.07,0-.35-.13a2.87,2.87,0,0,1-.4-.18l-.07,0a3,3,0,0,1-.43-.25l-.06,0S907.1,187.84,907.1,187.81Zm-1.68-3.58a4.08,4.08,0,0,0,.11.59,4.55,4.55,0,0,0,1.64,2.45.18.18,0,0,0,.07,0,4.17,4.17,0,0,0,.44.29l.07,0a4.83,4.83,0,0,0,.81.35l.17,0,.52.11a5.44,5.44,0,0,0,.58,0,4.56,4.56,0,0,0,2.79-.9,3.23,3.23,0,0,0,.45-.38q.09.3.15.6a5.72,5.72,0,0,1-.49.37,5.05,5.05,0,0,1-2.59.85,3.53,3.53,0,0,1-.46,0h-.08l-.48,0h-.07a4.15,4.15,0,0,1-.48-.11l-.1,0-.07,0-.35-.13a2.87,2.87,0,0,1-.4-.18l-.07,0a3,3,0,0,1-.43-.25l-.06,0-.1-.06a5.13,5.13,0,0,1-1.92-2.62q-.09-.3-.15-.6A4.62,4.62,0,0,1,905.42,184.23Z"/></g></g></svg>