<svg xmlns="http://www.w3.org/2000/svg" viewBox="0 0 2723.46 1173.12"><defs><style>.cls-1{fill:#212121;}.cls-2{fill:#494949;}.cls-3{fill:#3a3a3a;}.cls-4{fill:#3f3f3f;}.cls-5{fill:#565656;}.cls-6{fill:#eaeaea;}.cls-7{fill:#999;}.cls-8{fill:#878787;}.cls-9{fill:#777;}.cls-10{fill:#bcbcbc;}.cls-11{fill:#fffffd;}.cls-12{fill:#909198;}.cls-13,.cls-17,.cls-18,.cls-19{fill:#78797f;}.cls-14{fill:#0a0a0a;}.cls-15{fill:#eaeae8;opacity:0.76;}.cls-16{fill:#fff;}.cls-17{opacity:0.27;}.cls-18{opacity:0.29;}.cls-19{opacity:0.08;}.cls-20{fill:#efefef;}</style></defs><title>back-art</title><g id="Layer_2" data-name="Layer 2"><g id="Layer_1-2" data-name="Layer 1"><rect class="cls-1" width="2723.46" height="1173.12"/><path class="cls-2" d="M681,841.5c.94-5.67,118.41,33.08,235.49,13,296.76-50.78,442.28-453.77,445.05-452.07S1211.53,844.4,911.57,881C796.51,895,680.05,847.19,681,841.5Z"/><circle class="cls-2" cx="658.71" cy="595.75" r="196.56"/><ellipse class="cls-3" cx="581.64" cy="500.95" rx="25.67" ry="5.33"/><ellipse class="cls-3" cx="512.64" cy="552.45" rx="25.67" ry="5.33"/><ellipse class="cls-3" cx="614.64" cy="665.79" rx="25.67" ry="5.33"/><ellipse class="cls-3" cx="649.98" cy="737.12" rx="25.67" ry="5.33"/><ellipse class="cls-3" cx="706.64" cy="457.11" rx="25.67" ry="5.33"/><ellipse class="cls-3" cx="799.31" cy="557.79" rx="25.67" ry="5.33"/><ellipse class="cls-3" cx="754.64" cy="707.12" rx="25.67" ry="5.33"/><ellipse class="cls-3" cx="670.64" cy="563.12" rx="25.67" ry="5.33"/><ellipse class="cls-3" cx="521.31" cy="643.01" rx="25.67" ry="5.33"/><circle class="cls-2" cx="1381.57" cy="804.32" r="146.97"/><ellipse class="cls-4" cx="1272.36" cy="771.95" rx="19.19" ry="3.99"/><ellipse class="cls-4" cx="1348.63" cy="856.69" rx="19.19" ry="3.99"/><ellipse class="cls-4" cx="1375.05" cy="910.02" rx="19.19" ry="3.99"/><ellipse class="cls-4" cx="1278.84" cy="839.66" rx="19.19" ry="3.99"/><path class="cls-4" d="M1258.41,790.27c-2.54,6.24-9.63,9.26-10.1,8.72s4.09-3.14,6.36-8.72c3.7-9.1-1.59-18.2-.88-18.44S1262,781.54,1258.41,790.27Z"/><path class="cls-4" d="M1286.18,790.27c2.54,6.24,9.63,9.26,10.1,8.72s-4.09-3.14-6.36-8.72c-3.7-9.1,1.58-18.2.87-18.44S1282.64,781.54,1286.18,790.27Z"/><ellipse class="cls-4" cx="1436.67" cy="828.1" rx="19.19" ry="3.99"/><path class="cls-4" d="M1422.72,846.42c-2.54,6.24-9.63,9.26-10.1,8.72s4.09-3.14,6.36-8.72c3.7-9.1-1.58-18.2-.87-18.44S1426.26,837.69,1422.72,846.42Z"/><path class="cls-4" d="M1450.5,846.42c2.53,6.24,9.62,9.26,10.09,8.72s-4.09-3.14-6.36-8.72c-3.7-9.1,1.59-18.2.88-18.44S1447,837.69,1450.5,846.42Z"/><ellipse class="cls-4" cx="1324.69" cy="706.34" rx="19.19" ry="3.99"/><path class="cls-4" d="M1310.73,724.66c-2.54,6.24-9.63,9.26-10.09,8.72s4.08-3.14,6.35-8.72c3.7-9.1-1.58-18.2-.87-18.44S1314.28,715.93,1310.73,724.66Z"/><path class="cls-4" d="M1338.51,724.66c2.54,6.24,9.63,9.26,10.09,8.72s-4.08-3.14-6.35-8.72c-3.7-9.1,1.58-18.2.87-18.44S1335,715.93,1338.51,724.66Z"/><ellipse class="cls-4" cx="1394.2" cy="766.72" rx="19.19" ry="3.99"/><path class="cls-4" d="M1380.24,785c-2.54,6.25-9.63,9.26-10.09,8.73s4.08-3.14,6.35-8.73c3.7-9.1-1.58-18.2-.87-18.44S1383.78,776.31,1380.24,785Z"/><path class="cls-4" d="M1408,785c2.53,6.25,9.62,9.26,10.09,8.73s-4.08-3.14-6.35-8.73c-3.7-9.1,1.58-18.2.87-18.44S1404.47,776.31,1408,785Z"/><ellipse class="cls-4" cx="1418.2" cy="694.78" rx="19.19" ry="3.99"/><path class="cls-4" d="M1404.25,713.1c-2.54,6.25-9.63,9.26-10.1,8.73s4.09-3.14,6.36-8.73c3.7-9.1-1.58-18.2-.87-18.44S1407.79,704.38,1404.25,713.1Z"/><path class="cls-4" d="M1432,713.1c2.54,6.25,9.63,9.26,10.1,8.73s-4.09-3.14-6.36-8.73c-3.7-9.1,1.59-18.2.88-18.44S1428.48,704.38,1432,713.1Z"/><ellipse class="cls-4" cx="1486.77" cy="774.28" rx="19.19" ry="3.99"/><path class="cls-4" d="M1472.81,792.6c-2.53,6.25-9.62,9.26-10.09,8.73s4.08-3.14,6.35-8.73c3.7-9.1-1.58-18.2-.87-18.44S1476.36,783.88,1472.81,792.6Z"/><path class="cls-4" d="M1500.59,792.6c2.54,6.25,9.63,9.26,10.09,8.73s-4.08-3.14-6.35-8.73c-3.7-9.1,1.58-18.2.87-18.44S1497.05,783.88,1500.59,792.6Z"/><ellipse class="cls-4" cx="1348.69" cy="856.69" rx="19.19" ry="3.99"/><path class="cls-4" d="M1334.74,875c-2.54,6.24-9.63,9.26-10.1,8.72s4.09-3.14,6.36-8.72c3.7-9.1-1.58-18.2-.87-18.45S1338.28,866.28,1334.74,875Z"/><path class="cls-4" d="M1362.52,875c2.53,6.24,9.62,9.26,10.09,8.72s-4.08-3.14-6.36-8.72c-3.7-9.1,1.59-18.2.88-18.45S1359,866.28,1362.52,875Z"/><ellipse class="cls-4" cx="1278.91" cy="841.14" rx="19.19" ry="3.99"/><path class="cls-4" d="M1265,859.46c-2.53,6.25-9.62,9.26-10.09,8.73s4.08-3.14,6.35-8.73c3.71-9.1-1.58-18.2-.87-18.44S1268.5,850.74,1265,859.46Z"/><path class="cls-4" d="M1292.73,859.46c2.54,6.25,9.63,9.26,10.1,8.73s-4.09-3.14-6.36-8.73c-3.7-9.1,1.58-18.2.87-18.44S1289.19,850.74,1292.73,859.46Z"/><ellipse class="cls-4" cx="1372.82" cy="910.02" rx="19.19" ry="3.99"/><path class="cls-4" d="M1358.86,928.34c-2.54,6.25-9.63,9.26-10.09,8.73s4.08-3.14,6.35-8.73c3.7-9.1-1.58-18.2-.87-18.44S1362.4,919.62,1358.86,928.34Z"/><path class="cls-4" d="M1386.64,928.34c2.53,6.25,9.62,9.26,10.09,8.73s-4.08-3.14-6.35-8.73c-3.7-9.1,1.58-18.2.87-18.44S1383.09,919.62,1386.64,928.34Z"/><ellipse class="cls-4" cx="1449.61" cy="882.92" rx="19.19" ry="3.99"/><path class="cls-4" d="M1435.65,901.24c-2.54,6.24-9.63,9.26-10.09,8.72s4.08-3.14,6.35-8.72c3.7-9.1-1.58-18.2-.87-18.44S1439.19,892.51,1435.65,901.24Z"/><path class="cls-4" d="M1463.43,901.24c2.53,6.24,9.62,9.26,10.09,8.72s-4.08-3.14-6.35-8.72c-3.7-9.1,1.58-18.2.87-18.44S1459.88,892.51,1463.43,901.24Z"/><circle class="cls-2" cx="1987.17" cy="490.64" r="196.56"/><ellipse class="cls-2" cx="1993.1" cy="504.91" rx="286.17" ry="35.26"/><path class="cls-5" d="M1436.23,405.27l-58,.16,18.44-19.75,42.2,6.48Q1437.55,398.71,1436.23,405.27Z"/><path class="cls-6" d="M1437.46,392.94l-41.09,4c-.17-3.75-.33-7.5-.5-11.25h33.45Z"/><path class="cls-7" d="M1438.89,392.16q0,.1-.06.3a8.82,8.82,0,0,1-.25,1.22c-.43.44-4.72-3.85-8.38-5.79-3.46-1.83-6.21-1.47-13-1.25-4.51.14-10.93.23-18.93-.05l1.41-2,29.7-.12Z"/><path class="cls-8" d="M1436.61,392.5l-1.4.2-1.53.22-1.4.21-1.8.26-1.41.2-1.55.23-1.41.21-1.74.25-1.4.21-1.77.25-1.41.21-2.08.3-1.41.21-9.44,1.39a12.87,12.87,0,0,1-1.08-1c-.29-.31-.56-.62-.8-.91,2.87-.19,4.64-.35,5.75-.46l3.06-.31,1.51-.15,2.23-.22,1.52-.16,1.89-.19,1.51-.15,1.86-.18,1.51-.16,1.66-.16,1.51-.16,1.93-.19,1.51-.15,1.63-.17,1.5-.15Z"/><path class="cls-9" d="M1401.1,508l-37.62,12.21,44-123.55,31.43-4.53Q1420,450.11,1401.1,508Z"/><path class="cls-10" d="M1430.48,393.39l-1.41.2-1.59-.83,1.51-.16Z"/><path class="cls-10" d="M1433.68,392.92l-1.4.21-1.36-.72,1.51-.15Z"/><path class="cls-10" d="M1436.61,392.5l-1.4.2-1.15-.61,1.5-.15Z"/><ellipse class="cls-11" cx="1351.27" cy="332.55" rx="71.1" ry="76.61"/><path class="cls-12" d="M1422,435.54c0,.74-.13,1.48-.23,2.23-1.61,12.15-8.9,24.21-17.68,34.57-.37.44-.75.89-1.13,1.32-2.07,2.38-4.21,4.66-6.37,6.83l-1.24,1.23c-2.41,2.35-4.82,4.56-7.17,6.59l-1.33,1.14c-10.21,8.63-18.89,13.7-19.8,12.82-.55-.54,3.17-5.57,10.63-15.62l2.58-3.47,1.06-1.4q3.29-4.35,5.94-7.76l1.08-1.38c2.38-3,4.34-5.48,5.85-7.32l.29-.37.56-.67.26-.31c1.72-2.08,2.61-3.09,2.61-3.09a56.26,56.26,0,0,0,9.12-14.15c.46-1,.83-1.94,1.13-2.76a22.76,22.76,0,0,0,.76-2.48,7.2,7.2,0,0,0,0-4.49c-.7-1.88-2.46-3.94-6-8.06-.38-.45-.76-.88-1.14-1.31-1.75-2-3.51-3.79-5.21-5.5-.42-.42-.84-.82-1.24-1.23-2-1.92-3.83-3.7-5.5-5.4-.42-.42-.83-.84-1.22-1.25-4.22-4.47-6.86-8.48-5.93-13.21,1.25-6.3,8.3-11.26,14-11.39,4.33-.09,8.33,2.64,11.8,6.81.37.44.73.9,1.09,1.37a50.46,50.46,0,0,1,4.16,6.6c.28.53.56,1.06.83,1.6,1.18,2.38,2.25,4.85,3.18,7.31h0c.22.59.44,1.18.65,1.76a81.35,81.35,0,0,1,2.64,9.12c.12.54.23,1.07.33,1.61h0c.08.36.23,1.09.37,2A34.11,34.11,0,0,1,1422,435.54Z"/><path class="cls-13" d="M1409.53,397.83l-19.7,17.67-1.22-1.25,19.83-17.79C1408.81,396.9,1409.17,397.36,1409.53,397.83Z"/><path class="cls-13" d="M1404,472.34c-.37.44-.75.89-1.13,1.32l-8.77-8.34.29-.37.56-.67.26-.31Z"/><path class="cls-13" d="M1396.54,480.49l-1.24,1.23-8.09-7.7,1.08-1.38Z"/><path class="cls-13" d="M1388.13,488.31l-1.33,1.14-6.59-6.27,1.06-1.4Z"/><path class="cls-13" d="M1414.52,406l-18,16.1c-.42-.41-.84-.82-1.24-1.23l18.36-16.47C1414,405,1414.25,405.49,1414.52,406Z"/><path class="cls-13" d="M1418.35,415.11l-15.43,13.83-1.14-1.31,15.92-14.29C1417.92,413.93,1418.14,414.52,1418.35,415.11Z"/><path class="cls-13" d="M1421.69,427.85l-11.89,10.66c-.3-.51-.61-1-.92-1.51l12.44-11.17C1421.46,426.51,1421.58,427.18,1421.69,427.85Z"/><path class="cls-13" d="M1422,435.54c0,.74-.13,1.48-.23,2.23l-13.61,6.2a22.76,22.76,0,0,0,.76-2.48Z"/><path class="cls-12" d="M1320.75,417.21c-.39.42-.8.83-1.21,1.26-1.68,1.7-3.55,3.48-5.5,5.4-.41.4-.83.81-1.24,1.23-1.71,1.7-3.47,3.52-5.21,5.49-.38.44-.77.87-1.15,1.32l-1,1.19a31.79,31.79,0,0,0-9.47,2.82l-1.74.78c-2.38,1.12-4.92,2.47-7.52,4a76.94,76.94,0,0,1,1-9.9c.11-.67.23-1.34.37-2h0c.1-.54.21-1.08.33-1.61a81.51,81.51,0,0,1,2.65-9.12c.21-.58.42-1.17.64-1.76h0a78.5,78.5,0,0,1,3.19-7.31l.34-.68c.16-.31.32-.62.49-.92a49.76,49.76,0,0,1,4.15-6.6c.36-.48.72-.93,1.09-1.37,3.48-4.17,7.47-6.91,11.8-6.81,4.13.09,9,2.76,11.81,6.63a12.16,12.16,0,0,1,2.15,4.75C1327.62,408.74,1325,412.74,1320.75,417.21Z"/><path class="cls-13" d="M1299.83,400.8l19.71,17.67,1.21-1.26-19.83-17.78C1300.55,399.87,1300.19,400.32,1299.83,400.8Z"/><path class="cls-13" d="M1294.85,409l18,16.1c.41-.42.83-.83,1.24-1.23l-18.37-16.47C1295.39,407.93,1295.11,408.46,1294.85,409Z"/><path class="cls-13" d="M1291,418.07l15.42,13.84c.38-.45.76-.88,1.15-1.32l-15.93-14.28C1291.44,416.9,1291.22,417.49,1291,418.07Z"/><path class="cls-13" d="M1296,435.92l-1.74.78-6.57-5.89c.11-.67.23-1.34.37-2Z"/><path class="cls-11" d="M1447.55,499.21c-2.88,5.76-10.15,9.66-15.8,8.61a8,8,0,0,1-1.12-.28c-4.71-1.55-6.91-7.07-14-19.11-9.9-16.9-21.39-33-24.78-31.6-.47.21-1,1.42-2.05,3.83a41.47,41.47,0,0,0-2.08,5.93c-1.2,4.78-16.44,45.13-30.34,67.81-18.34,29.92-53.36,56.81-60.69,51.34-10.43-7.78,31.46-83.86,19.91-91.34a16.51,16.51,0,0,0-6.32-1.9c-6.7-.71-12,2.7-14.15,4.05a28.7,28.7,0,0,0-3.16,2.34c-8.28,7-12.06,17.61-13.15,20.78-7.56,22-9.14,39.41-10.66,49.47-.88,5.79-1.74,9.12-3.71,9.42-5,.79-13.53-17.43-15.44-34.47a67.8,67.8,0,0,1,1.07-22.06c4.29-18.78,15.15-25.44,35.2-51.19,10-12.88,25.79-33.13,22.26-37-.56-.61-1.64-.85-3.13-.75a31.79,31.79,0,0,0-9.47,2.82l-1.74.78c-2.38,1.12-4.92,2.47-7.52,4A96.72,96.72,0,0,0,1272,451.45c-10.26,9.12-14.13,17.08-24.06,18.38-5.34.7-14-.33-16.16-5.1C1226.94,454.37,1254,430,1277,417a145.51,145.51,0,0,1,18.2-8.65l1-.41c3-1.14,5.71-2.12,8.23-3l1.92-.63c2.64-.84,4.95-1.52,6.86-2.08,3.5-1,7.19-2.07,11.28-3a114.78,114.78,0,0,1,16.69-2.54c11.87-.92,33-2.58,52.15,9.13.83.5,1.65,1,2.47,1.59a71.77,71.77,0,0,1,13.29,12.06c9,9.88,12.23,17.55,20.47,34.11C1445.9,486.41,1451.09,492.12,1447.55,499.21Z"/><ellipse class="cls-14" cx="1351.65" cy="331.03" rx="64.4" ry="68.24"/><path class="cls-15" d="M1383.87,303.26c18.17,26.73,18.93,29.7,20,29.25,3.89-1.55-.85-39.56-23.22-51.95-3-1.68-9.34-4.51-11-2.63C1367.72,280.13,1373.18,287.52,1383.87,303.26Z"/><rect class="cls-16" x="1323.04" y="364.77" width="19.46" height="2.14" rx="1.07" ry="1.07" transform="translate(649.04 -835.26) rotate(45)"/><rect class="cls-16" x="1335.3" y="364.77" width="19.46" height="2.14" rx="1.07" ry="1.07" transform="translate(2554.8 -326.56) rotate(135)"/><rect class="cls-16" x="1347.77" y="364.77" width="19.46" height="2.14" rx="1.07" ry="1.07" transform="translate(656.29 -852.75) rotate(45)"/><rect class="cls-16" x="1360.04" y="364.77" width="19.46" height="2.14" rx="1.07" ry="1.07" transform="translate(2597.03 -344.05) rotate(135)"/><path class="cls-10" d="M1417.71,395.25l-1.41.21-2.51-1.33,1.51-.15Z"/><path class="cls-10" d="M1421.2,394.74l-1.41.21-2.26-1.19,1.52-.16Z"/><path class="cls-10" d="M1424.37,394.28l-1.4.21-2-1.08,1.51-.15Z"/><path class="cls-10" d="M1427.52,393.82l-1.41.21-1.8-.95,1.51-.16Z"/><path class="cls-17" d="M1447.55,499.21c-2.88,5.76-10.15,9.66-15.8,8.61a8,8,0,0,1-1.12-.28,48.75,48.75,0,0,0,7.48-7.66c1.58-2.05,3.58-4.63,4.4-7,2.44-7.07-4.44-15.13-10.39-22.69-1.59-2-4-5.18-6.81-9.18-4.41-6.32-7.2-11.14-15.69-26.13s-9.31-16.54-11.73-19.63a80.7,80.7,0,0,0-14.5-14.33h0a62.48,62.48,0,0,1,12.45,6.51,74.22,74.22,0,0,1,13.29,12.06c9,9.88,12.23,17.55,20.47,34.11C1445.9,486.41,1451.09,492.12,1447.55,499.21Z"/><path class="cls-18" d="M1293,498.89c-8.28,7-12.06,17.61-13.15,20.78-7.56,22-9.14,39.41-10.66,49.47-3.42-.4-7-20.83-.23-39.82C1275.19,512,1288.93,499.15,1293,498.89Z"/><path class="cls-19" d="M1384.08,400.44c.09.24-12.08,8.26-28.73,8.46-18.4.22-32-9.24-31.95-9.39a62.92,62.92,0,0,0,29.4,8.43C1370.79,408.39,1384,400.2,1384.08,400.44Z"/><rect class="cls-20" x="1362.72" y="435" width="15.65" height="19.36" rx="7.83" ry="7.83" transform="translate(232.08 -438.52) rotate(19.83)"/><path class="cls-11" d="M1365.52,442.88a5.12,5.12,0,0,1,1.54-2.34,4.62,4.62,0,0,1,.5-.37,3.76,3.76,0,0,1,.55-.32,5,5,0,0,1,.53-.23,5.09,5.09,0,0,1,5.79,1.72,4.9,4.9,0,0,1,.31.48,4.66,4.66,0,0,1,.47,1q.09.3.15.6a5.12,5.12,0,0,1-.14,2.45,5.2,5.2,0,0,1-.93,1.72,4.16,4.16,0,0,1-.46.48,5.12,5.12,0,0,1-1.87,1.11,5.1,5.1,0,0,1-5.45-1.52,5.55,5.55,0,0,1-.35-.46,5.1,5.1,0,0,1-.72-1.64A5,5,0,0,1,1365.52,442.88Zm.52,2.86a4.18,4.18,0,0,0,.65,1.3l0,0a2.37,2.37,0,0,0,.32.39l0,0a4.33,4.33,0,0,0,1.94,1.21,4.54,4.54,0,0,0,2.63,0,4.61,4.61,0,0,0,2-1.26,4.87,4.87,0,0,0,.4-.5,4.62,4.62,0,0,0,.61-1.24,4.51,4.51,0,0,0,.17-1.92c0-.2-.06-.39-.11-.59a4.86,4.86,0,0,0-.54-1.24c-.1-.15-.2-.3-.32-.45a4.55,4.55,0,0,0-2.18-1.48,4.46,4.46,0,0,0-2.68,0h0a3.94,3.94,0,0,0-.48.18l0,0a4.27,4.27,0,0,0-.79.48,4,4,0,0,0-.46.38,4.54,4.54,0,0,0-1.32,4A6.23,6.23,0,0,0,1366,445.74Z"/><path class="cls-11" d="M1366.72,447.08l0,0a4.49,4.49,0,0,0,2.41-2.73v0a2.18,2.18,0,0,0,.11-.44s0,0,0,0,0,0,0-.06v0a2.89,2.89,0,0,0,.07-.49v0a4.53,4.53,0,0,0-.84-2.93l0,0a4,4,0,0,0-.33-.39,4.93,4.93,0,0,1,.53-.22,3.39,3.39,0,0,1,.33.42l0,0a5.08,5.08,0,0,1,.83,3.47h0a1.2,1.2,0,0,1,0,.2h0c0,.12,0,.23-.07.35a1.21,1.21,0,0,1,0,.18h0c0,.05,0,.09,0,.14a5.08,5.08,0,0,1-2.59,3h0a4.4,4.4,0,0,1-.5.21,3.79,3.79,0,0,1-.34-.45Z"/><path class="cls-11" d="M1371.39,444.09a5.44,5.44,0,0,0,.58.05,2,2,0,0,0-.13.25h0a1.36,1.36,0,0,0-.24-.13l-.18-.08-.07,0A.25.25,0,0,0,1371.39,444.09Zm-.22.58v0l0,0c0-.16.1-.3.16-.45a.25.25,0,0,0,0-.07,5.05,5.05,0,0,1,2.51-2.54.45.45,0,0,1,.84.27,5.34,5.34,0,0,0-.52.18,4.5,4.5,0,0,0-2.25,2.14,2,2,0,0,0-.13.25h0l-.1.27,0,.14,0,.1h0a4.56,4.56,0,0,0,.51,3.64,3.65,3.65,0,0,0,.32.45,4.87,4.87,0,0,1-.53.21,4.76,4.76,0,0,1-.31-.47A5.07,5.07,0,0,1,1371.17,444.67Z"/><path class="cls-11" d="M1369.74,444.33h-.57v0a2.18,2.18,0,0,0,.11-.44s0,0,0,0a4.94,4.94,0,0,0,.49.3,2.87,2.87,0,0,0,.4.18l.35.13.07,0,.1,0a4.15,4.15,0,0,0,.48.11h.07c0-.14.1-.29.16-.43h0l.17.09a1.34,1.34,0,0,1,.24.12l.08,0h0c0,.07-.06.14-.09.23v0l0,.13a.56.56,0,0,0,0,.12l-.07,0a3.29,3.29,0,0,0-.42-.21l-.07,0a2.58,2.58,0,0,0-.39-.14l-.35-.09a2.57,2.57,0,0,0-.47-.08Zm-3.85.79a5.07,5.07,0,0,1,3.24-1.36h.18a3.93,3.93,0,0,1,.48,0h.07a5.16,5.16,0,0,1,1,.2l.48.18.07,0,.18.08a1.36,1.36,0,0,1,.24.13l.07,0,.37.24a5.06,5.06,0,0,1,1.81,2.31,4.75,4.75,0,0,1,.2.64,4.16,4.16,0,0,1-.46.48,4.29,4.29,0,0,0-.14-.62,4.54,4.54,0,0,0-2-2.57l-.42-.22-.07,0a2.58,2.58,0,0,0-.39-.14l-.07,0-.1,0a4.28,4.28,0,0,0-.87-.15h-.07a2.68,2.68,0,0,0-.49,0h-.08a4.56,4.56,0,0,0-3.06,1.44,3.81,3.81,0,0,0-.4.5,4.75,4.75,0,0,1-.2-.64A5.11,5.11,0,0,1,1365.89,445.12Z"/><path class="cls-11" d="M1369.24,443.75a5,5,0,0,0,.07-.54.18.18,0,0,0,.07.05,4.17,4.17,0,0,0,.44.29l.07,0a4.83,4.83,0,0,0,.81.35l.17.05.52.11a.25.25,0,0,1,0,.07l.07,0c-.06.14-.11.29-.16.43h-.07a4.15,4.15,0,0,1-.48-.11l-.1,0-.07,0-.35-.13a2.87,2.87,0,0,1-.4-.18l-.07,0a3,3,0,0,1-.43-.25l-.06,0S1369.24,443.78,1369.24,443.75Zm-1.68-3.58a4.08,4.08,0,0,0,.11.59,4.55,4.55,0,0,0,1.64,2.45.18.18,0,0,0,.07.05,4.17,4.17,0,0,0,.44.29l.07,0a4.83,4.83,0,0,0,.81.35l.17.05.52.11a5.44,5.44,0,0,0,.58.05,4.56,4.56,0,0,0,2.79-.9,3.23,3.23,0,0,0,.45-.38q.09.3.15.6a5.72,5.72,0,0,1-.49.37,5.05,5.05,0,0,1-2.59.85,3.53,3.53,0,0,1-.46,0h-.08l-.48-.05h-.07a4.15,4.15,0,0,1-.48-.11l-.1,0-.07,0-.35-.13a2.87,2.87,0,0,1-.4-.18l-.07,0a3,3,0,0,1-.43-.25l-.06,0-.1-.06a5.13,5.13,0,0,1-1.92-2.62q-.09-.3-.15-.6A4.62,4.62,0,0,1,1367.56,440.17Z"/></g></g></svg>