<svg xmlns="http://www.w3.org/2000/svg" viewBox="0 0 896.08 385.38"><defs><style>.cls-1{fill:#005cff;}.cls-2{fill:#565656;}.cls-3{fill:#eaeaea;}.cls-4{fill:#999;}.cls-5{fill:#878787;}.cls-6{fill:#777;}.cls-7{fill:#bcbcbc;}.cls-8{fill:#fffffd;}.cls-9{fill:#909198;}.cls-10,.cls-14,.cls-15,.cls-16{fill:#78797f;}.cls-11{fill:#0a0a0a;}.cls-12{fill:#eaeae8;opacity:0.76;}.cls-13{fill:#fff;}.cls-14{opacity:0.27;}.cls-15{opacity:0.29;}.cls-16{opacity:0.08;}.cls-17{fill:#efefef;}</style></defs><title>Asset 1</title><g id="Layer_2" data-name="Layer 2"><g id="Layer_1-2" data-name="Layer 1"><path class="cls-1" d="M502.93,177.82a59,59,0,0,0-3.77-6.38,61.05,61.05,0,0,0-9-10.47A62.84,62.84,0,0,0,485,156.6a61.13,61.13,0,0,0-72.69-.12,60.14,60.14,0,0,0-5.31,4.4,61.82,61.82,0,0,0-9.73,11.58,61.13,61.13,0,0,0-1.53,64,61.17,61.17,0,0,0,14,16.46,62.15,62.15,0,0,0,5.57,4.08,61.15,61.15,0,0,0,68.09-1,62.71,62.71,0,0,0,5.38-4.21,61.06,61.06,0,0,0,12.44-15,58.57,58.57,0,0,0,3.62-7.16,61.18,61.18,0,0,0-1.87-51.74ZM497.37,230a54.6,54.6,0,0,1-76.79,22.53,55.6,55.6,0,0,1-5.55-3.81A54.61,54.61,0,0,1,403.13,236a53.17,53.17,0,0,1-3.81-6.69A54.64,54.64,0,0,1,401,178.85a53.33,53.33,0,0,1,3.94-6,54.85,54.85,0,0,1,7.57-8.18,57.46,57.46,0,0,1,5.33-4.13,54.61,54.61,0,0,1,61.74.25,56.39,56.39,0,0,1,5.25,4.13,55,55,0,0,1,10.39,12.5,54.63,54.63,0,0,1,7.87,29.13A54,54,0,0,1,497.37,230Z"/><path class="cls-1" d="M441,207.05c0-.81,0-1.61-.07-2.41-.07-1.42-.19-2.81-.36-4.2-.1-.89-.22-1.78-.37-2.66a61.06,61.06,0,0,0-21.48-37.21,58.47,58.47,0,0,0-5.57-4.08,62.27,62.27,0,0,0-5.31,4.4,54.91,54.91,0,0,1,25.26,34.74,49.74,49.74,0,0,1,1.06,6.48c0,.29.07.57.09.85a56.42,56.42,0,0,1,.2,5.69v.29a54.47,54.47,0,0,1-18.54,39.83,56.16,56.16,0,0,1-5.33,4.13,60.15,60.15,0,0,0,5.57,4.07A61.17,61.17,0,0,0,441,208.75C441,208.18,441,207.62,441,207.05Z"/><path class="cls-1" d="M465.22,207.36c0-.47,0-.94,0-1.41s0-1.18.06-1.76q.07-1.75.27-3.48c.13-1.17.3-2.33.51-3.47A54.73,54.73,0,0,1,490.2,161,62.84,62.84,0,0,0,485,156.6a61.22,61.22,0,0,0-25.74,42c-.05.32-.09.64-.12,1a56.2,56.2,0,0,0-.41,5.7c0,.18,0,.36,0,.53s0,.21,0,.31a61.34,61.34,0,0,0,24.68,49.76,62.71,62.71,0,0,0,5.38-4.21,53.45,53.45,0,0,1-5.25-4.12A54.46,54.46,0,0,1,465.22,207.36Zm-6-8.72c-.05.32-.09.64-.12,1a57.3,57.3,0,0,1,6.46,1.1c.13-1.17.3-2.33.51-3.47A52,52,0,0,1,459.22,198.64Z"/><path class="cls-1" d="M500.32,222.92a61.23,61.23,0,0,0-28.76-20.52,59.75,59.75,0,0,0-6-1.69,57.3,57.3,0,0,0-6.46-1.1,59.34,59.34,0,0,0-6.15-.41,60.5,60.5,0,0,0-13.26,1.23,59.5,59.5,0,0,0-6.4,1.67l-1.25.41a61.25,61.25,0,0,0-32.72,26.76,58.44,58.44,0,0,0-3.62,7.15,61.38,61.38,0,0,0,4.48,6.65,51.64,51.64,0,0,1,2.95-7.11,54.46,54.46,0,0,1,49.72-30.21,56.12,56.12,0,0,1,5.83.4,53.89,53.89,0,0,1,6.54,1.21A54.7,54.7,0,0,1,497.37,230a53,53,0,0,1,3.81,6.69,58.57,58.57,0,0,0,3.62-7.16A62.24,62.24,0,0,0,500.32,222.92Zm-33.85-22.19a57.1,57.1,0,0,0-6.47-1.11c-.22,1.87-.36,3.78-.4,5.71a62.91,62.91,0,0,1-8.05.4A61.51,61.51,0,0,1,441,204.64a58.78,58.78,0,0,1-6.68-1.68,56.42,56.42,0,0,1,.2,5.69v.29a51.3,51.3,0,0,1,6.55-1.89,54.49,54.49,0,0,1,12.72-1.29,53.5,53.5,0,0,1,5.84.41,56.66,56.66,0,0,1,6.54,1.2V206c0-.59,0-1.17.06-1.76C466.25,203,466.34,201.87,466.47,200.73Z"/><path class="cls-1" d="M499.16,171.44a54.9,54.9,0,0,1-33.09,25.8,52,52,0,0,1-6.85,1.4,53.84,53.84,0,0,1-8.47.52,54.49,54.49,0,0,1-11.43-1.39,53.43,53.43,0,0,1-7.1-2.16,54.71,54.71,0,0,1-27.28-22.75,53.3,53.3,0,0,1-3.3-6.37,58.54,58.54,0,0,0-4.41,6,60.17,60.17,0,0,0,3.77,6.39,61.23,61.23,0,0,0,31,23.66c.44.15.89.3,1.33.43a59.49,59.49,0,0,0,6.69,1.68,60.44,60.44,0,0,0,10.59,1.09,62.31,62.31,0,0,0,14.64-1.52,60.9,60.9,0,0,0,33.23-20.39,59.8,59.8,0,0,0,4.41-6A59,59,0,0,0,499.16,171.44Zm-48.41,27.72a54.49,54.49,0,0,1-11.43-1.39,53.43,53.43,0,0,1-7.1-2.16,51.37,51.37,0,0,1,1.07,6.49c0,.28.06.56.08.84a59.49,59.49,0,0,0,6.69,1.68,60.44,60.44,0,0,0,10.59,1.09,59.4,59.4,0,0,0,8-.4,56.2,56.2,0,0,1,.41-5.7c0-.33.07-.65.12-1A53.84,53.84,0,0,1,450.75,199.16Z"/><path class="cls-2" d="M191.7,169.61l58,.16q-9.23-9.87-18.43-19.75L189,156.5Q190.38,163.06,191.7,169.61Z"/><path class="cls-3" d="M190.47,157.28l41.09,4c.17-3.75.33-7.5.5-11.25H198.61Z"/><path class="cls-4" d="M189,156.5q0,.1.06.3a8.82,8.82,0,0,0,.25,1.22c.43.44,4.72-3.85,8.38-5.79,3.46-1.83,6.21-1.47,13-1.25,4.51.14,10.93.23,18.93,0l-1.41-2.05-29.7-.12Z"/><path class="cls-5" d="M191.32,156.84l1.41.2,1.52.22,1.4.21,1.8.26,1.41.2,1.55.23,1.41.21,1.74.25,1.4.21,1.77.25,1.41.21,2.08.3,1.41.21,9.44,1.39a12.87,12.87,0,0,0,1.08-1c.29-.31.56-.62.8-.91-2.87-.19-4.64-.35-5.75-.46l-3.06-.31-1.51-.15-2.23-.22-1.52-.16-1.89-.19-1.51-.15-1.86-.18-1.51-.16-1.66-.16-1.51-.16-1.93-.19-1.51-.15-1.63-.17-1.5-.15Z"/><path class="cls-6" d="M226.83,272.37l37.62,12.21L220.47,161,189,156.5Q207.94,214.45,226.83,272.37Z"/><path class="cls-7" d="M197.45,157.73l1.41.2,1.59-.83-1.51-.16Z"/><path class="cls-7" d="M194.25,157.26l1.4.21,1.36-.72-1.51-.15Z"/><path class="cls-7" d="M191.32,156.84l1.41.2,1.14-.61-1.5-.15Z"/><ellipse class="cls-8" cx="276.66" cy="96.89" rx="71.1" ry="76.61"/><path class="cls-9" d="M206,199.88c.05.74.13,1.48.23,2.23,1.61,12.15,8.9,24.21,17.68,34.57.37.44.75.89,1.13,1.32,2.07,2.38,4.21,4.66,6.37,6.83l1.24,1.23c2.41,2.35,4.82,4.56,7.17,6.59l1.33,1.14c10.21,8.63,18.89,13.7,19.8,12.82.55-.54-3.17-5.57-10.63-15.62l-2.58-3.47-1.06-1.4q-3.28-4.35-5.94-7.76L239.64,237c-2.38-3-4.34-5.48-5.85-7.32l-.29-.37-.56-.67-.26-.31c-1.72-2.08-2.61-3.09-2.61-3.09A56.26,56.26,0,0,1,221,211.07c-.46-1-.83-1.94-1.13-2.76a22.76,22.76,0,0,1-.76-2.48,7.2,7.2,0,0,1,0-4.49c.7-1.88,2.46-3.94,6-8.06.38-.45.76-.88,1.14-1.31,1.75-2,3.51-3.79,5.22-5.5.41-.42.83-.82,1.24-1.23,1.95-1.92,3.82-3.7,5.49-5.4.42-.42.83-.84,1.22-1.25,4.22-4.47,6.86-8.48,5.93-13.21-1.25-6.3-8.3-11.26-14-11.39-4.33-.09-8.33,2.64-11.8,6.81-.37.44-.73.9-1.09,1.37a50.46,50.46,0,0,0-4.16,6.6c-.28.53-.56,1.06-.83,1.6-1.18,2.38-2.25,4.85-3.18,7.31h0c-.22.59-.44,1.18-.65,1.76a81.35,81.35,0,0,0-2.64,9.12c-.12.54-.23,1.07-.33,1.61h0c-.08.36-.23,1.09-.37,2A34.11,34.11,0,0,0,206,199.88Z"/><path class="cls-10" d="M218.4,162.17l19.7,17.67,1.22-1.25L219.49,160.8C219.12,161.24,218.76,161.7,218.4,162.17Z"/><path class="cls-10" d="M223.89,236.68c.37.44.75.89,1.13,1.32l8.77-8.34-.29-.37-.56-.67-.26-.31Z"/><path class="cls-10" d="M231.39,244.83l1.24,1.23,8.09-7.7L239.64,237Z"/><path class="cls-10" d="M239.8,252.65l1.33,1.14,6.59-6.27-1.06-1.4Z"/><path class="cls-10" d="M213.41,170.37l18,16.1,1.25-1.23-18.37-16.47C214,169.3,213.68,169.83,213.41,170.37Z"/><path class="cls-10" d="M209.58,179.45,225,193.28l1.14-1.31-15.92-14.29C210,178.27,209.79,178.86,209.58,179.45Z"/><path class="cls-10" d="M206.24,192.19l11.89,10.66c.3-.51.61-1,.92-1.51l-12.44-11.17C206.47,190.85,206.35,191.52,206.24,192.19Z"/><path class="cls-10" d="M206,199.88c.05.74.13,1.48.23,2.23l13.61,6.2a22.76,22.76,0,0,1-.76-2.48Z"/><path class="cls-9" d="M307.18,181.55c.39.42.8.83,1.21,1.26,1.68,1.7,3.55,3.48,5.5,5.4.41.4.83.81,1.24,1.23,1.71,1.7,3.47,3.52,5.21,5.49.38.44.77.87,1.15,1.32l1,1.19a31.79,31.79,0,0,1,9.47,2.82l1.74.78c2.38,1.12,4.92,2.47,7.52,4a76.94,76.94,0,0,0-.95-9.9c-.11-.67-.23-1.34-.37-2h0c-.1-.54-.21-1.08-.33-1.61a81.51,81.51,0,0,0-2.65-9.12c-.2-.58-.42-1.17-.64-1.76h0a78.5,78.5,0,0,0-3.19-7.31c-.11-.23-.23-.45-.34-.68s-.32-.62-.49-.92a49.76,49.76,0,0,0-4.15-6.6c-.36-.48-.72-.93-1.09-1.37-3.48-4.17-7.47-6.91-11.8-6.81-4.13.09-9,2.76-11.81,6.63a12.16,12.16,0,0,0-2.15,4.75C300.31,173.08,303,177.08,307.18,181.55Z"/><path class="cls-10" d="M328.1,165.14l-19.71,17.67-1.21-1.26L327,163.77C327.38,164.21,327.74,164.66,328.1,165.14Z"/><path class="cls-10" d="M333.08,173.34l-17.95,16.1c-.41-.42-.83-.83-1.24-1.23l18.37-16.47C332.54,172.27,332.82,172.8,333.08,173.34Z"/><path class="cls-10" d="M336.91,182.41l-15.42,13.84-1.14-1.32,15.92-14.28C336.49,181.24,336.71,181.83,336.91,182.41Z"/><path class="cls-10" d="M332,200.26l1.74.78,6.57-5.89c-.11-.67-.23-1.34-.37-2Z"/><path class="cls-8" d="M180.38,263.55c2.88,5.76,10.15,9.66,15.8,8.61a8,8,0,0,0,1.12-.28c4.71-1.55,6.91-7.07,14-19.11,9.9-16.9,21.39-33,24.78-31.6.47.21,1,1.42,2.05,3.83a41.47,41.47,0,0,1,2.08,5.93c1.2,4.78,16.45,45.13,30.34,67.81,18.34,29.92,53.36,56.81,60.69,51.34,10.43-7.78-31.46-83.86-19.91-91.34a16.51,16.51,0,0,1,6.33-1.9c6.69-.71,12,2.7,14.14,4.05a28.7,28.7,0,0,1,3.16,2.34c8.28,7,12.06,17.61,13.15,20.78,7.56,21.95,9.14,39.41,10.67,49.47.87,5.79,1.73,9.12,3.7,9.42,5,.79,13.53-17.43,15.44-34.47a67.8,67.8,0,0,0-1.07-22.06c-4.29-18.78-15.15-25.44-35.2-51.19-10-12.88-25.79-33.13-22.26-37,.56-.61,1.64-.85,3.13-.75a31.71,31.71,0,0,1,9.47,2.82l1.74.78c2.38,1.12,4.92,2.47,7.52,4A96.72,96.72,0,0,1,356,215.79c10.26,9.12,14.13,17.08,24.06,18.38,5.34.7,14-.33,16.16-5.1,4.8-10.36-22.28-34.75-45.25-47.76a145.51,145.51,0,0,0-18.2-8.65l-1.05-.41c-2.94-1.14-5.71-2.12-8.23-2.95l-1.92-.63c-2.64-.84-5-1.52-6.86-2.08-3.5-1-7.19-2.07-11.28-3a114.85,114.85,0,0,0-16.68-2.54c-11.88-.92-33-2.58-52.16,9.13-.82.5-1.65,1-2.47,1.59a71.77,71.77,0,0,0-13.29,12.06c-9,9.88-12.23,17.55-20.47,34.11C182,250.75,176.84,256.46,180.38,263.55Z"/><ellipse class="cls-11" cx="276.28" cy="95.37" rx="64.4" ry="68.24"/><path class="cls-12" d="M310,66.08c18.17,26.73,18.93,29.7,20,29.25,3.89-1.54-.85-39.56-23.22-51.95-3-1.68-9.34-4.51-11-2.63C293.86,43,299.32,50.34,310,66.08Z"/><rect class="cls-13" x="285.43" y="129.11" width="19.46" height="2.14" rx="1.07" ry="1.07" transform="translate(595.92 13.51) rotate(135)"/><rect class="cls-13" x="273.17" y="129.11" width="19.46" height="2.14" rx="1.07" ry="1.07" transform="translate(174.91 -161.91) rotate(45)"/><rect class="cls-13" x="260.7" y="129.11" width="19.46" height="2.14" rx="1.07" ry="1.07" transform="translate(553.69 31) rotate(135)"/><rect class="cls-13" x="248.43" y="129.11" width="19.46" height="2.14" rx="1.07" ry="1.07" transform="translate(167.66 -144.42) rotate(45)"/><path class="cls-7" d="M210.22,159.59l1.41.21,2.51-1.33-1.51-.15Z"/><path class="cls-7" d="M206.73,159.08l1.41.21,2.26-1.19-1.52-.16Z"/><path class="cls-7" d="M203.56,158.62l1.4.21,2-1.08-1.51-.15Z"/><path class="cls-7" d="M200.41,158.16l1.41.21,1.8-1-1.51-.16Z"/><path class="cls-14" d="M180.38,263.55c2.88,5.76,10.15,9.66,15.8,8.61a8,8,0,0,0,1.12-.28,48.75,48.75,0,0,1-7.48-7.66c-1.58-2.05-3.58-4.63-4.4-7-2.44-7.07,4.44-15.13,10.39-22.69,1.59-2,4-5.18,6.81-9.18,4.41-6.32,7.2-11.14,15.69-26.13s9.31-16.54,11.73-19.63a80.7,80.7,0,0,1,14.5-14.33h0a62.48,62.48,0,0,0-12.45,6.51,74.22,74.22,0,0,0-13.29,12.06c-9,9.88-12.23,17.55-20.47,34.11C182,250.75,176.84,256.46,180.38,263.55Z"/><path class="cls-15" d="M334.92,263.23c8.28,7,12.06,17.61,13.15,20.78,7.56,21.95,9.14,39.41,10.67,49.47,3.41-.4,7-20.83.22-39.82C352.74,276.31,339,263.49,334.92,263.23Z"/><path class="cls-16" d="M243.85,164.78c-.09.24,12.08,8.26,28.73,8.46,18.4.22,32-9.24,31.95-9.39a62.92,62.92,0,0,1-29.4,8.43C257.14,172.73,243.94,164.54,243.85,164.78Z"/><rect class="cls-17" x="249.56" y="199.34" width="15.65" height="19.36" rx="7.83" ry="7.83" transform="matrix(-0.94, 0.34, -0.34, -0.94, 570.41, 318.35)"/><path class="cls-8" d="M262.41,207.22a5.12,5.12,0,0,0-1.54-2.34,4.62,4.62,0,0,0-.5-.37,3.76,3.76,0,0,0-.55-.32,5,5,0,0,0-.53-.23,5.09,5.09,0,0,0-5.79,1.72,4.9,4.9,0,0,0-.31.48,4.66,4.66,0,0,0-.47,1q-.09.3-.15.6a5.12,5.12,0,0,0,.14,2.45,5.2,5.2,0,0,0,.93,1.72,4.16,4.16,0,0,0,.46.48,5.12,5.12,0,0,0,1.87,1.11,5.1,5.1,0,0,0,5.45-1.52,5.55,5.55,0,0,0,.35-.46,5.1,5.1,0,0,0,.72-1.64A5,5,0,0,0,262.41,207.22Zm-.52,2.86a4.18,4.18,0,0,1-.65,1.3l0,0a2.37,2.37,0,0,1-.32.39s0,0,0,0a4.33,4.33,0,0,1-1.94,1.21,4.54,4.54,0,0,1-2.63,0,4.61,4.61,0,0,1-2-1.26,4.87,4.87,0,0,1-.4-.5,4.62,4.62,0,0,1-.61-1.24,4.51,4.51,0,0,1-.17-1.92c0-.2.06-.39.11-.59a4.86,4.86,0,0,1,.54-1.24c.1-.15.2-.3.32-.45a4.55,4.55,0,0,1,2.18-1.48,4.46,4.46,0,0,1,2.68,0h.05a3.94,3.94,0,0,1,.48.18l.05,0a4.27,4.27,0,0,1,.79.48,4,4,0,0,1,.46.38,4.54,4.54,0,0,1,1.32,4A6.23,6.23,0,0,1,261.89,210.08Z"/><path class="cls-8" d="M261.21,211.42l0,0a4.49,4.49,0,0,1-2.41-2.73v0a2.18,2.18,0,0,1-.11-.44v0s0,0,0-.06v0a2.89,2.89,0,0,1-.07-.49v0a4.53,4.53,0,0,1,.84-2.93l0,0a4,4,0,0,1,.33-.39,4.93,4.93,0,0,0-.53-.22,3.39,3.39,0,0,0-.33.42l0,0a5.08,5.08,0,0,0-.83,3.47h0a1.2,1.2,0,0,0,0,.2h0c0,.12,0,.23.07.35a1.21,1.21,0,0,0,.05.18h0c0,.05,0,.09,0,.14a5.08,5.08,0,0,0,2.59,3h0a4.4,4.4,0,0,0,.5.21,3.79,3.79,0,0,0,.34-.45Z"/><path class="cls-8" d="M256.54,208.43a5.44,5.44,0,0,1-.58,0,2,2,0,0,1,.13.25h0a1.36,1.36,0,0,1,.24-.13l.18-.08.07,0A.25.25,0,0,1,256.54,208.43Zm.22.58v0l0,0c-.05-.16-.1-.3-.16-.45a.25.25,0,0,1,0-.07,5.05,5.05,0,0,0-2.51-2.54,4.87,4.87,0,0,0-.53-.21,4.9,4.9,0,0,0-.31.48,5.34,5.34,0,0,1,.52.18,4.5,4.5,0,0,1,2.25,2.14,2,2,0,0,1,.13.25h0l.1.27.05.14,0,.1h0a4.56,4.56,0,0,1-.51,3.64,3.65,3.65,0,0,1-.32.45,4.87,4.87,0,0,0,.53.21,4.76,4.76,0,0,0,.31-.47A5.07,5.07,0,0,0,256.76,209Z"/><path class="cls-8" d="M258.19,208.67h.57v0a2.18,2.18,0,0,1-.11-.44v0a4.94,4.94,0,0,1-.49.3,2.87,2.87,0,0,1-.4.18l-.35.13-.07,0-.1,0a4.15,4.15,0,0,1-.48.11h-.07c-.05-.14-.1-.29-.16-.43h0l-.17.09a1.34,1.34,0,0,0-.24.12l-.08,0h0c0,.07.06.14.09.23s0,0,0,0l0,.13a.56.56,0,0,1,0,.12l.07,0a3.29,3.29,0,0,1,.42-.21l.07,0a2.58,2.58,0,0,1,.39-.14l.36-.09a2.46,2.46,0,0,1,.46-.08Zm3.85.79a5.07,5.07,0,0,0-3.24-1.36h-.18a3.93,3.93,0,0,0-.48,0h-.07a5.16,5.16,0,0,0-1,.2l-.48.18-.07,0-.18.08a1.36,1.36,0,0,0-.24.13l-.07,0-.37.24a5.06,5.06,0,0,0-1.81,2.31,4.75,4.75,0,0,0-.2.64,4.16,4.16,0,0,0,.46.48,4.29,4.29,0,0,1,.14-.62,4.54,4.54,0,0,1,2-2.57l.42-.22.07,0a2.58,2.58,0,0,1,.39-.14l.07,0,.1,0a4.28,4.28,0,0,1,.87-.15h.07a2.68,2.68,0,0,1,.49,0h.08a4.56,4.56,0,0,1,3.06,1.44,3.81,3.81,0,0,1,.4.5,4.75,4.75,0,0,0,.2-.64A5.11,5.11,0,0,0,262,209.46Z"/><path class="cls-8" d="M258.69,208.09a5,5,0,0,1-.07-.54.18.18,0,0,1-.07,0,4.17,4.17,0,0,1-.44.29l-.07,0a4.83,4.83,0,0,1-.81.35l-.17,0-.52.11a.25.25,0,0,0,0,.07l-.07,0c.06.14.11.29.16.43h.07a4.15,4.15,0,0,0,.48-.11l.1,0,.07,0,.35-.13a2.87,2.87,0,0,0,.4-.18l.07,0a3,3,0,0,0,.43-.25l.06,0S258.69,208.12,258.69,208.09Zm1.68-3.58a4.08,4.08,0,0,1-.11.59,4.55,4.55,0,0,1-1.64,2.45.18.18,0,0,1-.07,0,4.17,4.17,0,0,1-.44.29l-.07,0a4.83,4.83,0,0,1-.81.35l-.17,0-.52.11a5.44,5.44,0,0,1-.58,0,4.56,4.56,0,0,1-2.79-.9,3.23,3.23,0,0,1-.45-.38q-.09.3-.15.6a5.72,5.72,0,0,0,.49.37,5.05,5.05,0,0,0,2.59.85,3.53,3.53,0,0,0,.46,0h.08l.48,0h.07a4.15,4.15,0,0,0,.48-.11l.1,0,.07,0,.35-.13a2.87,2.87,0,0,0,.4-.18l.07,0a3,3,0,0,0,.43-.25l.06,0,.1-.06a5.13,5.13,0,0,0,1.92-2.62q.09-.3.15-.6A4.62,4.62,0,0,0,260.37,204.51Z"/><path class="cls-2" d="M5.52,239l56.55-12.75L39.7,211.11,0,226.83Z"/><path class="cls-3" d="M1.56,227.27l41-5.26q-1-5.55-2-11.08L7.88,218.38Z"/><path class="cls-4" d="M0,226.83l.12.27c.48,1.06.47,1.11.52,1.13.52.34,3.74-4.8,6.88-7.5,3-2.55,5.73-2.82,12.38-4.12,4.44-.86,10.72-2.2,18.45-4.26l-1.83-1.68-29,6.5Z"/><path class="cls-5" d="M2.3,226.64l1.41-.11,1.53-.12,1.42-.12,1.81-.14L9.89,226l1.56-.13,1.42-.11,1.75-.14,1.42-.11,1.78-.15,1.42-.11,2.1-.17,1.42-.11,9.51-.74a13.8,13.8,0,0,0,.82-1.26c.22-.37.41-.73.57-1.07-2.83.46-4.59.7-5.7.84l-3.05.38-1.51.19-2.23.28-1.5.18-1.89.24-1.5.19-1.86.23-1.51.19-1.66.21-1.5.18-1.92.24-1.51.19-1.62.2-1.51.19Z"/><path class="cls-6" d="M62.65,331.37,102,334.9,31.65,224.24,0,226.83Z"/><path class="cls-7" d="M8.47,226.15,9.89,226l1.36-1.17-1.5.18Z"/><path class="cls-7" d="M5.24,226.41l1.42-.12,1.17-1-1.51.19Z"/><path class="cls-7" d="M2.3,226.64l1.41-.11,1-.85-1.51.19Z"/><ellipse class="cls-8" cx="72.15" cy="149.2" rx="71.1" ry="76.61" transform="translate(-31.41 19.81) rotate(-12.87)"/><path class="cls-9" d="M26.17,265.34q.33,1.07.72,2.13C31.17,279,41,289.09,51.83,297.23l1.4,1c2.55,1.86,5.14,3.6,7.73,5.23l1.48.92c2.87,1.77,5.71,3.38,8.46,4.84.52.27,1,.55,1.55.81,11.87,6.14,21.47,9.15,22.15,8.09.42-.65-4.33-4.72-13.83-12.86l-3.3-2.81-1.34-1.13c-2.78-2.34-5.28-4.41-7.52-6.24L67.25,294q-4.5-3.64-7.33-5.83l-.37-.29-.69-.53-.32-.25c-2.14-1.64-3.23-2.43-3.23-2.43a56.21,56.21,0,0,1-12.05-11.76c-.68-.9-1.24-1.71-1.72-2.44a24,24,0,0,1-1.29-2.24,7.29,7.29,0,0,1-1-4.39c.27-2,1.52-4.38,4-9.18.27-.52.54-1,.82-1.53,1.26-2.32,2.57-4.48,3.86-6.52l.93-1.48c1.48-2.31,2.9-4.46,4.16-6.49.31-.5.61-1,.9-1.49,3.13-5.3,4.81-9.79,2.84-14.2-2.62-5.86-10.59-9.13-16.14-8-4.24.87-7.53,4.42-10,9.26-.26.52-.51,1-.75,1.58a51,51,0,0,0-2.59,7.36c-.16.58-.31,1.16-.45,1.75a78.73,78.73,0,0,0-1.48,7.83h0q-.14.93-.24,1.86a78.8,78.8,0,0,0-.55,9.47q0,.82,0,1.65h0c0,.37,0,1.11.1,2A34,34,0,0,0,26.17,265.34Z"/><path class="cls-10" d="M29.89,225.81,53,238.65l.9-1.49L30.64,224.24C30.38,224.75,30.13,225.27,29.89,225.81Z"/><path class="cls-10" d="M51.83,297.23l1.4,1,6.69-10.09-.37-.29-.69-.53-.32-.25Z"/><path class="cls-10" d="M61,303.5l1.48.92,6.17-9.3L67.25,294Z"/><path class="cls-10" d="M70.9,309.26c.52.27,1,.55,1.55.81l5-7.58-1.34-1.13Z"/><path class="cls-10" d="M26.85,234.92l21.09,11.7.93-1.47-21.57-12C27.14,233.75,27,234.34,26.85,234.92Z"/><path class="cls-10" d="M25.14,244.62l18.12,10c.27-.52.54-1,.82-1.53l-18.7-10.38Q25.24,243.69,25.14,244.62Z"/><path class="cls-10" d="M24.72,257.78l14,7.75c.18-.57.37-1.12.56-1.68l-14.62-8.11C24.64,256.43,24.67,257.11,24.72,257.78Z"/><path class="cls-10" d="M26.17,265.34q.33,1.07.72,2.13l14.65,3a24,24,0,0,1-1.29-2.24Z"/><path class="cls-9" d="M120.75,224.94l1.46.95c2,1.29,4.23,2.61,6.57,4.05l1.48.92c2.05,1.28,4.17,2.66,6.31,4.19l1.4,1c.41.31.82.62,1.23.95a31.42,31.42,0,0,1,9.87.63c.61.11,1.23.24,1.87.38,2.57.56,5.34,1.3,8.22,2.23a76.52,76.52,0,0,0-3.13-9.43q-.39-.94-.81-1.89h0c-.22-.5-.45-1-.68-1.5a80.81,80.81,0,0,0-4.61-8.29c-.33-.53-.67-1-1-1.58h0c-1.46-2.19-3-4.36-4.73-6.41l-.49-.59-.68-.79a50.34,50.34,0,0,0-5.52-5.51c-.46-.38-.91-.75-1.36-1.1-4.32-3.29-8.83-5.06-13-4-4,1-8.15,4.69-10,9.09a12.18,12.18,0,0,0-1,5.11C112.17,218.21,115.64,221.52,120.75,224.94Z"/><path class="cls-10" d="M137.49,204.28l-15.27,21.61-1.46-.95,15.37-21.76C136.58,203.53,137,203.9,137.49,204.28Z"/><path class="cls-10" d="M144.18,211.17l-13.92,19.69-1.48-.92L143,209.79Q143.61,210.47,144.18,211.17Z"/><path class="cls-10" d="M149.93,219.16l-12,16.92-1.4-1,12.34-17.47C149.26,218.11,149.6,218.63,149.93,219.16Z"/><path class="cls-10" d="M149.07,237.66c.61.11,1.23.24,1.87.38l5.09-7.2q-.39-.94-.81-1.89Z"/><path class="cls-8" d="M15.39,333.11c4.09,5,12.06,7.17,17.32,4.88a8.45,8.45,0,0,0,1-.53c4.24-2.55,5.16-8.43,9.35-21.73,5.89-18.68,13.49-37,17.12-36.32.51.09,1.29,1.15,2.85,3.28A41,41,0,0,1,66.42,288c2.24,4.39,26.08,40.34,44.68,59.35,24.54,25.09,64.67,43.5,70.59,36.54,8.44-9.91-49.34-74.75-39.74-84.62a16.72,16.72,0,0,1,5.74-3.26c6.37-2.18,12.33,0,14.69.8a28.55,28.55,0,0,1,3.61,1.58c9.62,5,15.67,14.49,17.44,17.33,12.25,19.71,17.69,36.39,21.41,45.85,2.15,5.45,3.73,8.5,5.71,8.36,5.08-.35,9.32-20,7.38-37a68.07,68.07,0,0,0-6-21.27c-8.37-17.35-20.44-21.43-45.72-42.07-12.64-10.32-32.52-26.55-29.94-31.1.41-.72,1.41-1.19,2.88-1.42a31.42,31.42,0,0,1,9.87.63c.61.11,1.23.24,1.87.38,2.57.56,5.34,1.3,8.22,2.23a97.48,97.48,0,0,1,16.78,7.18c12,6.61,17.58,13.51,27.55,12.56,5.36-.5,13.53-3.42,14.62-8.56,2.38-11.18-29.46-28.92-54.74-36.49a146.53,146.53,0,0,0-19.68-4.38l-1.12-.17c-3.12-.46-6-.79-8.68-1l-2-.18c-2.76-.24-5.18-.39-7.16-.5-3.63-.22-7.47-.42-11.66-.42a115.12,115.12,0,0,0-16.83,1.24c-11.79,1.74-32.76,4.84-48.81,20.51-.7.68-1.38,1.38-2.06,2.1A71.43,71.43,0,0,0,35.1,246.84c-6.6,11.64-8,19.83-12.36,37.81C14.15,320.27,10.36,327,15.39,333.11Z"/><ellipse class="cls-11" cx="71.44" cy="147.8" rx="64.4" ry="68.24" transform="translate(-31.12 19.62) rotate(-12.87)"/><path class="cls-12" d="M97.8,111.73c23.66,22,25.06,24.74,26.05,24.06,3.45-2.37-9.64-38.38-34.21-45.47-3.34-1-10.11-2.33-11.32-.12C76.9,92.78,83.87,98.77,97.8,111.73Z"/><rect class="cls-13" x="87.87" y="176.46" width="19.46" height="2.14" rx="1.07" ry="1.07" transform="translate(299.84 189.31) rotate(122.13)"/><rect class="cls-13" x="75.91" y="179.19" width="19.46" height="2.14" rx="1.07" ry="1.07" transform="translate(109 -17.94) rotate(32.13)"/><rect class="cls-13" x="63.75" y="181.97" width="19.46" height="2.14" rx="1.07" ry="1.07" transform="matrix(-0.53, 0.85, -0.85, -0.53, 267.56, 218.17)"/><rect class="cls-13" x="51.79" y="184.7" width="19.46" height="2.14" rx="1.07" ry="1.07" transform="matrix(0.85, 0.53, -0.53, 0.85, 108.23, -4.26)"/><path class="cls-7" d="M21.34,225.12l1.42-.11,2.15-1.85-1.51.19Z"/><path class="cls-7" d="M17.82,225.4l1.42-.11,1.93-1.66-1.5.18Z"/><path class="cls-7" d="M14.62,225.66l1.42-.11,1.74-1.5-1.5.19Z"/><path class="cls-7" d="M11.45,225.91l1.42-.11,1.55-1.33-1.51.19Z"/><path class="cls-14" d="M15.39,333.11c4.09,5,12.06,7.17,17.32,4.88a8.45,8.45,0,0,0,1-.53,47.87,47.87,0,0,1-9-5.8c-2-1.64-4.53-3.71-5.85-5.84-3.95-6.35,1-15.73,5.07-24.43,1.11-2.33,2.78-5.95,4.6-10.46,2.89-7.15,4.54-12.47,9.48-29s5.39-18.19,7.06-21.75a81.13,81.13,0,0,1,11-17.2h0a63.15,63.15,0,0,0-10.69,9.12A73.48,73.48,0,0,0,35.1,246.84c-6.6,11.64-8,19.83-12.36,37.81C14.15,320.27,10.36,327,15.39,333.11Z"/><path class="cls-15" d="M166,298.39c9.62,5,15.67,14.49,17.44,17.33,12.25,19.71,17.69,36.39,21.41,45.85,3.24-1.15,2.22-21.87-8.64-38.87C186.27,307.17,170,297.74,166,298.39Z"/><path class="cls-16" d="M55.28,222.69c0,.25,13.61,5.37,29.89,1.85,18-3.88,29.15-16.13,29.06-16.26A63.09,63.09,0,0,1,87.44,223C70,227.49,55.31,222.44,55.28,222.69Z"/><rect class="cls-17" x="70.5" y="253.13" width="15.65" height="19.36" rx="7.83" ry="7.83" transform="matrix(-0.84, 0.54, -0.54, -0.84, 286.2, 441.67)"/><path class="cls-8" d="M82.82,259.93a5.08,5.08,0,0,0-2-1.94,5.79,5.79,0,0,0-.57-.25,3.94,3.94,0,0,0-.61-.19,4.82,4.82,0,0,0-.57-.1,5,5,0,0,0-3.18.65,5.14,5.14,0,0,0-2.08,2.31,4.93,4.93,0,0,0-.19.54,4.64,4.64,0,0,0-.23,1.12c0,.21,0,.41,0,.62A5,5,0,0,0,74,265a5.1,5.1,0,0,0,1.29,1.47,3.62,3.62,0,0,0,.56.37,5.08,5.08,0,0,0,1.5.58l.57.09a5.1,5.1,0,0,0,3-.68,5,5,0,0,0,1.94-2,4.27,4.27,0,0,0,.24-.53,5.14,5.14,0,0,0,.28-1.09,4.91,4.91,0,0,0,.06-.67A5.06,5.06,0,0,0,82.82,259.93Zm.13,2.9a4.34,4.34,0,0,1-.34,1.42s0,0,0,0a2.38,2.38,0,0,1-.23.45.05.05,0,0,1,0,.05,4.25,4.25,0,0,1-1.62,1.61,4.51,4.51,0,0,1-2.56.62,5.52,5.52,0,0,1-.55-.07,4.62,4.62,0,0,1-1.72-.71,6.12,6.12,0,0,1-.5-.39,4.91,4.91,0,0,1-.87-1.08,4.42,4.42,0,0,1-.59-1.83,5.88,5.88,0,0,1,0-.6,5.48,5.48,0,0,1,.25-1.33c.07-.17.13-.34.22-.51a4.54,4.54,0,0,1,1.79-1.93,4.46,4.46,0,0,1,2.62-.59h0l.5.07h.06a4.44,4.44,0,0,1,.87.29,4.31,4.31,0,0,1,2.1,1.86,4.64,4.64,0,0,1,.61,2A4.39,4.39,0,0,1,83,262.83Z"/><path class="cls-8" d="M82.59,264.29h0a4.48,4.48,0,0,1-3-2.12l0,0a2.14,2.14,0,0,1-.2-.4s0,0,0,0,0,0,0-.06v0a2.92,2.92,0,0,1-.18-.46v0a4.53,4.53,0,0,1,.16-3,.11.11,0,0,0,0,0,3.88,3.88,0,0,1,.24-.45,5.21,5.21,0,0,0-.57-.1,4.31,4.31,0,0,0-.22.49l0,0a5,5,0,0,0,0,3.57h0a1,1,0,0,0,.07.18h0a3.31,3.31,0,0,0,.15.33.83.83,0,0,0,.09.16h0c0,.05,0,.09.07.13a5.12,5.12,0,0,0,3.2,2.38h0l.54.1a4.83,4.83,0,0,0,.23-.52A4.5,4.5,0,0,1,82.59,264.29Z"/><path class="cls-8" d="M77.37,262.42c-.18.07-.36.12-.56.18a1.29,1.29,0,0,1,.19.21h0l.2-.18.16-.12.06,0Zm.34.51v0l0,0a3.42,3.42,0,0,0-.26-.4l0-.06a5.06,5.06,0,0,0-3-1.92,5.62,5.62,0,0,0-.57-.09,4.93,4.93,0,0,0-.19.54l.54.06a4.5,4.5,0,0,1,2.67,1.59,1.29,1.29,0,0,1,.19.21h0l.16.24.08.13.05.09h0A4.53,4.53,0,0,1,77.6,267a2.87,2.87,0,0,1-.21.51l.57.09a5.62,5.62,0,0,0,.19-.53A5.05,5.05,0,0,0,77.71,262.93Z"/><path class="cls-8" d="M79,262.28a5.05,5.05,0,0,1,.56-.12l0,0a2.14,2.14,0,0,1-.2-.4s0,0,0,0a5.18,5.18,0,0,1-.41.4,2.27,2.27,0,0,1-.35.26,3.37,3.37,0,0,1-.31.21l-.07,0-.09.06a3.55,3.55,0,0,1-.44.21l-.07,0c-.08-.13-.16-.27-.25-.39h0l-.15.13a1.06,1.06,0,0,0-.2.17l-.07.06h0l.14.21,0,0a.6.6,0,0,0,.06.11l.07.11.06-.05a3.37,3.37,0,0,1,.36-.3s0,0,.06-.05.22-.15.35-.22l.33-.17a3.93,3.93,0,0,1,.43-.18ZM83,262.2a5,5,0,0,0-3.46-.61l-.11,0h-.07a4.61,4.61,0,0,0-.46.13l-.07,0a6,6,0,0,0-.94.42l-.43.29-.06,0-.16.12-.2.18-.06.05-.31.32a5.09,5.09,0,0,0-1.25,2.66,4.89,4.89,0,0,0,0,.66,3.62,3.62,0,0,0,.56.37,4.33,4.33,0,0,1,1.4-3.59c.12-.11.23-.21.36-.31s0,0,.06-.05.22-.15.35-.22l.06,0,.09-.06a4.89,4.89,0,0,1,.82-.34l.06,0a2.81,2.81,0,0,1,.48-.12l.08,0a4.58,4.58,0,0,1,3.3.72,4,4,0,0,1,.5.4,4.91,4.91,0,0,0,.06-.67A6.49,6.49,0,0,0,83,262.2Z"/><path class="cls-8" d="M79.39,261.61a5.27,5.27,0,0,1-.19-.51l-.06.06a3.24,3.24,0,0,1-.36.38l-.06,0a5.17,5.17,0,0,1-.71.52l-.16.08-.48.23,0,.06-.06,0c.09.12.17.26.25.39l.07,0a3.55,3.55,0,0,0,.44-.21l.09-.06.07,0a3.37,3.37,0,0,0,.31-.21,2.27,2.27,0,0,0,.35-.26l.06,0,.37-.34,0-.06S79.4,261.64,79.39,261.61Zm.84-3.87a3,3,0,0,1,0,.6,4.59,4.59,0,0,1-1,2.76l-.06.06a3.24,3.24,0,0,1-.36.38l-.06,0a5.17,5.17,0,0,1-.71.52l-.16.08-.48.23c-.18.07-.36.12-.56.18a4.58,4.58,0,0,1-2.92-.26,3.67,3.67,0,0,1-.52-.27c0,.21,0,.41,0,.62a5.62,5.62,0,0,0,.56.25,5,5,0,0,0,2.71.25,3.28,3.28,0,0,0,.45-.11l.08,0,.45-.15.07,0a3.55,3.55,0,0,0,.44-.21l.09-.06.07,0a3.37,3.37,0,0,0,.31-.21,2.27,2.27,0,0,0,.35-.26l.06,0,.37-.34,0-.06a.34.34,0,0,0,.09-.08,5.15,5.15,0,0,0,1.29-3c0-.21,0-.41,0-.62A5.79,5.79,0,0,0,80.23,257.74Z"/><path class="cls-2" d="M706.23,149.33l-58,.16,18.44-19.75,42.2,6.48Q707.56,142.78,706.23,149.33Z"/><path class="cls-3" d="M707.47,137l-41.1,4q-.25-5.62-.49-11.25h33.45Z"/><path class="cls-4" d="M708.89,136.22c0,.07,0,.17-.06.29-.23,1.14-.21,1.19-.24,1.22-.44.45-4.73-3.84-8.39-5.78-3.46-1.83-6.21-1.47-13-1.26-4.52.15-10.94.24-18.93,0,.46-.69.93-1.37,1.4-2.05l29.71-.12Z"/><path class="cls-5" d="M706.61,136.55l-1.4.21-1.52.22-1.41.2-1.8.27-1.41.2-1.55.23-1.41.21-1.73.25-1.41.2-1.77.26-1.4.21-2.09.3-1.41.21-9.44,1.39c-.34-.3-.71-.65-1.08-1s-.56-.62-.79-.92c2.86-.18,4.63-.34,5.74-.45l3.06-.31,1.51-.15,2.24-.23,1.51-.15,1.89-.19,1.51-.15,1.86-.19,1.51-.15,1.66-.17,1.51-.15,1.93-.19,1.51-.15,1.63-.17,1.51-.15Z"/><path class="cls-6" d="M671.1,252.09,633.48,264.3l44-123.55,31.43-4.53Q690,194.15,671.1,252.09Z"/><path class="cls-7" d="M700.48,137.45l-1.41.2-1.59-.84,1.51-.15Z"/><path class="cls-7" d="M703.69,137l-1.41.2-1.36-.71,1.51-.15Z"/><path class="cls-7" d="M706.61,136.55l-1.4.21-1.15-.61,1.51-.15Z"/><ellipse class="cls-8" cx="621.27" cy="76.61" rx="71.1" ry="76.61"/><path class="cls-9" d="M692,179.59c-.05.75-.13,1.49-.23,2.24-1.61,12.15-8.9,24.21-17.67,34.57l-1.14,1.32c-2.07,2.38-4.21,4.66-6.37,6.83l-1.24,1.22c-2.41,2.36-4.82,4.57-7.17,6.6l-1.33,1.14c-10.21,8.62-18.89,13.7-19.79,12.82-.56-.55,3.17-5.57,10.62-15.62l2.58-3.47,1.06-1.4q3.29-4.35,5.94-7.77l1.08-1.37c2.38-3,4.34-5.48,5.85-7.33l.3-.36.55-.67.26-.32c1.72-2.07,2.61-3.08,2.61-3.08A56.48,56.48,0,0,0,677,190.79c.45-1,.82-1.94,1.12-2.76a21.3,21.3,0,0,0,.76-2.48,7.24,7.24,0,0,0,0-4.5c-.7-1.87-2.45-3.93-6-8.05l-1.14-1.32c-1.74-2-3.5-3.79-5.21-5.49L665.33,165c-2-1.92-3.83-3.7-5.5-5.4-.42-.43-.82-.84-1.21-1.26-4.23-4.47-6.87-8.47-5.93-13.21,1.24-6.29,8.29-11.26,13.95-11.38,4.33-.1,8.33,2.63,11.81,6.8.36.45.72.9,1.08,1.37a50.59,50.59,0,0,1,4.16,6.61c.28.53.56,1.06.83,1.6,1.18,2.37,2.25,4.85,3.18,7.31h0c.23.59.44,1.18.65,1.76a79.74,79.74,0,0,1,2.64,9.11c.12.54.23,1.08.34,1.62h0c.07.36.22,1.09.36,2A34.13,34.13,0,0,1,692,179.59Z"/><path class="cls-10" d="M679.53,141.89l-19.7,17.67-1.21-1.26,19.83-17.78C678.81,141,679.17,141.41,679.53,141.89Z"/><path class="cls-10" d="M674.05,216.4l-1.14,1.32-8.77-8.35.3-.36.55-.67.26-.32Z"/><path class="cls-10" d="M666.54,224.55l-1.24,1.22-8.09-7.7,1.08-1.37Z"/><path class="cls-10" d="M658.13,232.37l-1.33,1.14-6.59-6.27,1.06-1.4Z"/><path class="cls-10" d="M684.52,150.09l-17.95,16.1L665.33,165l18.36-16.47C684,149,684.25,149.55,684.52,150.09Z"/><path class="cls-10" d="M688.35,159.16,672.92,173l-1.14-1.32L687.7,157.4C687.93,158,688.14,158.58,688.35,159.16Z"/><path class="cls-10" d="M691.69,171.9l-11.88,10.66-.93-1.51,12.45-11.16Q691.53,170.9,691.69,171.9Z"/><path class="cls-10" d="M692,179.59c-.05.75-.13,1.49-.23,2.24L678.11,188a21.3,21.3,0,0,0,.76-2.48Z"/><path class="cls-9" d="M590.75,161.27c-.39.42-.79.83-1.21,1.26-1.68,1.7-3.54,3.48-5.5,5.4l-1.24,1.23c-1.71,1.7-3.47,3.52-5.21,5.49L576.45,176c-.34.39-.67.79-1,1.19A31.49,31.49,0,0,0,566,180c-.57.24-1.15.51-1.74.78-2.38,1.12-4.92,2.46-7.52,4a75.09,75.09,0,0,1,1-9.9c.1-.67.23-1.34.36-2h0c.1-.54.22-1.08.34-1.62a79.16,79.16,0,0,1,2.64-9.11c.21-.59.42-1.17.64-1.76h0a77.36,77.36,0,0,1,3.19-7.31c.11-.23.23-.46.35-.68s.31-.62.48-.92a50.59,50.59,0,0,1,4.16-6.61c.35-.47.71-.93,1.08-1.37,3.48-4.17,7.47-6.9,11.81-6.8,4.12.09,9,2.75,11.8,6.63a12.16,12.16,0,0,1,2.15,4.75C597.62,152.8,595,156.8,590.75,161.27Z"/><path class="cls-10" d="M569.83,144.85l19.71,17.68,1.21-1.26-19.83-17.79C570.55,143.92,570.19,144.38,569.83,144.85Z"/><path class="cls-10" d="M564.85,153.06l17.95,16.1,1.24-1.23-18.36-16.47C565.39,152,565.12,152.52,564.85,153.06Z"/><path class="cls-10" d="M561,162.13,576.44,176l1.15-1.32-15.93-14.28C561.44,161,561.23,161.54,561,162.13Z"/><path class="cls-10" d="M566,180c-.57.24-1.15.51-1.74.78l-6.56-5.89c.1-.67.23-1.34.36-2Z"/><path class="cls-8" d="M717.55,243.26c-2.88,5.76-10.15,9.67-15.8,8.62a8,8,0,0,1-1.12-.29c-4.71-1.54-6.91-7.07-14-19.1-9.9-16.91-21.38-33.05-24.78-31.6-.47.2-1,1.41-2,3.83a41.47,41.47,0,0,0-2.08,5.93c-1.2,4.78-16.44,45.13-30.34,67.8-18.34,29.93-53.36,56.82-60.68,51.35-10.44-7.78,31.45-83.86,19.9-91.35a16.88,16.88,0,0,0-6.32-1.9c-6.7-.7-12,2.71-14.15,4.06A28.38,28.38,0,0,0,563,243c-8.28,7-12.06,17.61-13.15,20.78-7.55,21.95-9.14,39.41-10.66,49.46-.88,5.79-1.74,9.12-3.7,9.43-5,.79-13.54-17.43-15.45-34.47a68.19,68.19,0,0,1,1.07-22.07c4.29-18.77,15.16-25.43,35.2-51.18,10-12.88,25.79-33.13,22.27-37-.57-.62-1.65-.85-3.14-.75A31.49,31.49,0,0,0,566,180c-.57.24-1.15.51-1.74.78-2.38,1.12-4.92,2.46-7.52,4A97.14,97.14,0,0,0,542,195.5c-10.26,9.13-14.13,17.09-24.06,18.39-5.34.7-13.95-.33-16.16-5.1C496.94,198.43,524,174,547,161a144.94,144.94,0,0,1,18.21-8.65l1-.41c3-1.15,5.71-2.12,8.24-2.95l1.91-.63c2.64-.84,5-1.52,6.86-2.08,3.5-1,7.19-2.07,11.28-3a114.78,114.78,0,0,1,16.69-2.54c11.87-.93,33-2.58,52.15,9.12.83.51,1.65,1,2.47,1.6a71.42,71.42,0,0,1,13.29,12.06c9,9.88,12.23,17.54,20.47,34.11C715.91,230.47,721.1,236.18,717.55,243.26Z"/><ellipse class="cls-11" cx="621.65" cy="75.09" rx="64.4" ry="68.24"/><path class="cls-12" d="M587.92,45.79c-18.17,26.74-18.92,29.7-20,29.26-3.89-1.55.85-39.57,23.23-51.95,3-1.68,9.33-4.52,11-2.63C604.07,22.67,598.61,30.06,587.92,45.79Z"/><rect class="cls-13" x="593.04" y="108.82" width="19.46" height="2.14" rx="1.07" ry="1.07" transform="translate(254.25 -394.03) rotate(45)"/><rect class="cls-13" x="605.31" y="108.82" width="19.46" height="2.14" rx="1.07" ry="1.07" transform="translate(1127.64 -247.3) rotate(135)"/><rect class="cls-13" x="617.78" y="108.82" width="19.46" height="2.14" rx="1.07" ry="1.07" transform="translate(261.5 -411.53) rotate(45)"/><rect class="cls-13" x="630.04" y="108.82" width="19.46" height="2.14" rx="1.07" ry="1.07" transform="translate(1169.87 -264.79) rotate(135)"/><path class="cls-7" d="M687.71,139.31l-1.41.21-2.51-1.33,1.51-.15Z"/><path class="cls-7" d="M691.2,138.8l-1.4.21-2.26-1.2,1.51-.15Z"/><path class="cls-7" d="M694.38,138.34l-1.41.2-2-1.07,1.51-.15Z"/><path class="cls-7" d="M697.52,137.88l-1.41.21-1.8-1,1.51-.15Z"/><path class="cls-14" d="M717.55,243.26c-2.88,5.76-10.15,9.67-15.8,8.62a8,8,0,0,1-1.12-.29,48.3,48.3,0,0,0,7.48-7.66c1.58-2,3.58-4.62,4.4-7,2.44-7.06-4.44-15.12-10.39-22.68-1.59-2-4-5.18-6.81-9.18-4.41-6.33-7.2-11.14-15.69-26.14s-9.31-16.53-11.73-19.63A81.06,81.06,0,0,0,653.39,145h0a63.15,63.15,0,0,1,12.45,6.52,73.51,73.51,0,0,1,13.29,12.06c9,9.88,12.23,17.54,20.47,34.11C715.91,230.47,721.1,236.18,717.55,243.26Z"/><path class="cls-15" d="M563,243c-8.28,7-12.06,17.61-13.15,20.78-7.55,21.95-9.14,39.41-10.66,49.46-3.42-.39-7-20.83-.23-39.81C545.19,256,558.94,243.21,563,243Z"/><path class="cls-16" d="M654.08,144.5c.09.24-12.07,8.26-28.73,8.46-18.39.22-32-9.24-32-9.39A63.11,63.11,0,0,0,622.8,152C640.79,152.45,654,144.26,654.08,144.5Z"/><rect class="cls-17" x="632.72" y="179.06" width="15.65" height="19.36" rx="7.83" ry="7.83" transform="translate(101.99 -206.08) rotate(19.83)"/><path class="cls-8" d="M635.52,186.94a5.12,5.12,0,0,1,1.54-2.34,4.62,4.62,0,0,1,.5-.37,3.76,3.76,0,0,1,.55-.32,5,5,0,0,1,.53-.23,5.09,5.09,0,0,1,5.79,1.72,4.9,4.9,0,0,1,.31.48,4.66,4.66,0,0,1,.47,1q.09.3.15.6a5.12,5.12,0,0,1-.14,2.45,5.2,5.2,0,0,1-.93,1.72,4.16,4.16,0,0,1-.46.48,5.12,5.12,0,0,1-1.87,1.11,5.1,5.1,0,0,1-5.45-1.52,5.55,5.55,0,0,1-.35-.46,5.1,5.1,0,0,1-.72-1.64A5,5,0,0,1,635.52,186.94Zm.52,2.86a4.18,4.18,0,0,0,.65,1.3l0,0a2.37,2.37,0,0,0,.32.39s0,0,0,0a4.33,4.33,0,0,0,1.94,1.21,4.54,4.54,0,0,0,2.63,0,4.61,4.61,0,0,0,2-1.26,4.87,4.87,0,0,0,.4-.5,4.62,4.62,0,0,0,.61-1.24,4.51,4.51,0,0,0,.17-1.92c0-.2-.06-.39-.11-.59a4.86,4.86,0,0,0-.54-1.24c-.1-.15-.2-.3-.32-.45a4.55,4.55,0,0,0-2.18-1.48,4.46,4.46,0,0,0-2.68,0h0a3.94,3.94,0,0,0-.48.18l0,0a4.27,4.27,0,0,0-.79.48,4,4,0,0,0-.46.38,4.54,4.54,0,0,0-1.32,4A6.23,6.23,0,0,0,636,189.8Z"/><path class="cls-8" d="M636.72,191.14l0,0a4.49,4.49,0,0,0,2.41-2.73v0a2.18,2.18,0,0,0,.11-.44v0s0,0,0-.06v0a2.89,2.89,0,0,0,.07-.49v0a4.53,4.53,0,0,0-.84-2.93l0,0a4,4,0,0,0-.33-.39,4.93,4.93,0,0,1,.53-.22,3.39,3.39,0,0,1,.33.42l0,0a5.08,5.08,0,0,1,.83,3.47h0a1.2,1.2,0,0,1,0,.2h0c0,.12,0,.23-.07.35a1.21,1.21,0,0,1,0,.18h0c0,.05,0,.09,0,.14a5.08,5.08,0,0,1-2.59,3h0a4.4,4.4,0,0,1-.5.21,3.79,3.79,0,0,1-.34-.45Z"/><path class="cls-8" d="M641.39,188.15a5.44,5.44,0,0,0,.58,0,2,2,0,0,0-.13.25h0a1.36,1.36,0,0,0-.24-.13l-.18-.08-.07,0A.25.25,0,0,0,641.39,188.15Zm-.22.58v0s0,0,0,0,.1-.3.16-.45a.25.25,0,0,0,0-.07,5.05,5.05,0,0,1,2.51-2.54.45.45,0,0,1,.84.27,5.34,5.34,0,0,0-.52.18A4.5,4.5,0,0,0,642,188.2a2,2,0,0,0-.13.25h0l-.1.27,0,.14,0,.1h0a4.56,4.56,0,0,0,.51,3.64,3.65,3.65,0,0,0,.32.45,4.87,4.87,0,0,1-.53.21,4.76,4.76,0,0,1-.31-.47A5.07,5.07,0,0,1,641.17,188.73Z"/><path class="cls-8" d="M639.74,188.39h-.57v0a2.18,2.18,0,0,0,.11-.44v0a4.94,4.94,0,0,0,.49.3,2.87,2.87,0,0,0,.4.18l.35.13.07,0,.1,0a4.15,4.15,0,0,0,.48.11h.07c0-.14.1-.29.16-.43h0l.17.09.24.12.08,0h0c0,.07-.06.14-.09.23s0,0,0,0l0,.13a.56.56,0,0,0,0,.12l-.07,0a3.29,3.29,0,0,0-.42-.21l-.07,0a2.58,2.58,0,0,0-.39-.14l-.35-.1-.47-.08Zm-3.85.79a5.07,5.07,0,0,1,3.24-1.36h.18a3.93,3.93,0,0,1,.48,0h.07a5.16,5.16,0,0,1,1,.2l.48.18.07,0,.18.08a1.36,1.36,0,0,1,.24.13l.07,0,.37.24a5.06,5.06,0,0,1,1.81,2.31,4.75,4.75,0,0,1,.2.64,4.16,4.16,0,0,1-.46.48,4.29,4.29,0,0,0-.14-.62,4.54,4.54,0,0,0-2-2.57l-.42-.22-.07,0a2.58,2.58,0,0,0-.39-.14l-.07,0-.1,0a4.28,4.28,0,0,0-.87-.15h-.07a2.68,2.68,0,0,0-.49,0h-.08A4.56,4.56,0,0,0,636,189.8a3.81,3.81,0,0,0-.4.5,4.75,4.75,0,0,1-.2-.64A5.11,5.11,0,0,1,635.89,189.18Z"/><path class="cls-8" d="M639.24,187.81a5,5,0,0,0,.07-.54.18.18,0,0,0,.07,0,4.17,4.17,0,0,0,.44.29l.07,0a4.83,4.83,0,0,0,.81.35l.17,0,.52.11a.25.25,0,0,1,0,.07l.07,0c-.06.14-.11.29-.16.43h-.07a4.15,4.15,0,0,1-.48-.11l-.1,0-.07,0-.35-.13a2.87,2.87,0,0,1-.4-.18l-.07,0a3,3,0,0,1-.43-.25l-.06,0S639.24,187.84,639.24,187.81Zm-1.68-3.58a4.08,4.08,0,0,0,.11.59,4.55,4.55,0,0,0,1.64,2.45.18.18,0,0,0,.07,0,4.17,4.17,0,0,0,.44.29l.07,0a4.83,4.83,0,0,0,.81.35l.17,0,.52.11a5.44,5.44,0,0,0,.58,0,4.56,4.56,0,0,0,2.79-.9,3.23,3.23,0,0,0,.45-.38q.09.3.15.6a5.72,5.72,0,0,1-.49.37,5.05,5.05,0,0,1-2.59.85,3.53,3.53,0,0,1-.46,0h-.08l-.48,0h-.07a4.15,4.15,0,0,1-.48-.11l-.1,0-.07,0-.35-.13a2.87,2.87,0,0,1-.4-.18l-.07,0a3,3,0,0,1-.43-.25l-.06,0-.1-.06a5.13,5.13,0,0,1-1.92-2.62q-.09-.3-.15-.6A4.62,4.62,0,0,1,637.56,184.23Z"/><path class="cls-2" d="M883.69,182.94l-58,.16q9.21-9.87,18.43-19.75l42.21,6.49Z"/><path class="cls-3" d="M884.93,170.61l-41.1,4q-.24-5.62-.49-11.25h33.45Z"/><path class="cls-4" d="M886.36,169.84a2.84,2.84,0,0,0-.06.29,8.19,8.19,0,0,1-.25,1.22c-.43.44-4.72-3.85-8.38-5.78-3.46-1.83-6.22-1.48-13-1.26-4.51.15-10.94.24-18.93-.05l1.41-2,29.7-.11Z"/><path class="cls-5" d="M884.08,170.17l-1.41.2-1.52.22-1.4.21-1.8.26-1.41.21-1.55.22-1.41.21-1.74.25-1.4.21-1.77.26-1.41.2-2.08.31-1.41.2-9.44,1.39a14.45,14.45,0,0,1-1.08-1c-.3-.32-.56-.62-.8-.92,2.87-.19,4.64-.35,5.75-.46l3.06-.3,1.51-.16,2.23-.22,1.51-.15,1.9-.19,1.51-.16,1.86-.18,1.51-.15,1.66-.17,1.51-.15,1.93-.2,1.51-.15,1.63-.16,1.5-.15Z"/><path class="cls-6" d="M848.56,285.7,811,297.92l44-123.55,31.43-4.53Z"/><path class="cls-7" d="M878,171.06l-1.41.21-1.59-.84,1.51-.15Z"/><path class="cls-7" d="M881.15,170.59l-1.4.21-1.36-.72,1.51-.15Z"/><path class="cls-7" d="M884.08,170.17l-1.41.2-1.14-.6,1.5-.15Z"/><ellipse class="cls-8" cx="798.74" cy="110.22" rx="71.1" ry="76.61"/><path class="cls-9" d="M869.42,213.21c0,.74-.13,1.49-.23,2.23-1.61,12.15-8.91,24.22-17.68,34.57-.37.45-.75.89-1.13,1.33-2.08,2.38-4.22,4.66-6.38,6.82-.41.42-.82.82-1.24,1.23-2.4,2.36-4.81,4.56-7.16,6.59l-1.33,1.14c-10.21,8.63-18.9,13.71-19.8,12.82-.55-.54,3.17-5.57,10.62-15.62l2.59-3.47,1.06-1.4c2.18-2.9,4.17-5.48,5.94-7.76l1.08-1.38c2.38-3,4.34-5.48,5.85-7.32l.29-.36.56-.68.26-.31c1.72-2.08,2.6-3.09,2.6-3.09a56.19,56.19,0,0,0,9.13-14.15c.46-1,.83-1.94,1.13-2.76a23.35,23.35,0,0,0,.76-2.47,7.23,7.23,0,0,0,0-4.5c-.7-1.88-2.46-3.93-6-8q-.57-.68-1.14-1.32c-1.75-2-3.51-3.79-5.22-5.5l-1.24-1.22c-1.95-1.93-3.82-3.71-5.5-5.41l-1.21-1.25c-4.22-4.47-6.87-8.47-5.93-13.21,1.25-6.29,8.3-11.26,14-11.39,4.33-.09,8.32,2.64,11.8,6.81.37.44.73.9,1.09,1.37a51.13,51.13,0,0,1,4.16,6.6c.28.53.56,1.07.82,1.6a78.5,78.5,0,0,1,3.19,7.31h0c.22.58.44,1.17.64,1.76a80.78,80.78,0,0,1,2.65,9.11c.12.54.23,1.07.33,1.61h0c.08.35.23,1.09.37,2A34.71,34.71,0,0,1,869.42,213.21Z"/><path class="cls-10" d="M857,175.5l-19.71,17.67-1.21-1.25,19.83-17.79C856.28,174.57,856.64,175,857,175.5Z"/><path class="cls-10" d="M851.51,250c-.37.45-.75.89-1.13,1.33L841.61,243l.29-.36.56-.68.26-.31Z"/><path class="cls-10" d="M844,258.16c-.41.42-.82.82-1.24,1.23l-8.08-7.7,1.08-1.38Z"/><path class="cls-10" d="M835.6,266l-1.33,1.14-6.59-6.27,1.06-1.4Z"/><path class="cls-10" d="M862,183.71,844,199.8l-1.24-1.22,18.37-16.48C861.44,182.63,861.72,183.17,862,183.71Z"/><path class="cls-10" d="M865.81,192.78l-15.42,13.84q-.57-.68-1.14-1.32L865.17,191C865.39,191.61,865.61,192.19,865.81,192.78Z"/><path class="cls-10" d="M869.16,205.52l-11.89,10.66c-.3-.51-.61-1-.92-1.51l12.44-11.16C868.93,204.18,869.05,204.85,869.16,205.52Z"/><path class="cls-10" d="M869.42,213.21c0,.74-.13,1.49-.23,2.23l-13.61,6.2a23.35,23.35,0,0,0,.76-2.47Z"/><path class="cls-9" d="M768.22,194.89,767,196.14c-1.68,1.7-3.55,3.48-5.5,5.4l-1.24,1.23c-1.71,1.71-3.47,3.52-5.22,5.5l-1.14,1.31-1,1.2a31.63,31.63,0,0,0-9.47,2.81c-.57.25-1.15.51-1.74.79-2.38,1.11-4.92,2.46-7.52,4a76.62,76.62,0,0,1,.95-9.89c.11-.67.23-1.34.37-2h0c.1-.54.21-1.07.33-1.61a78.74,78.74,0,0,1,2.65-9.11c.2-.59.42-1.18.64-1.77h0a78.5,78.5,0,0,1,3.19-7.31l.34-.68.48-.92a51.13,51.13,0,0,1,4.16-6.6c.36-.47.72-.93,1.09-1.37,3.48-4.17,7.47-6.9,11.8-6.81,4.13.09,9,2.76,11.81,6.63a12.2,12.2,0,0,1,2.15,4.76C775.09,186.41,772.44,190.42,768.22,194.89Z"/><path class="cls-10" d="M747.3,178.47,767,196.14l1.22-1.25L748.39,177.1C748,177.54,747.66,178,747.3,178.47Z"/><path class="cls-10" d="M742.31,186.67l18,16.1,1.24-1.23-18.37-16.47C742.86,185.6,742.58,186.13,742.31,186.67Z"/><path class="cls-10" d="M738.48,195.75l15.43,13.83,1.14-1.31L739.13,194C738.91,194.57,738.69,195.16,738.48,195.75Z"/><path class="cls-10" d="M743.45,213.59c-.57.25-1.15.51-1.74.79l-6.57-5.89c.11-.67.23-1.34.37-2Z"/><path class="cls-8" d="M895,276.88c-2.88,5.76-10.16,9.67-15.8,8.62a9.16,9.16,0,0,1-1.12-.29c-4.71-1.55-6.92-7.07-14-19.11-9.9-16.9-21.39-33-24.78-31.59-.48.2-1,1.41-2.05,3.83a41.6,41.6,0,0,0-2.08,5.92c-1.2,4.78-16.45,45.14-30.34,67.81-18.34,29.92-53.36,56.81-60.69,51.35-10.43-7.79,31.46-83.87,19.91-91.35a16.69,16.69,0,0,0-6.33-1.9c-6.69-.71-12,2.7-14.14,4.05a28.7,28.7,0,0,0-3.16,2.34c-8.28,7-12.06,17.62-13.15,20.79-7.56,21.94-9.14,39.41-10.67,49.46-.88,5.79-1.73,9.12-3.7,9.43-5,.78-13.53-17.43-15.44-34.48a67.8,67.8,0,0,1,1.07-22.06c4.29-18.77,15.15-25.44,35.2-51.19,10-12.88,25.79-33.13,22.26-37-.56-.61-1.64-.85-3.13-.74a31.63,31.63,0,0,0-9.47,2.81c-.57.25-1.15.51-1.74.79-2.38,1.11-4.92,2.46-7.52,4a97.41,97.41,0,0,0-14.76,10.74c-10.26,9.12-14.14,17.08-24.06,18.38-5.34.7-14-.33-16.16-5.09-4.81-10.37,22.28-34.76,45.24-47.76A145.09,145.09,0,0,1,742.66,186l1.05-.41c2.94-1.14,5.71-2.12,8.23-3l1.92-.62c2.64-.85,4.95-1.53,6.86-2.09,3.5-1,7.19-2.07,11.28-3a116.23,116.23,0,0,1,16.68-2.54c11.88-.92,33-2.58,52.16,9.13.82.5,1.65,1,2.47,1.59a71.77,71.77,0,0,1,13.29,12.06c9,9.88,12.23,17.55,20.47,34.11C893.37,264.08,898.56,269.79,895,276.88Z"/><ellipse class="cls-11" cx="799.12" cy="108.71" rx="64.4" ry="68.24"/><path class="cls-12" d="M765.39,79.41c-18.17,26.74-18.93,29.7-20,29.26-3.89-1.55.85-39.57,23.22-51.95,3-1.69,9.34-4.52,11-2.64C781.54,56.28,776.08,63.67,765.39,79.41Z"/><rect class="cls-13" x="770.51" y="142.44" width="19.46" height="2.14" rx="1.07" ry="1.07" transform="translate(330 -509.68) rotate(45)"/><rect class="cls-13" x="782.77" y="142.44" width="19.46" height="2.14" rx="1.07" ry="1.07" transform="translate(1454.36 -315.4) rotate(135)"/><rect class="cls-13" x="795.24" y="142.44" width="19.46" height="2.14" rx="1.07" ry="1.07" transform="translate(337.25 -527.17) rotate(45)"/><rect class="cls-13" x="807.51" y="142.44" width="19.46" height="2.14" rx="1.07" ry="1.07" transform="translate(1496.59 -332.89) rotate(135)"/><path class="cls-7" d="M865.18,172.93l-1.41.2-2.51-1.32,1.51-.16Z"/><path class="cls-7" d="M868.67,172.42l-1.41.2L865,171.43l1.51-.15Z"/><path class="cls-7" d="M871.84,172l-1.4.21-2-1.07,1.51-.16Z"/><path class="cls-7" d="M875,171.49l-1.41.21-1.8-.95,1.51-.15Z"/><path class="cls-14" d="M895,276.88c-2.88,5.76-10.16,9.67-15.8,8.62a9.16,9.16,0,0,1-1.12-.29,48.34,48.34,0,0,0,7.47-7.66c1.59-2,3.59-4.62,4.41-7,2.43-7.07-4.44-15.12-10.39-22.69-1.6-2-4-5.18-6.81-9.17-4.41-6.33-7.2-11.15-15.69-26.14s-9.31-16.53-11.74-19.63a80.71,80.71,0,0,0-14.49-14.33h0a63.85,63.85,0,0,1,12.45,6.51,74.22,74.22,0,0,1,13.29,12.06c9,9.88,12.23,17.55,20.47,34.11C893.37,264.08,898.56,269.79,895,276.88Z"/><path class="cls-15" d="M740.48,276.56c-8.28,7-12.06,17.62-13.15,20.79-7.56,21.94-9.14,39.41-10.67,49.46-3.41-.4-7-20.83-.22-39.82C722.66,289.64,736.4,276.82,740.48,276.56Z"/><path class="cls-16" d="M831.55,178.12c.09.23-12.08,8.26-28.73,8.45-18.4.22-32-9.24-32-9.38a63,63,0,0,0,29.4,8.43C818.26,186.07,831.46,177.87,831.55,178.12Z"/><rect class="cls-17" x="810.19" y="212.67" width="15.65" height="19.36" rx="7.83" ry="7.83" transform="translate(123.92 -264.28) rotate(19.83)"/><path class="cls-8" d="M813,220.55a5.12,5.12,0,0,1,1.54-2.34,4.62,4.62,0,0,1,.5-.37,3.76,3.76,0,0,1,.55-.32,5,5,0,0,1,.53-.23A5.09,5.09,0,0,1,821.9,219a4.9,4.9,0,0,1,.31.48,4.66,4.66,0,0,1,.47,1q.09.3.15.6a5.12,5.12,0,0,1-.14,2.45,5.2,5.2,0,0,1-.93,1.72,4.16,4.16,0,0,1-.46.48,5.12,5.12,0,0,1-1.87,1.11,5.1,5.1,0,0,1-5.45-1.52,5.55,5.55,0,0,1-.35-.46,5.1,5.1,0,0,1-.72-1.64A5,5,0,0,1,813,220.55Zm.52,2.86a4.18,4.18,0,0,0,.65,1.3l0,0a2.37,2.37,0,0,0,.32.39l0,0a4.33,4.33,0,0,0,1.94,1.21,4.54,4.54,0,0,0,2.63,0,4.61,4.61,0,0,0,2-1.26,4.87,4.87,0,0,0,.4-.5,4.62,4.62,0,0,0,.61-1.24,4.51,4.51,0,0,0,.17-1.92c0-.2-.06-.39-.11-.59a4.86,4.86,0,0,0-.54-1.24c-.1-.15-.2-.3-.32-.45a4.55,4.55,0,0,0-2.18-1.48,4.46,4.46,0,0,0-2.68,0h0a3.94,3.94,0,0,0-.48.18l-.05,0a4.27,4.27,0,0,0-.79.48,4,4,0,0,0-.46.38,4.54,4.54,0,0,0-1.32,4A6.23,6.23,0,0,0,813.51,223.41Z"/><path class="cls-8" d="M814.19,224.75l0,0a4.49,4.49,0,0,0,2.41-2.73v0a2.18,2.18,0,0,0,.11-.44s0,0,0,0,0,0,0-.06v0a2.89,2.89,0,0,0,.07-.49v0A4.53,4.53,0,0,0,816,218l0,0a4,4,0,0,0-.33-.39,4.93,4.93,0,0,1,.53-.22,3.39,3.39,0,0,1,.33.42l0,0a5.08,5.08,0,0,1,.83,3.47h0a1.2,1.2,0,0,1,0,.2h0c0,.12,0,.23-.07.35a1.21,1.21,0,0,1,0,.18h0c0,.05,0,.09,0,.14a5.08,5.08,0,0,1-2.59,3h0a4.4,4.4,0,0,1-.5.21,3.79,3.79,0,0,1-.34-.45Z"/><path class="cls-8" d="M818.86,221.76a5.44,5.44,0,0,0,.58.05,2,2,0,0,0-.13.25h0a1.36,1.36,0,0,0-.24-.13l-.18-.08-.07,0A.25.25,0,0,0,818.86,221.76Zm-.22.58v0s0,0,0,0c.05-.16.1-.3.16-.45a.25.25,0,0,0,0-.07,5.05,5.05,0,0,1,2.51-2.54.45.45,0,0,1,.84.27,5.34,5.34,0,0,0-.52.18,4.5,4.5,0,0,0-2.25,2.14,2,2,0,0,0-.13.25h0l-.1.27-.05.14,0,.1h0a4.56,4.56,0,0,0,.51,3.64,3.65,3.65,0,0,0,.32.45,4.87,4.87,0,0,1-.53.21,4.76,4.76,0,0,1-.31-.47A5.07,5.07,0,0,1,818.64,222.34Z"/><path class="cls-8" d="M817.21,222h-.57v0a2.18,2.18,0,0,0,.11-.44s0,0,0,0a4.94,4.94,0,0,0,.49.3,2.87,2.87,0,0,0,.4.18l.35.13.07,0,.1,0a4.15,4.15,0,0,0,.48.11h.07c0-.14.1-.29.16-.43h0l.17.09a1.34,1.34,0,0,1,.24.12l.08,0h0c0,.07-.06.14-.09.23v0l0,.13a.56.56,0,0,0,0,.12l-.07,0a3.29,3.29,0,0,0-.42-.21l-.07,0a2.58,2.58,0,0,0-.39-.14l-.36-.09a3.69,3.69,0,0,0-.46-.08Zm-3.85.79a5.07,5.07,0,0,1,3.24-1.36h.18a3.93,3.93,0,0,1,.48,0h.07a5.16,5.16,0,0,1,1,.2l.48.18.07,0,.18.08a1.36,1.36,0,0,1,.24.13l.07,0,.37.24a5.06,5.06,0,0,1,1.81,2.31,4.75,4.75,0,0,1,.2.64,4.16,4.16,0,0,1-.46.48,4.29,4.29,0,0,0-.14-.62,4.54,4.54,0,0,0-2-2.57l-.42-.22-.07,0a2.58,2.58,0,0,0-.39-.14l-.07,0-.1,0a4.28,4.28,0,0,0-.87-.15h-.07a2.68,2.68,0,0,0-.49,0h-.08a4.56,4.56,0,0,0-3.06,1.44,3.81,3.81,0,0,0-.4.5,4.75,4.75,0,0,1-.2-.64A5.11,5.11,0,0,1,813.36,222.79Z"/><path class="cls-8" d="M816.71,221.42a5,5,0,0,0,.07-.54.18.18,0,0,0,.07.05,4.17,4.17,0,0,0,.44.29l.07,0a4.83,4.83,0,0,0,.81.35l.17.05.52.11a.25.25,0,0,1,0,.07l.07,0c-.06.14-.11.29-.16.43h-.07a4.15,4.15,0,0,1-.48-.11l-.1,0-.07,0-.35-.13a2.87,2.87,0,0,1-.4-.18l-.07,0a3,3,0,0,1-.43-.25l-.06,0S816.71,221.45,816.71,221.42ZM815,217.84a4.08,4.08,0,0,0,.11.59,4.55,4.55,0,0,0,1.64,2.45.18.18,0,0,0,.07.05,4.17,4.17,0,0,0,.44.29l.07,0a4.83,4.83,0,0,0,.81.35l.17.05.52.11a5.44,5.44,0,0,0,.58.05,4.56,4.56,0,0,0,2.79-.9,3.23,3.23,0,0,0,.45-.38q.09.3.15.6a5.72,5.72,0,0,1-.49.37,5.05,5.05,0,0,1-2.59.85,3.53,3.53,0,0,1-.46,0h-.08l-.48-.05h-.07a4.15,4.15,0,0,1-.48-.11l-.1,0-.07,0-.35-.13a2.87,2.87,0,0,1-.4-.18l-.07,0a3,3,0,0,1-.43-.25l-.06,0-.1-.06a5.13,5.13,0,0,1-1.92-2.62q-.09-.3-.15-.6A4.62,4.62,0,0,1,815,217.84Z"/></g></g></svg>