<svg xmlns="http://www.w3.org/2000/svg" viewBox="0 0 371.17 79.46"><defs><style>.cls-1{fill:#0069d9;}</style></defs><title>Asset 8</title><g id="Layer_2" data-name="Layer 2"><g id="Layer_1-2" data-name="Layer 1"><path class="cls-1" d="M278.85,72.84V70.36a4.62,4.62,0,0,0,1,.67,8.61,8.61,0,0,0,1.25.51,10.56,10.56,0,0,0,1.32.32,7.9,7.9,0,0,0,1.23.11,4.82,4.82,0,0,0,2.9-.72,2.45,2.45,0,0,0,.95-2.07,2.36,2.36,0,0,0-.32-1.26,3.53,3.53,0,0,0-.88-1,9,9,0,0,0-1.33-.85l-1.66-.85c-.63-.32-1.21-.64-1.75-1a7.17,7.17,0,0,1-1.42-1.08,4.41,4.41,0,0,1-.94-1.33,4.51,4.51,0,0,1,.19-3.88,4.59,4.59,0,0,1,1.42-1.49,6.19,6.19,0,0,1,2-.88,9.27,9.27,0,0,1,2.29-.29A8.7,8.7,0,0,1,289,56v2.37a7,7,0,0,0-4.08-1.11,6.48,6.48,0,0,0-1.38.15,3.7,3.7,0,0,0-1.23.47,2.59,2.59,0,0,0-.87.84,2.18,2.18,0,0,0-.34,1.25,2.61,2.61,0,0,0,.25,1.19,2.93,2.93,0,0,0,.76.91,7.16,7.16,0,0,0,1.22.8c.48.26,1,.54,1.66.85s1.25.65,1.83,1a8.64,8.64,0,0,1,1.51,1.17,5,5,0,0,1,1,1.41,3.92,3.92,0,0,1,.39,1.78,4.59,4.59,0,0,1-.52,2.25,4.35,4.35,0,0,1-1.4,1.49,6.22,6.22,0,0,1-2,.84,11.25,11.25,0,0,1-2.43.25,9,9,0,0,1-1-.07,12.09,12.09,0,0,1-1.28-.2,9.22,9.22,0,0,1-1.23-.32A4.08,4.08,0,0,1,278.85,72.84Z"/><path class="cls-1" d="M295.13,71.71h-.05v7.75H293V60.74h2.05V63h.05a4.87,4.87,0,0,1,4.43-2.56,4.68,4.68,0,0,1,3.87,1.73,7.08,7.08,0,0,1,1.39,4.61,8,8,0,0,1-1.56,5.15A5.21,5.21,0,0,1,299,73.86,4.31,4.31,0,0,1,295.13,71.71Zm-.05-5.17v1.79a3.82,3.82,0,0,0,1,2.7,3.69,3.69,0,0,0,5.54-.32,6.53,6.53,0,0,0,1.06-4,5.17,5.17,0,0,0-1-3.36,3.3,3.3,0,0,0-2.68-1.21,3.65,3.65,0,0,0-2.88,1.25A4.6,4.6,0,0,0,295.08,66.54Z"/><path class="cls-1" d="M317.28,73.56h-2.06v-2h-.05a4.29,4.29,0,0,1-3.94,2.3,4.24,4.24,0,0,1-3-1,3.52,3.52,0,0,1-1.08-2.69q0-3.6,4.23-4.18l3.84-.54q0-3.27-2.64-3.27a6.32,6.32,0,0,0-4.18,1.58v-2.1a7.87,7.87,0,0,1,4.36-1.21q4.51,0,4.52,4.79Zm-2.06-6.48-3.09.42a5,5,0,0,0-2.15.71,2,2,0,0,0-.73,1.8,2,2,0,0,0,.67,1.53,2.58,2.58,0,0,0,1.79.59,3.29,3.29,0,0,0,2.52-1.07,3.82,3.82,0,0,0,1-2.71Z"/><path class="cls-1" d="M329.88,73a6.58,6.58,0,0,1-3.5.89A5.8,5.8,0,0,1,322,72.08a6.48,6.48,0,0,1-1.68-4.63,7.08,7.08,0,0,1,1.81-5.08,6.33,6.33,0,0,1,4.85-1.93,6.66,6.66,0,0,1,3,.63v2.1a5.24,5.24,0,0,0-3-1,4.12,4.12,0,0,0-3.22,1.41,5.34,5.34,0,0,0-1.26,3.7,5.07,5.07,0,0,0,1.18,3.55,4.08,4.08,0,0,0,3.18,1.3A5.15,5.15,0,0,0,329.88,71Z"/><path class="cls-1" d="M343.29,67.67h-9.05a4.76,4.76,0,0,0,1.15,3.3,3.94,3.94,0,0,0,3,1.16,6.3,6.3,0,0,0,4-1.42v1.92a7.44,7.44,0,0,1-4.47,1.23,5.42,5.42,0,0,1-4.27-1.74,7.2,7.2,0,0,1-1.55-4.92,7,7,0,0,1,1.69-4.87A5.44,5.44,0,0,1,338,60.44a4.84,4.84,0,0,1,3.89,1.63,6.78,6.78,0,0,1,1.38,4.52Zm-2.11-1.74a4.2,4.2,0,0,0-.85-2.77,2.94,2.94,0,0,0-2.35-1,3.34,3.34,0,0,0-2.47,1,4.76,4.76,0,0,0-1.25,2.72Z"/><path class="cls-1" d="M98.46,53.07,86.34,33.28l-5.73,8.14V53.07H74.74v-43h5.87v23.4l16-23.4h6.55L90.27,28.7,105,53.07Z"/><path class="cls-1" d="M105,37.28q0-7.29,3.92-11.76A13,13,0,0,1,119.22,21q6.75,0,10.48,4.3t3.73,11.94q0,7.61-3.82,12t-10.39,4.39q-6.72,0-10.48-4.43T105,37.28Zm5.87,0q0,11.84,8.37,11.83a7.08,7.08,0,0,0,6.12-3.17q2.22-3.16,2.22-8.66,0-11.69-8.34-11.69a7.19,7.19,0,0,0-6.09,3.11Q110.85,31.82,110.85,37.28Z"/><path class="cls-1" d="M175.71,53.07V33.17q0-7.44-6.43-7.43A6.4,6.4,0,0,0,165.49,27a6.55,6.55,0,0,0-2.4,2.83V53.07h-5.58V30.73a4.34,4.34,0,0,0-1.75-3.66,7.41,7.41,0,0,0-4.62-1.33A6.41,6.41,0,0,0,147.57,27a7.91,7.91,0,0,0-2.69,2.85V53.07H139.3V21.63h3.64l1.85,3.64A9.81,9.81,0,0,1,152.87,21q6.75,0,9.45,4.2a7.27,7.27,0,0,1,3.5-3,12.2,12.2,0,0,1,5.25-1.2,9.8,9.8,0,0,1,7.55,2.89q2.67,2.89,2.67,8.12v21Z"/><path class="cls-1" d="M225.63,53.07V33.17q0-7.44-6.43-7.43A6.35,6.35,0,0,0,215.41,27,6.51,6.51,0,0,0,213,29.82V53.07h-5.58V30.73a4.34,4.34,0,0,0-1.75-3.66,7.39,7.39,0,0,0-4.62-1.33A6.44,6.44,0,0,0,197.48,27a7.79,7.79,0,0,0-2.68,2.85V53.07h-5.58V21.63h3.64l1.85,3.64A9.78,9.78,0,0,1,202.78,21q6.75,0,9.46,4.2a7.24,7.24,0,0,1,3.49-3A12.24,12.24,0,0,1,221,21a9.77,9.77,0,0,1,7.54,2.89q2.67,2.89,2.67,8.12v21Z"/><path class="cls-1" d="M244.42,21.63V41.68q0,7.29,6.31,7.28a8.73,8.73,0,0,0,5.05-1.58,7.6,7.6,0,0,0,3-3.67V21.63h5.58V53.07H258.8V48.73A8.66,8.66,0,0,1,255,52.12a11.5,11.5,0,0,1-5.53,1.54q-5.17,0-7.92-3t-2.74-8.43V21.63Z"/><path class="cls-1" d="M291.34,53.07V34.78q0-5-1.52-7t-5.06-2a8.33,8.33,0,0,0-4,1.14,9,9,0,0,0-3.2,2.82V53.07H272V21.63h3.81l1.77,4.05q2.74-4.63,9-4.64,10.34,0,10.33,12.57V53.07Z"/><path class="cls-1" d="M307.54,53.07V26.33h-4.31v-4.7h9.89V53.07ZM310.6,9.74a3.45,3.45,0,0,1,3.46,3.43,3.45,3.45,0,1,1-6.9,0,3.41,3.41,0,0,1,3.44-3.43Z"/><path class="cls-1" d="M324,26h-3.64v-4.4H324V15.05l5.58-2.14v8.72h8.64V26h-8.64V41.65c0,2.65.45,4.52,1.34,5.64A5.16,5.16,0,0,0,335.2,49a10.33,10.33,0,0,0,4.43-1.08l.83,4.9a30.75,30.75,0,0,1-7.61.88,8.27,8.27,0,0,1-6.3-2.77,9.94,9.94,0,0,1-2.57-7Z"/><path class="cls-1" d="M357.84,58.42a9.7,9.7,0,0,1-4.57,5,15.33,15.33,0,0,1-7.76,2v-5a10.7,10.7,0,0,0,6-1.63,4.7,4.7,0,0,0,2.49-4,14.75,14.75,0,0,0-.91-5.1q-.91-2.51-2.35-6.21l-8.51-21.87h5.69l9.25,24.31,8.31-24.31h5.7Z"/><path class="cls-1" d="M61.81,17.4A31.86,31.86,0,0,0,59.73,14a32.73,32.73,0,0,0-4.9-5.54A35.06,35.06,0,0,0,52,6.15a32.86,32.86,0,0,0-39,.57,32.18,32.18,0,0,0-2.81,2.41A34.07,34.07,0,0,0,7.3,12.19,32.23,32.23,0,0,0,5,15.43,32.85,32.85,0,0,0,4.72,49.8a31.38,31.38,0,0,0,2.47,3.53,32.72,32.72,0,0,0,5.2,5.19,30.48,30.48,0,0,0,3,2.14A32.87,32.87,0,0,0,52,59.51a34.94,34.94,0,0,0,2.85-2.3,32.94,32.94,0,0,0,6.55-8.16,32.33,32.33,0,0,0,1.89-3.88A32.94,32.94,0,0,0,61.81,17.4ZM59.28,45.49A29.53,29.53,0,0,1,52,55a32.07,32.07,0,0,1-2.86,2.17,29.36,29.36,0,0,1-30.89,1,28.61,28.61,0,0,1-3-2,29.43,29.43,0,0,1-6.5-6.77A28.25,28.25,0,0,1,6.6,45.93a29.39,29.39,0,0,1,.47-27.1,28.84,28.84,0,0,1,2.07-3.25,29.12,29.12,0,0,1,4-4.46A30.79,30.79,0,0,1,16,8.86a29.32,29.32,0,0,1,33.16-.4A28.67,28.67,0,0,1,52,10.63a29.2,29.2,0,0,1,7.52,10,29.14,29.14,0,0,1,2.64,12.18,29.57,29.57,0,0,1-1.34,8.82A30.36,30.36,0,0,1,59.28,45.49Z"/><path class="cls-1" d="M28.33,33.63q0-.65-.06-1.29c-.05-.76-.12-1.51-.23-2.25-.06-.48-.13-1-.22-1.43A32.8,32.8,0,0,0,16,8.86a30.62,30.62,0,0,0-3-2.14,32.18,32.18,0,0,0-2.81,2.41,29,29,0,0,1,3,2A29.31,29.31,0,0,1,24,27.57,26.5,26.5,0,0,1,24.61,31c0,.15,0,.3.06.45.1,1,.16,2,.16,3.06v.15a29.27,29.27,0,0,1-9.62,21.56,29.07,29.07,0,0,1-2.82,2.26,30.48,30.48,0,0,0,3,2.14,30.9,30.9,0,0,0,2.82-2.41,32.73,32.73,0,0,0,10.12-23.7C28.35,34.24,28.34,33.94,28.33,33.63Z"/><path class="cls-1" d="M41.81,33.59c0-.25,0-.5,0-.76s0-.63,0-.94c0-.63.06-1.26.12-1.87s.14-1.26.24-1.87A29.27,29.27,0,0,1,52,10.63a27.44,27.44,0,0,1,2.85-2.17A35.06,35.06,0,0,0,52,6.15a33.56,33.56,0,0,0-2.86,2.31A32.73,32.73,0,0,0,38.51,29c0,.17,0,.34,0,.52a28.28,28.28,0,0,0-.17,3.07V33A32.76,32.76,0,0,0,49.12,57.21,31.62,31.62,0,0,0,52,59.51a34.94,34.94,0,0,0,2.85-2.3A30.55,30.55,0,0,1,52,55,29.24,29.24,0,0,1,41.81,33.59ZM38.51,29c0,.17,0,.34,0,.52a28.64,28.64,0,0,1,3.48.54c.06-.63.14-1.26.24-1.87A27.86,27.86,0,0,1,38.51,29Z"/><path class="cls-1" d="M60.8,41.65A32.87,32.87,0,0,0,45.17,30.87,31.24,31.24,0,0,0,41.94,30a28.64,28.64,0,0,0-3.48-.54A32.64,32.64,0,0,0,28,30.09a30.48,30.48,0,0,0-3.43.95l-.66.23A32.94,32.94,0,0,0,6.6,45.93,32.13,32.13,0,0,0,4.72,49.8a31.38,31.38,0,0,0,2.47,3.53,27.14,27.14,0,0,1,1.52-3.84A29.39,29.39,0,0,1,24.83,34.7a30.86,30.86,0,0,1,3.5-1.07,29.35,29.35,0,0,1,10-.63,31.14,31.14,0,0,1,3.52.59,29.35,29.35,0,0,1,17.47,11.9,28.19,28.19,0,0,1,2.1,3.56,32.33,32.33,0,0,0,1.89-3.88A32.19,32.19,0,0,0,60.8,41.65ZM41.94,30a28.64,28.64,0,0,0-3.48-.54,28.28,28.28,0,0,0-.17,3.07,34.2,34.2,0,0,1-4.32.28,33.38,33.38,0,0,1-5.7-.49,30.42,30.42,0,0,1-3.6-.85c.1,1,.16,2,.16,3.06v.15a30.86,30.86,0,0,1,3.5-1.07,29.35,29.35,0,0,1,10-.63,31.14,31.14,0,0,1,3.52.59c0-.25,0-.5,0-.76s0-.63,0-.94C41.84,31.26,41.88,30.63,41.94,30Z"/><path class="cls-1" d="M59.73,14a30.25,30.25,0,0,1-2.06,3.25,29.4,29.4,0,0,1-15.49,10.9,27.86,27.86,0,0,1-3.67.81,29.49,29.49,0,0,1-4.54.35,29,29,0,0,1-6.15-.65A27.52,27.52,0,0,1,24,27.57a29.37,29.37,0,0,1-14.85-12A28.41,28.41,0,0,1,7.3,12.19,32.23,32.23,0,0,0,5,15.43a30.89,30.89,0,0,0,2.08,3.4A32.86,32.86,0,0,0,24,31.27c.24.08.48.16.72.22a30.42,30.42,0,0,0,3.6.85,33.38,33.38,0,0,0,5.7.49,34.2,34.2,0,0,0,4.32-.28,33.83,33.83,0,0,0,3.53-.66,31.62,31.62,0,0,0,3.35-1A33,33,0,0,0,59.5,20.65a33.55,33.55,0,0,0,2.31-3.25A31.86,31.86,0,0,0,59.73,14ZM34,29.31a29,29,0,0,1-6.15-.65A27.52,27.52,0,0,1,24,27.57,26.5,26.5,0,0,1,24.61,31c0,.15,0,.3.06.45a30.42,30.42,0,0,0,3.6.85,33.38,33.38,0,0,0,5.7.49,34.2,34.2,0,0,0,4.32-.28,28.28,28.28,0,0,1,.17-3.07c0-.18,0-.35,0-.52A29.49,29.49,0,0,1,34,29.31Z"/></g></g></svg>