<svg xmlns="http://www.w3.org/2000/svg" viewBox="0 0 65.66 65.66"><defs><style>.cls-1{fill:#0069d9;}</style></defs><title>Asset 9</title><g id="Layer_2" data-name="Layer 2"><g id="Layer_1-2" data-name="Layer 1"><path class="cls-1" d="M61.81,17.4A31.86,31.86,0,0,0,59.73,14a32.73,32.73,0,0,0-4.9-5.54A35.06,35.06,0,0,0,52,6.15a32.86,32.86,0,0,0-39,.57,32.18,32.18,0,0,0-2.81,2.41A34.07,34.07,0,0,0,7.3,12.19,32.23,32.23,0,0,0,5,15.43,32.85,32.85,0,0,0,4.72,49.8a31.38,31.38,0,0,0,2.47,3.53,32.72,32.72,0,0,0,5.2,5.19,30.48,30.48,0,0,0,3,2.14A32.87,32.87,0,0,0,52,59.51a34.94,34.94,0,0,0,2.85-2.3,32.94,32.94,0,0,0,6.55-8.16,32.33,32.33,0,0,0,1.89-3.88A32.94,32.94,0,0,0,61.81,17.4ZM59.28,45.49A29.53,29.53,0,0,1,52,55a32.07,32.07,0,0,1-2.86,2.17,29.36,29.36,0,0,1-30.89,1,28.61,28.61,0,0,1-3-2,29.43,29.43,0,0,1-6.5-6.77A28.25,28.25,0,0,1,6.6,45.93a29.39,29.39,0,0,1,.47-27.1,28.84,28.84,0,0,1,2.07-3.25,29.12,29.12,0,0,1,4-4.46A30.79,30.79,0,0,1,16,8.86a29.32,29.32,0,0,1,33.16-.4A28.67,28.67,0,0,1,52,10.63a29.2,29.2,0,0,1,7.52,10,29.14,29.14,0,0,1,2.64,12.18,29.57,29.57,0,0,1-1.34,8.82A30.36,30.36,0,0,1,59.28,45.49Z"/><path class="cls-1" d="M28.33,33.63q0-.65-.06-1.29c-.05-.76-.12-1.51-.23-2.25-.06-.48-.13-1-.22-1.43A32.8,32.8,0,0,0,16,8.86a30.62,30.62,0,0,0-3-2.14,32.18,32.18,0,0,0-2.81,2.41,29,29,0,0,1,3,2A29.31,29.31,0,0,1,24,27.57,26.5,26.5,0,0,1,24.61,31c0,.15,0,.3.06.45.1,1,.16,2,.16,3.06v.15a29.27,29.27,0,0,1-9.62,21.56,29.07,29.07,0,0,1-2.82,2.26,30.48,30.48,0,0,0,3,2.14,30.9,30.9,0,0,0,2.82-2.41,32.73,32.73,0,0,0,10.12-23.7C28.35,34.24,28.34,33.94,28.33,33.63Z"/><path class="cls-1" d="M41.81,33.59c0-.25,0-.5,0-.76s0-.63,0-.94c0-.63.06-1.26.12-1.87s.14-1.26.24-1.87A29.27,29.27,0,0,1,52,10.63a27.44,27.44,0,0,1,2.85-2.17A35.06,35.06,0,0,0,52,6.15a33.56,33.56,0,0,0-2.86,2.31A32.73,32.73,0,0,0,38.51,29c0,.17,0,.34,0,.52a28.28,28.28,0,0,0-.17,3.07V33A32.76,32.76,0,0,0,49.12,57.21,31.62,31.62,0,0,0,52,59.51a34.94,34.94,0,0,0,2.85-2.3A30.55,30.55,0,0,1,52,55,29.24,29.24,0,0,1,41.81,33.59ZM38.51,29c0,.17,0,.34,0,.52a28.64,28.64,0,0,1,3.48.54c.06-.63.14-1.26.24-1.87A27.86,27.86,0,0,1,38.51,29Z"/><path class="cls-1" d="M60.8,41.65A32.87,32.87,0,0,0,45.17,30.87,31.24,31.24,0,0,0,41.94,30a28.64,28.64,0,0,0-3.48-.54A32.64,32.64,0,0,0,28,30.09a30.48,30.48,0,0,0-3.43.95l-.66.23A32.94,32.94,0,0,0,6.6,45.93,32.13,32.13,0,0,0,4.72,49.8a31.38,31.38,0,0,0,2.47,3.53,27.14,27.14,0,0,1,1.52-3.84A29.39,29.39,0,0,1,24.83,34.7a30.86,30.86,0,0,1,3.5-1.07,29.35,29.35,0,0,1,10-.63,31.14,31.14,0,0,1,3.52.59,29.35,29.35,0,0,1,17.47,11.9,28.19,28.19,0,0,1,2.1,3.56,32.33,32.33,0,0,0,1.89-3.88A32.19,32.19,0,0,0,60.8,41.65ZM41.94,30a28.64,28.64,0,0,0-3.48-.54,28.28,28.28,0,0,0-.17,3.07,34.2,34.2,0,0,1-4.32.28,33.38,33.38,0,0,1-5.7-.49,30.42,30.42,0,0,1-3.6-.85c.1,1,.16,2,.16,3.06v.15a30.86,30.86,0,0,1,3.5-1.07,29.35,29.35,0,0,1,10-.63,31.14,31.14,0,0,1,3.52.59c0-.25,0-.5,0-.76s0-.63,0-.94C41.84,31.26,41.88,30.63,41.94,30Z"/><path class="cls-1" d="M59.73,14a30.25,30.25,0,0,1-2.06,3.25,29.4,29.4,0,0,1-15.49,10.9,27.86,27.86,0,0,1-3.67.81,29.49,29.49,0,0,1-4.54.35,29,29,0,0,1-6.15-.65A27.52,27.52,0,0,1,24,27.57a29.37,29.37,0,0,1-14.85-12A28.41,28.41,0,0,1,7.3,12.19,32.23,32.23,0,0,0,5,15.43a30.89,30.89,0,0,0,2.08,3.4A32.86,32.86,0,0,0,24,31.27c.24.08.48.16.72.22a30.42,30.42,0,0,0,3.6.85,33.38,33.38,0,0,0,5.7.49,34.2,34.2,0,0,0,4.32-.28,33.83,33.83,0,0,0,3.53-.66,31.62,31.62,0,0,0,3.35-1A33,33,0,0,0,59.5,20.65a33.55,33.55,0,0,0,2.31-3.25A31.86,31.86,0,0,0,59.73,14ZM34,29.31a29,29,0,0,1-6.15-.65A27.52,27.52,0,0,1,24,27.57,26.5,26.5,0,0,1,24.61,31c0,.15,0,.3.06.45a30.42,30.42,0,0,0,3.6.85,33.38,33.38,0,0,0,5.7.49,34.2,34.2,0,0,0,4.32-.28,28.28,28.28,0,0,1,.17-3.07c0-.18,0-.35,0-.52A29.49,29.49,0,0,1,34,29.31Z"/></g></g></svg>