<svg xmlns="http://www.w3.org/2000/svg" viewBox="0 0 243.97 243.97"><defs><style>.cls-1{fill:#fffffd;}</style></defs><title>logo-icon</title><g id="Layer_2" data-name="Layer 2"><g id="Layer_1-2" data-name="Layer 1"><path class="cls-1" d="M230.57,66.39A118,118,0,0,0,223,53.64,121.9,121.9,0,0,0,39,32.56,122,122,0,0,0,16.55,183.35a118.33,118.33,0,0,0,8.94,13.26,122.28,122.28,0,0,0,19,19.59,119.91,119.91,0,0,0,11.12,8.13,122,122,0,0,0,171.46-40.4,115.83,115.83,0,0,0,7.23-14.28,122.2,122.2,0,0,0-3.73-103.26Zm-11.1,104.19a108.94,108.94,0,0,1-188.1,11.84,107.1,107.1,0,0,1-7.61-13.36A109.06,109.06,0,0,1,27.13,68.43a104.77,104.77,0,0,1,7.86-12A108.72,108.72,0,0,1,50.1,40.15a111.85,111.85,0,0,1,10.64-8.24A108.93,108.93,0,0,1,215.17,65.59a105.59,105.59,0,0,1,6.6,12.72,108.6,108.6,0,0,1-2.3,92.27Z"/><path class="cls-1" d="M107,124.71c0-1.6-.06-3.21-.14-4.8-.13-2.82-.38-5.62-.73-8.38-.19-1.78-.44-3.55-.73-5.3A121.94,121.94,0,0,0,62.55,31.94a119.91,119.91,0,0,0-11.12-8.13,123.71,123.71,0,0,0-10.6,8.78,109.52,109.52,0,0,1,11.08,7.59,108.76,108.76,0,0,1,39.33,61.74,100.78,100.78,0,0,1,2.13,13c.08.56.13,1.12.17,1.68A109.67,109.67,0,0,1,94,127.91v.58a108.68,108.68,0,0,1-37,79.5,111.85,111.85,0,0,1-10.64,8.24,119.91,119.91,0,0,0,11.12,8.13A122.05,122.05,0,0,0,68,215.58a121.57,121.57,0,0,0,39-87.46C107,127,107,125.85,107,124.71Z"/><path class="cls-1" d="M155.3,125.34c0-.94,0-1.88,0-2.82,0-1.18.05-2.35.11-3.51.12-2.34.29-4.65.55-6.94s.6-4.65,1-6.94a108.66,108.66,0,0,1,37.44-64.48,110.28,110.28,0,0,1,10.72-7.89A121.38,121.38,0,0,0,194.7,24,117.75,117.75,0,0,0,184,32.42,121.59,121.59,0,0,0,143.32,108c-.1.63-.17,1.27-.24,1.92a112,112,0,0,0-.81,11.38c0,.35,0,.71,0,1.06s0,.41,0,.62A121.55,121.55,0,0,0,181,213.5a118.39,118.39,0,0,0,10.47,8.73,120.83,120.83,0,0,0,10.73-8.39,108.85,108.85,0,0,1-46.94-88.5Zm-12-17.39c-.1.63-.17,1.27-.24,1.92a113.86,113.86,0,0,1,12.9,2.2c.25-2.34.6-4.65,1-6.94A103.19,103.19,0,0,1,143.32,108Z"/><path class="cls-1" d="M225.35,156.4a122.09,122.09,0,0,0-57.4-41,119.61,119.61,0,0,0-12-3.36,113.86,113.86,0,0,0-12.9-2.2,118.29,118.29,0,0,0-12.26-.82,121,121,0,0,0-26.47,2.45,119.44,119.44,0,0,0-12.79,3.34c-.82.26-1.66.53-2.48.82a122.27,122.27,0,0,0-65.32,53.4,118,118,0,0,0-7.21,14.29,118.33,118.33,0,0,0,8.94,13.26,104.59,104.59,0,0,1,5.88-14.19,109.1,109.1,0,0,1,60.76-54,107.94,107.94,0,0,1,13.08-3.78,109.69,109.69,0,0,1,25.39-2.56,111.86,111.86,0,0,1,11.65.81,108.49,108.49,0,0,1,77.22,47.65,105.67,105.67,0,0,1,7.6,13.35,115.83,115.83,0,0,0,7.23-14.28A122,122,0,0,0,225.35,156.4Zm-67.56-44.3a113.86,113.86,0,0,0-12.9-2.2,112,112,0,0,0-.81,11.38,121.76,121.76,0,0,1-16.06.8,122.46,122.46,0,0,1-21.14-2.17,118.29,118.29,0,0,1-13.34-3.36A109.67,109.67,0,0,1,94,127.91v.58A106.16,106.16,0,0,1,107,124.71a109.15,109.15,0,0,1,25.39-2.56,111.48,111.48,0,0,1,11.64.81,107.8,107.8,0,0,1,13.06,2.41c0-.94,0-1.88,0-2.82,0-1.18.05-2.35.11-3.51C157.36,116.7,157.53,114.39,157.79,112.1Z"/><path class="cls-1" d="M223,53.64a105.66,105.66,0,0,1-7.86,12A108.83,108.83,0,0,1,157,105.13,103.19,103.19,0,0,1,143.32,108a109.69,109.69,0,0,1-16.9,1,109.76,109.76,0,0,1-22.81-2.78,103.66,103.66,0,0,1-14.17-4.31A109.18,109.18,0,0,1,35,56.48a106.34,106.34,0,0,1-6.6-12.72,120.88,120.88,0,0,0-8.8,11.92,118,118,0,0,0,7.54,12.75,122.23,122.23,0,0,0,62,47.23c.87.31,1.76.59,2.65.87a120.45,120.45,0,0,0,13.34,3.35,121.48,121.48,0,0,0,21.14,2.17,121.76,121.76,0,0,0,16.06-.8A116.21,116.21,0,0,0,155.43,119,120.4,120.4,0,0,0,168,115.43a122.07,122.07,0,0,0,53.82-37.12,122.08,122.08,0,0,0,8.8-11.92A118,118,0,0,0,223,53.64ZM126.42,109a109.76,109.76,0,0,1-22.81-2.78,103.66,103.66,0,0,1-14.17-4.31,102.53,102.53,0,0,1,2.12,13c.08.56.13,1.12.17,1.69a120.45,120.45,0,0,0,13.34,3.35,121.48,121.48,0,0,0,21.14,2.17,121.76,121.76,0,0,0,16.06-.8,112,112,0,0,1,.81-11.38c.07-.65.14-1.29.24-1.92A109.69,109.69,0,0,1,126.42,109Z"/></g></g></svg>