<svg xmlns="http://www.w3.org/2000/svg" viewBox="0 0 1327.56 945.7"><defs><style>.cls-1,.cls-16{fill:#eaeae8;}.cls-2{fill:#fffffd;}.cls-3{fill:#494949;}.cls-4{fill:#3a3a3a;}.cls-5{fill:#3f3f3f;}.cls-6{fill:#005cff;}.cls-7{fill:#565656;}.cls-8{fill:#eaeaea;}.cls-9{fill:#999;}.cls-10{fill:#878787;}.cls-11{fill:#777;}.cls-12{fill:#bcbcbc;}.cls-13{fill:#909198;}.cls-14,.cls-18,.cls-19,.cls-20{fill:#78797f;}.cls-15{fill:#0a0a0a;}.cls-16{opacity:0.76;}.cls-17{fill:#fff;}.cls-18{opacity:0.27;}.cls-19{opacity:0.29;}.cls-20{opacity:0.08;}.cls-21{fill:#efefef;}</style></defs><title>space</title><g id="Layer_2" data-name="Layer 2"><g id="Layer_1-2" data-name="Layer 1"><path class="cls-1" d="M1327.5,332.13c3.41,22.72-139.78,35.66-173.22,128.25-22.57,62.47,26.85,100.25,5.58,140.21-52.42,98.52-407.28-28.7-446.89,52.52C689.26,701.7,806.86,766.51,787.5,837c-30.22,110-370.22,151.13-423.25,54-33.24-60.89,75.45-122.73,60-228C395.86,469.56-11.51,404.22.25,337c12.26-70.11,460.84-28.67,480-122,9.55-46.5-96.57-82.47-86-128,17.35-74.74,334.48-111.79,402,2,30.2,50.9-20.44,91.84,4,144C865.93,373.22,1321.4,291.33,1327.5,332.13Z"/><circle class="cls-2" cx="723.21" cy="418.2" r="64.98"/><circle class="cls-3" cx="820.76" cy="643.5" r="196.56"/><ellipse class="cls-4" cx="743.7" cy="548.71" rx="25.67" ry="5.33"/><ellipse class="cls-4" cx="674.7" cy="600.21" rx="25.67" ry="5.33"/><ellipse class="cls-4" cx="776.7" cy="713.54" rx="25.67" ry="5.33"/><ellipse class="cls-4" cx="812.03" cy="784.87" rx="25.67" ry="5.33"/><ellipse class="cls-4" cx="868.7" cy="504.87" rx="25.67" ry="5.33"/><ellipse class="cls-4" cx="961.37" cy="605.54" rx="25.67" ry="5.33"/><ellipse class="cls-4" cx="916.7" cy="754.87" rx="25.67" ry="5.33"/><ellipse class="cls-4" cx="832.7" cy="610.87" rx="25.67" ry="5.33"/><ellipse class="cls-4" cx="683.37" cy="690.76" rx="25.67" ry="5.33"/><circle class="cls-3" cx="360.32" cy="698.38" r="146.97"/><ellipse class="cls-5" cx="251.11" cy="666.01" rx="19.19" ry="3.99"/><ellipse class="cls-5" cx="327.38" cy="750.75" rx="19.19" ry="3.99"/><ellipse class="cls-5" cx="353.8" cy="804.08" rx="19.19" ry="3.99"/><ellipse class="cls-5" cx="257.59" cy="733.72" rx="19.19" ry="3.99"/><path class="cls-5" d="M237.16,684.33c-2.54,6.24-9.63,9.26-10.1,8.72s4.09-3.14,6.36-8.72c3.7-9.1-1.58-18.21-.87-18.45S240.7,675.6,237.16,684.33Z"/><path class="cls-5" d="M264.94,684.33c2.53,6.24,9.62,9.26,10.09,8.72s-4.09-3.14-6.36-8.72c-3.7-9.1,1.59-18.21.88-18.45S261.39,675.6,264.94,684.33Z"/><ellipse class="cls-5" cx="415.43" cy="722.16" rx="19.19" ry="3.99"/><path class="cls-5" d="M401.47,740.48c-2.54,6.24-9.63,9.26-10.1,8.72s4.09-3.14,6.36-8.72c3.7-9.1-1.58-18.21-.87-18.45S405,731.75,401.47,740.48Z"/><path class="cls-5" d="M429.25,740.48c2.53,6.24,9.62,9.26,10.09,8.72s-4.08-3.14-6.35-8.72c-3.71-9.1,1.58-18.21.87-18.45S425.7,731.75,429.25,740.48Z"/><ellipse class="cls-5" cx="303.44" cy="600.4" rx="19.19" ry="3.99"/><path class="cls-5" d="M289.48,618.72c-2.53,6.24-9.62,9.26-10.09,8.72s4.08-3.14,6.35-8.72c3.7-9.1-1.58-18.2-.87-18.45S293,610,289.48,618.72Z"/><path class="cls-5" d="M317.26,618.72c2.54,6.24,9.63,9.26,10.09,8.72s-4.08-3.14-6.35-8.72c-3.7-9.1,1.58-18.2.87-18.45S313.72,610,317.26,618.72Z"/><ellipse class="cls-5" cx="372.95" cy="660.77" rx="19.19" ry="3.99"/><path class="cls-5" d="M359,679.09c-2.54,6.25-9.63,9.26-10.09,8.72s4.08-3.14,6.35-8.72c3.7-9.1-1.58-18.2-.87-18.44S362.54,670.37,359,679.09Z"/><path class="cls-5" d="M386.77,679.09c2.54,6.25,9.63,9.26,10.09,8.72s-4.08-3.14-6.35-8.72c-3.7-9.1,1.58-18.2.87-18.44S383.22,670.37,386.77,679.09Z"/><ellipse class="cls-5" cx="396.96" cy="588.84" rx="19.19" ry="3.99"/><path class="cls-5" d="M383,607.16c-2.54,6.24-9.63,9.26-10.1,8.72s4.09-3.14,6.36-8.72c3.7-9.1-1.58-18.2-.87-18.44S386.54,598.43,383,607.16Z"/><path class="cls-5" d="M410.78,607.16c2.53,6.24,9.62,9.26,10.09,8.72s-4.08-3.14-6.35-8.72c-3.71-9.1,1.58-18.2.87-18.44S407.23,598.43,410.78,607.16Z"/><ellipse class="cls-5" cx="465.52" cy="668.34" rx="19.19" ry="3.99"/><path class="cls-5" d="M451.56,686.66c-2.53,6.25-9.62,9.26-10.09,8.72s4.08-3.14,6.36-8.72c3.7-9.1-1.59-18.2-.88-18.44S455.11,677.94,451.56,686.66Z"/><path class="cls-5" d="M479.34,686.66c2.54,6.25,9.63,9.26,10.1,8.72s-4.09-3.14-6.36-8.72c-3.7-9.1,1.58-18.2.87-18.44S475.8,677.94,479.34,686.66Z"/><ellipse class="cls-5" cx="327.45" cy="750.75" rx="19.19" ry="3.99"/><path class="cls-5" d="M313.49,769.07c-2.54,6.24-9.63,9.26-10.09,8.72s4.08-3.14,6.35-8.72c3.7-9.1-1.58-18.21-.87-18.45S317,760.34,313.49,769.07Z"/><path class="cls-5" d="M341.27,769.07c2.54,6.24,9.62,9.26,10.09,8.72s-4.08-3.14-6.35-8.72c-3.7-9.1,1.58-18.21.87-18.45S337.72,760.34,341.27,769.07Z"/><ellipse class="cls-5" cx="257.66" cy="735.2" rx="19.19" ry="3.99"/><path class="cls-5" d="M243.7,753.52c-2.53,6.25-9.62,9.26-10.09,8.72s4.09-3.14,6.36-8.72c3.7-9.1-1.59-18.2-.88-18.44S247.25,744.79,243.7,753.52Z"/><path class="cls-5" d="M271.48,753.52c2.54,6.25,9.63,9.26,10.1,8.72s-4.09-3.14-6.36-8.72c-3.7-9.1,1.58-18.2.87-18.44S267.94,744.79,271.48,753.52Z"/><ellipse class="cls-5" cx="351.57" cy="804.08" rx="19.19" ry="3.99"/><path class="cls-5" d="M337.61,822.4c-2.54,6.25-9.63,9.26-10.09,8.72s4.08-3.14,6.35-8.72c3.7-9.1-1.58-18.2-.87-18.44S341.16,813.68,337.61,822.4Z"/><path class="cls-5" d="M365.39,822.4c2.54,6.25,9.63,9.26,10.09,8.72s-4.08-3.14-6.35-8.72c-3.7-9.1,1.58-18.2.87-18.44S361.84,813.68,365.39,822.4Z"/><ellipse class="cls-5" cx="428.36" cy="776.98" rx="19.19" ry="3.99"/><path class="cls-5" d="M414.4,795.3c-2.54,6.24-9.62,9.26-10.09,8.72s4.08-3.14,6.35-8.72c3.7-9.1-1.58-18.2-.87-18.44S418,786.57,414.4,795.3Z"/><path class="cls-5" d="M442.18,795.3c2.54,6.24,9.63,9.26,10.09,8.72s-4.08-3.14-6.35-8.72c-3.7-9.1,1.58-18.2.87-18.44S438.64,786.57,442.18,795.3Z"/><circle class="cls-3" cx="380.78" cy="196.56" r="196.56"/><ellipse class="cls-3" cx="386.71" cy="210.83" rx="286.17" ry="35.26"/><path class="cls-6" d="M777.62,390.34a60.25,60.25,0,0,0-3.78-6.39A61.13,61.13,0,0,0,687,369a61.51,61.51,0,0,0-10.64,10,61.11,61.11,0,0,0-1.45,76.59,61.35,61.35,0,0,0,9.52,9.81,60.15,60.15,0,0,0,5.57,4.07,61.14,61.14,0,0,0,85.91-20.24,59.89,59.89,0,0,0,3.62-7.15,61.28,61.28,0,0,0-1.87-51.74Zm-5.56,52.2a54.6,54.6,0,0,1-76.79,22.53,53.88,53.88,0,0,1-5.55-3.8,54.91,54.91,0,0,1-11.91-12.8,53,53,0,0,1-3.81-6.69,54.57,54.57,0,0,1,80.26-68.46,55.35,55.35,0,0,1,5.25,4.12,54.76,54.76,0,0,1,10.39,12.5,53.37,53.37,0,0,1,3.31,6.37A54.82,54.82,0,0,1,775,435.44,53.28,53.28,0,0,1,772.06,442.54Z"/><path class="cls-6" d="M715.72,419.56c0-.8,0-1.61-.07-2.41-.07-1.41-.19-2.81-.37-4.19-.1-.89-.22-1.78-.36-2.66a61.16,61.16,0,0,0-21.48-37.22,60.15,60.15,0,0,0-5.57-4.07,58.73,58.73,0,0,0-5.31,4.4,53.88,53.88,0,0,1,5.55,3.8,54.47,54.47,0,0,1,19.7,30.93,51.66,51.66,0,0,1,1.07,6.49,8,8,0,0,1,.08.84,53.8,53.8,0,0,1,.21,5.7v.28a54.42,54.42,0,0,1-18.53,39.83,55.79,55.79,0,0,1-5.33,4.13,60.11,60.11,0,0,0,5.56,4.08,62.41,62.41,0,0,0,5.32-4.4,61,61,0,0,0,19.54-43.82Q715.74,420.42,715.72,419.56Z"/><path class="cls-6" d="M739.91,419.88c0-.47,0-.95,0-1.42s0-1.17.05-1.76c.06-1.16.15-2.33.28-3.47s.3-2.33.5-3.48a54.51,54.51,0,0,1,18.76-32.31,56.17,56.17,0,0,1,5.37-3.95,60.81,60.81,0,0,0-5.23-4.37,57.67,57.67,0,0,0-5.39,4.2,60.93,60.93,0,0,0-20.35,37.84c-.06.32-.09.64-.13,1-.22,1.88-.36,3.78-.4,5.71,0,.17,0,.35,0,.53s0,.2,0,.31a61.06,61.06,0,0,0,24.68,49.75,60.54,60.54,0,0,0,5.37-4.2,55,55,0,0,1-5.24-4.13A54.41,54.41,0,0,1,739.91,419.88Zm-6-8.72c-.06.32-.09.64-.13,1a57.1,57.1,0,0,1,6.47,1.11c.13-1.17.3-2.33.5-3.48A51.83,51.83,0,0,1,733.91,411.16Z"/><path class="cls-6" d="M775,435.44a61.09,61.09,0,0,0-28.76-20.53,59.53,59.53,0,0,0-6-1.68,57.1,57.1,0,0,0-6.47-1.11c-2-.23-4.07-.37-6.14-.41a61,61,0,0,0-13.26,1.23,59.71,59.71,0,0,0-6.41,1.68c-.41.13-.83.26-1.24.41A61.3,61.3,0,0,0,674,441.78a60,60,0,0,0-3.61,7.16,60,60,0,0,0,4.48,6.65,53.54,53.54,0,0,1,2.94-7.12,54.71,54.71,0,0,1,30.45-27,53,53,0,0,1,6.55-1.89,54.49,54.49,0,0,1,12.72-1.29,56.12,56.12,0,0,1,5.84.41,54.56,54.56,0,0,1,42.5,30.56,59.89,59.89,0,0,0,3.62-7.15A59.91,59.91,0,0,0,775,435.44Zm-33.84-22.19a57.1,57.1,0,0,0-6.47-1.11,56.21,56.21,0,0,0-.4,5.7,61.51,61.51,0,0,1-18.64-.69,57.4,57.4,0,0,1-6.69-1.68,53.8,53.8,0,0,1,.21,5.7v.28a54.89,54.89,0,0,1,31.65-1.56c0-.47,0-.94,0-1.41s0-1.18.06-1.76C740.94,415.55,741,414.39,741.16,413.25Z"/><path class="cls-6" d="M773.84,384a52,52,0,0,1-3.94,6,54.55,54.55,0,0,1-29.15,19.81,51.83,51.83,0,0,1-6.84,1.41,54.93,54.93,0,0,1-19.9-.87,52.55,52.55,0,0,1-7.1-2.16,54.68,54.68,0,0,1-27.28-22.76,52.62,52.62,0,0,1-3.31-6.37,60.21,60.21,0,0,0-4.41,6,59.13,59.13,0,0,0,3.78,6.38,61.25,61.25,0,0,0,31,23.67l1.33.43a58.78,58.78,0,0,0,6.68,1.68,61.51,61.51,0,0,0,10.59,1.09,62.91,62.91,0,0,0,8-.4A59.24,59.24,0,0,0,740,416.7a57.05,57.05,0,0,0,6.27-1.79,61.08,61.08,0,0,0,27-18.6,60.08,60.08,0,0,0,4.41-6A60.25,60.25,0,0,0,773.84,384Zm-48.4,27.73A55.08,55.08,0,0,1,714,410.29a52.55,52.55,0,0,1-7.1-2.16,49.61,49.61,0,0,1,1.06,6.49q.06.42.09.84a58.78,58.78,0,0,0,6.68,1.68,61.51,61.51,0,0,0,10.59,1.09,62.91,62.91,0,0,0,8-.4c0-1.93.18-3.83.4-5.71,0-.32.07-.64.13-1A55.14,55.14,0,0,1,725.44,411.68Z"/><path class="cls-7" d="M466.39,382.13l58,.16-18.44-19.75L463.73,369Q465.05,375.58,466.39,382.13Z"/><path class="cls-8" d="M465.15,369.8l41.1,4c.16-3.75.33-7.5.49-11.25H473.29Z"/><path class="cls-9" d="M463.73,369c0,.07,0,.17.06.29a10,10,0,0,0,.24,1.22c.44.45,4.73-3.84,8.39-5.78,3.46-1.83,6.21-1.48,13-1.26,4.52.15,10.94.24,18.93-.05l-1.4-2-29.71-.12Z"/><path class="cls-10" d="M466,369.35l1.4.21,1.52.22,1.41.2,1.8.27,1.41.2,1.55.23,1.4.2,1.74.26,1.41.2,1.77.26,1.4.21,2.09.3,1.41.21,9.44,1.39a14.66,14.66,0,0,0,1.07-1,10.71,10.71,0,0,0,.8-.92c-2.86-.19-4.63-.34-5.74-.45l-3.06-.31-1.51-.15-2.24-.23-1.51-.15-1.89-.19-1.51-.15-1.86-.19-1.51-.15-1.67-.17-1.5-.15-1.93-.19-1.51-.15-1.63-.17-1.51-.15Z"/><path class="cls-11" d="M501.52,484.89l37.62,12.21-44-123.55L463.73,369Q482.62,427,501.52,484.89Z"/><path class="cls-12" d="M472.14,370.25l1.41.2,1.58-.84-1.5-.15Z"/><path class="cls-12" d="M468.93,369.78l1.41.2,1.36-.71-1.51-.15Z"/><path class="cls-12" d="M466,369.35l1.4.21,1.15-.61-1.51-.15Z"/><ellipse class="cls-2" cx="551.35" cy="309.41" rx="71.1" ry="76.61"/><path class="cls-13" d="M480.67,412.39c.05.75.12,1.49.23,2.24,1.6,12.15,8.9,24.21,17.67,34.57l1.14,1.32c2.07,2.38,4.21,4.66,6.37,6.83l1.24,1.22c2.4,2.36,4.82,4.57,7.17,6.6l1.33,1.14c10.21,8.62,18.89,13.7,19.79,12.82.56-.55-3.17-5.57-10.62-15.62L522.41,460c-.36-.48-.72-.94-1.06-1.4q-3.29-4.35-5.94-7.77l-1.08-1.37c-2.38-3.05-4.34-5.48-5.85-7.33l-.3-.36-.55-.67-.26-.32c-1.72-2.07-2.61-3.08-2.61-3.08a56.41,56.41,0,0,1-9.13-14.16c-.45-1-.83-1.93-1.12-2.75a23.75,23.75,0,0,1-.77-2.48,7.2,7.2,0,0,1,0-4.5c.7-1.87,2.45-3.93,6-8.05l1.14-1.32c1.74-2,3.5-3.79,5.21-5.49l1.24-1.23c2-1.92,3.82-3.7,5.5-5.4.42-.43.82-.84,1.21-1.26,4.23-4.47,6.87-8.47,5.93-13.21-1.25-6.29-8.29-11.26-13.95-11.38-4.34-.1-8.33,2.63-11.81,6.8-.36.44-.73.9-1.08,1.37a50.59,50.59,0,0,0-4.16,6.61c-.28.53-.56,1.06-.83,1.6a77.27,77.27,0,0,0-3.18,7.31h0c-.23.59-.44,1.18-.65,1.76a79.74,79.74,0,0,0-2.64,9.11c-.12.54-.23,1.08-.34,1.62h0c-.07.36-.22,1.09-.36,2A34.11,34.11,0,0,0,480.67,412.39Z"/><path class="cls-14" d="M493.09,374.68l19.7,17.68L514,391.1l-19.83-17.78C493.81,373.76,493.44,374.21,493.09,374.68Z"/><path class="cls-14" d="M498.57,449.2l1.14,1.32,8.77-8.35-.3-.36-.55-.67-.26-.32Z"/><path class="cls-14" d="M506.08,457.35l1.24,1.22,8.09-7.7-1.08-1.37Z"/><path class="cls-14" d="M514.49,465.17l1.33,1.14,6.59-6.27c-.36-.48-.72-.94-1.06-1.4Z"/><path class="cls-14" d="M488.1,382.89,506.05,399l1.24-1.23-18.36-16.47C488.65,381.82,488.37,382.35,488.1,382.89Z"/><path class="cls-14" d="M484.27,392,499.7,405.8l1.14-1.32L484.92,390.2C484.69,390.79,484.48,391.38,484.27,392Z"/><path class="cls-14" d="M480.93,404.7l11.88,10.66.93-1.51-12.45-11.16Q481.1,403.7,480.93,404.7Z"/><path class="cls-14" d="M480.67,412.39c.05.75.12,1.49.23,2.24l13.61,6.2a23.75,23.75,0,0,1-.77-2.48Z"/><path class="cls-13" d="M581.87,394.07l1.21,1.26c1.68,1.7,3.54,3.48,5.5,5.4l1.24,1.23c1.71,1.7,3.47,3.52,5.21,5.49l1.14,1.32c.34.39.67.79,1,1.19a31.46,31.46,0,0,1,9.48,2.82c.57.24,1.15.51,1.74.78,2.38,1.12,4.92,2.46,7.52,4a75.09,75.09,0,0,0-1-9.9q-.16-1-.36-2h0c-.1-.54-.22-1.08-.34-1.62a79.16,79.16,0,0,0-2.64-9.11c-.21-.59-.42-1.17-.65-1.76h0a76.16,76.16,0,0,0-3.18-7.31l-.35-.69-.48-.91a50.59,50.59,0,0,0-4.16-6.61c-.35-.47-.72-.93-1.08-1.37-3.48-4.17-7.47-6.9-11.81-6.8-4.12.09-9,2.75-11.8,6.63a12.16,12.16,0,0,0-2.15,4.75C575,385.6,577.64,389.6,581.87,394.07Z"/><path class="cls-14" d="M602.78,377.65l-19.7,17.68-1.21-1.26,19.83-17.79C602.07,376.72,602.43,377.18,602.78,377.65Z"/><path class="cls-14" d="M607.77,385.86,589.82,402l-1.24-1.23,18.36-16.47C607.22,384.78,607.5,385.32,607.77,385.86Z"/><path class="cls-14" d="M611.6,394.93l-15.43,13.84L595,407.45,611,393.17C611.18,393.76,611.39,394.34,611.6,394.93Z"/><path class="cls-14" d="M606.64,412.78c.57.24,1.15.51,1.74.78l6.56-5.89q-.16-1-.36-2Z"/><path class="cls-2" d="M455.07,476.06c2.88,5.76,10.15,9.67,15.79,8.62a7.78,7.78,0,0,0,1.13-.29c4.71-1.54,6.91-7.07,14-19.1,9.9-16.91,21.38-33.05,24.77-31.6.48.2,1,1.41,2.06,3.83a40.66,40.66,0,0,1,2.07,5.93c1.21,4.78,16.45,45.13,30.35,67.8,18.33,29.93,53.36,56.82,60.68,51.35,10.44-7.78-31.45-83.86-19.9-91.35a16.88,16.88,0,0,1,6.32-1.9c6.7-.7,12,2.71,14.15,4.06a28.38,28.38,0,0,1,3.16,2.34c8.27,7,12.06,17.61,13.15,20.78,7.55,21.94,9.14,39.41,10.66,49.46.88,5.79,1.74,9.12,3.7,9.43,5,.78,13.54-17.43,15.44-34.47a68,68,0,0,0-1.06-22.07c-4.29-18.77-15.16-25.43-35.21-51.19-10-12.87-25.78-33.12-22.26-37,.57-.62,1.65-.85,3.13-.75a31.46,31.46,0,0,1,9.48,2.82c.57.24,1.15.51,1.74.78,2.38,1.12,4.92,2.46,7.52,4a97.64,97.64,0,0,1,14.76,10.73c10.26,9.13,14.13,17.08,24.06,18.38,5.34.71,13.95-.32,16.16-5.09,4.8-10.36-22.29-34.76-45.25-47.76a146.5,146.5,0,0,0-18.21-8.66l-1-.4c-2.94-1.15-5.71-2.12-8.23-2.95l-1.91-.63c-2.64-.84-5-1.52-6.87-2.08-3.49-1-7.18-2.07-11.27-3a115,115,0,0,0-16.69-2.54c-11.88-.93-33-2.58-52.15,9.12-.83.51-1.65,1-2.47,1.6a70.76,70.76,0,0,0-13.29,12.06c-9,9.88-12.24,17.54-20.47,34.11C456.71,463.27,451.52,469,455.07,476.06Z"/><ellipse class="cls-15" cx="550.97" cy="307.89" rx="64.4" ry="68.24"/><path class="cls-16" d="M584.7,278.59c18.17,26.74,18.92,29.7,20,29.26,3.9-1.55-.84-39.57-23.22-52-3-1.68-9.34-4.52-11-2.63C568.54,255.47,574,262.86,584.7,278.59Z"/><rect class="cls-17" x="560.12" y="341.62" width="19.46" height="2.14" rx="1.07" ry="1.07" transform="translate(1215.12 182.07) rotate(135)"/><rect class="cls-17" x="547.85" y="341.62" width="19.46" height="2.14" rx="1.07" ry="1.07" transform="translate(405.63 -293.9) rotate(45)"/><rect class="cls-17" x="535.38" y="341.62" width="19.46" height="2.14" rx="1.07" ry="1.07" transform="translate(1172.89 199.56) rotate(135)"/><rect class="cls-17" x="523.12" y="341.62" width="19.46" height="2.14" rx="1.07" ry="1.07" transform="translate(398.39 -276.41) rotate(45)"/><path class="cls-12" d="M484.91,372.11l1.41.21,2.51-1.33-1.51-.15Z"/><path class="cls-12" d="M481.42,371.6l1.4.21,2.26-1.2-1.51-.15Z"/><path class="cls-12" d="M478.24,371.14l1.41.2,2-1.07-1.51-.15Z"/><path class="cls-12" d="M475.1,370.68l1.4.2,1.81-.95-1.51-.15Z"/><path class="cls-18" d="M455.07,476.06c2.88,5.76,10.15,9.67,15.79,8.62a7.78,7.78,0,0,0,1.13-.29,47.86,47.86,0,0,1-7.48-7.66c-1.58-2-3.59-4.62-4.4-7-2.44-7.07,4.43-15.12,10.39-22.68,1.59-2,4-5.18,6.81-9.18,4.41-6.33,7.2-11.14,15.69-26.14s9.31-16.53,11.73-19.63a81.06,81.06,0,0,1,14.5-14.33h0a63.15,63.15,0,0,0-12.45,6.52,73.18,73.18,0,0,0-13.29,12.06c-9,9.88-12.24,17.54-20.47,34.11C456.71,463.27,451.52,469,455.07,476.06Z"/><path class="cls-19" d="M609.61,475.75c8.27,7,12.06,17.61,13.15,20.78,7.55,21.94,9.14,39.41,10.66,49.46,3.42-.39,7-20.83.23-39.81C627.43,488.82,613.68,476,609.61,475.75Z"/><path class="cls-20" d="M518.54,377.3c-.09.24,12.07,8.26,28.72,8.46,18.4.22,32-9.24,32-9.39a63.11,63.11,0,0,1-29.4,8.43C531.83,385.25,518.63,377.06,518.54,377.3Z"/><rect class="cls-21" x="524.25" y="411.86" width="15.65" height="19.36" rx="7.83" ry="7.83" transform="translate(1175.59 637.61) rotate(160.17)"/><path class="cls-2" d="M537.1,419.74a5.12,5.12,0,0,0-1.54-2.34,4.62,4.62,0,0,0-.5-.37,3.76,3.76,0,0,0-.55-.32,5,5,0,0,0-.53-.23,5.09,5.09,0,0,0-5.79,1.72,4.9,4.9,0,0,0-.31.48,4.66,4.66,0,0,0-.47,1q-.09.3-.15.6a5.12,5.12,0,0,0,.14,2.45,5.2,5.2,0,0,0,.93,1.72,4.16,4.16,0,0,0,.46.48,5.12,5.12,0,0,0,1.87,1.11,5.1,5.1,0,0,0,5.45-1.52,5.55,5.55,0,0,0,.35-.46,5.1,5.1,0,0,0,.72-1.64A5,5,0,0,0,537.1,419.74Zm-.52,2.86a4.18,4.18,0,0,1-.65,1.3l0,0a2.37,2.37,0,0,1-.32.39l0,0a4.33,4.33,0,0,1-1.94,1.21,4.54,4.54,0,0,1-2.63,0,4.61,4.61,0,0,1-2-1.26,4.87,4.87,0,0,1-.4-.5,4.62,4.62,0,0,1-.61-1.24,4.51,4.51,0,0,1-.17-1.92c0-.2.06-.39.11-.59a4.86,4.86,0,0,1,.54-1.24c.1-.15.2-.3.32-.45a4.55,4.55,0,0,1,2.18-1.48,4.46,4.46,0,0,1,2.68,0h0a3.94,3.94,0,0,1,.48.18l0,0a4.27,4.27,0,0,1,.79.48,4,4,0,0,1,.46.38,4.54,4.54,0,0,1,1.32,4A6.23,6.23,0,0,1,536.58,422.6Z"/><path class="cls-2" d="M535.9,423.94l0,0a4.49,4.49,0,0,1-2.41-2.73v0a2.18,2.18,0,0,1-.11-.44v0s0,0,0-.06v0a2.89,2.89,0,0,1-.07-.49v0a4.53,4.53,0,0,1,.84-2.93l0,0a4,4,0,0,1,.33-.39,4.93,4.93,0,0,0-.53-.22,3.39,3.39,0,0,0-.33.42l0,0a5.08,5.08,0,0,0-.83,3.47h0a1.2,1.2,0,0,0,0,.2h0c0,.12,0,.23.07.35a1.21,1.21,0,0,0,0,.18h0c0,.05,0,.09,0,.14a5.08,5.08,0,0,0,2.59,3h0a4.4,4.4,0,0,0,.5.21,3.79,3.79,0,0,0,.34-.45Z"/><path class="cls-2" d="M531.23,421a5.44,5.44,0,0,1-.58.05,2,2,0,0,1,.13.25h0a1.36,1.36,0,0,1,.24-.13l.18-.08.07,0A.25.25,0,0,1,531.23,421Zm.22.58v0s0,0,0,0c0-.16-.1-.3-.16-.45a.25.25,0,0,1,0-.07,5.05,5.05,0,0,0-2.51-2.54,4.87,4.87,0,0,0-.53-.21,4.9,4.9,0,0,0-.31.48,5.34,5.34,0,0,1,.52.18,4.5,4.5,0,0,1,2.25,2.14,2,2,0,0,1,.13.25h0l.1.27,0,.14,0,.1h0a4.56,4.56,0,0,1-.51,3.64,3.65,3.65,0,0,1-.32.45,4.87,4.87,0,0,0,.53.21,4.76,4.76,0,0,0,.31-.47A5.07,5.07,0,0,0,531.45,421.53Z"/><path class="cls-2" d="M532.88,421.19h.57v0a2.18,2.18,0,0,1-.11-.44v0a4.94,4.94,0,0,1-.49.3,2.87,2.87,0,0,1-.4.18l-.35.13-.07,0-.1,0a4.15,4.15,0,0,1-.48.11h-.07c-.05-.14-.1-.29-.16-.43h0l-.17.09-.24.12-.08,0h0c0,.07.06.14.09.23s0,0,0,0l0,.13a.56.56,0,0,1,0,.12l.07,0a3.29,3.29,0,0,1,.42-.21l.07,0a2.58,2.58,0,0,1,.39-.14l.35-.1.47-.08Zm3.85.79a5.07,5.07,0,0,0-3.24-1.36h-.18a3.93,3.93,0,0,0-.48,0h-.07a5.16,5.16,0,0,0-1,.2l-.48.18-.07,0-.18.08a1.36,1.36,0,0,0-.24.13l-.07,0-.37.24a5.06,5.06,0,0,0-1.81,2.31,4.75,4.75,0,0,0-.2.64,4.16,4.16,0,0,0,.46.48,4.29,4.29,0,0,1,.14-.62,4.54,4.54,0,0,1,2-2.57l.42-.22.07,0a2.58,2.58,0,0,1,.39-.14l.07,0,.1,0a4.28,4.28,0,0,1,.87-.15H533a2.68,2.68,0,0,1,.49,0h.08a4.56,4.56,0,0,1,3.06,1.44,3.81,3.81,0,0,1,.4.5,4.75,4.75,0,0,0,.2-.64A5.11,5.11,0,0,0,536.73,422Z"/><path class="cls-2" d="M533.38,420.61a5,5,0,0,1-.07-.54.18.18,0,0,1-.07.05,4.17,4.17,0,0,1-.44.29l-.07,0a4.83,4.83,0,0,1-.81.35l-.17,0-.52.11a.25.25,0,0,0,0,.07l-.07,0c.06.14.11.29.16.43h.07a4.15,4.15,0,0,0,.48-.11l.1,0,.07,0,.35-.13a2.87,2.87,0,0,0,.4-.18l.07,0a3,3,0,0,0,.43-.25l.06,0S533.38,420.64,533.38,420.61Zm1.68-3.58a4.08,4.08,0,0,1-.11.59,4.55,4.55,0,0,1-1.64,2.45.18.18,0,0,1-.07.05,4.17,4.17,0,0,1-.44.29l-.07,0a4.83,4.83,0,0,1-.81.35l-.17,0-.52.11a5.44,5.44,0,0,1-.58.05,4.56,4.56,0,0,1-2.79-.9,3.23,3.23,0,0,1-.45-.38q-.09.3-.15.6a5.72,5.72,0,0,0,.49.37,5.05,5.05,0,0,0,2.59.85,3.53,3.53,0,0,0,.46,0h.08l.48,0h.07a4.15,4.15,0,0,0,.48-.11l.1,0,.07,0,.35-.13a2.87,2.87,0,0,0,.4-.18l.07,0a3,3,0,0,0,.43-.25l.06,0,.1-.06a5.13,5.13,0,0,0,1.92-2.62q.09-.3.15-.6A4.62,4.62,0,0,0,535.06,417Z"/><path class="cls-7" d="M280.2,451.53l56.56-12.75-22.37-15.15-39.7,15.71Q277.45,445.45,280.2,451.53Z"/><path class="cls-8" d="M276.25,439.79l41-5.27q-1-5.53-2-11.08l-32.61,7.45Z"/><path class="cls-9" d="M274.69,439.34l.12.28c.48,1.05.47,1.1.51,1.13.52.34,3.75-4.8,6.89-7.5,3-2.56,5.73-2.83,12.38-4.12,4.43-.86,10.72-2.2,18.44-4.26l-1.82-1.69-29,6.5Z"/><path class="cls-10" d="M277,439.16l1.42-.11,1.53-.13,1.42-.11,1.81-.14,1.42-.12,1.56-.12,1.42-.11,1.75-.14,1.42-.12,1.78-.14,1.41-.11,2.11-.17,1.41-.11,9.52-.75c.27-.37.54-.79.82-1.25s.41-.73.57-1.07c-2.84.45-4.6.7-5.7.83l-3,.39-1.51.18-2.23.28-1.51.19-1.88.24-1.51.18-1.86.24-1.5.18-1.66.21-1.5.19-1.93.24L281,438l-1.63.2-1.5.19Z"/><path class="cls-11" d="M337.33,543.89l39.4,3.53L306.34,436.76l-31.65,2.58Z"/><path class="cls-12" d="M283.16,438.67l1.42-.12,1.36-1.17-1.5.19Z"/><path class="cls-12" d="M279.93,438.92l1.42-.11,1.16-1L281,438Z"/><path class="cls-12" d="M277,439.16l1.42-.11,1-.85-1.5.19Z"/><ellipse class="cls-2" cx="346.83" cy="361.72" rx="71.1" ry="76.61" transform="translate(-71.84 86.32) rotate(-12.87)"/><path class="cls-13" d="M300.86,477.86c.22.71.46,1.42.72,2.12,4.27,11.49,14.07,21.62,24.93,29.77.47.35.93.69,1.41,1,2.54,1.86,5.14,3.61,7.73,5.24.49.31,1,.62,1.48.92,2.87,1.77,5.71,3.38,8.45,4.84l1.56.81c11.87,6.13,21.46,9.15,22.15,8.09.42-.66-4.33-4.72-13.84-12.86L352.16,515l-1.34-1.13q-4.17-3.51-7.52-6.24l-1.36-1.11c-3-2.44-5.45-4.37-7.33-5.84l-.37-.28-.7-.53-.32-.25C331.08,498,330,497.2,330,497.2a56.6,56.6,0,0,1-12.05-11.77q-1-1.33-1.71-2.43a23.14,23.14,0,0,1-1.29-2.25,7.17,7.17,0,0,1-1-4.38c.26-2,1.52-4.38,4-9.18.27-.52.54-1,.82-1.54,1.26-2.31,2.57-4.47,3.85-6.52.32-.49.63-1,.94-1.47,1.48-2.31,2.9-4.46,4.16-6.49l.9-1.49c3.12-5.3,4.81-9.79,2.84-14.2-2.62-5.86-10.59-9.13-16.14-8-4.25.87-7.53,4.42-10,9.26-.25.51-.5,1-.75,1.58a50.53,50.53,0,0,0-2.58,7.36c-.16.58-.31,1.16-.45,1.75a78.19,78.19,0,0,0-1.48,7.83h0c-.09.63-.16,1.25-.24,1.86a81,81,0,0,0-.54,9.48c0,.55,0,1.1,0,1.64h0c0,.36,0,1.11.09,2A34.85,34.85,0,0,0,300.86,477.86Z"/><path class="cls-14" d="M304.57,438.33l23.15,12.84.9-1.49-23.3-12.93C305.07,437.26,304.82,437.79,304.57,438.33Z"/><path class="cls-14" d="M326.51,509.75c.47.35.93.69,1.41,1l6.69-10.09-.37-.28-.7-.53-.32-.25Z"/><path class="cls-14" d="M335.65,516c.49.31,1,.62,1.48.92l6.17-9.3-1.36-1.11Z"/><path class="cls-14" d="M345.58,521.78l1.56.81,5-7.58-1.34-1.13Z"/><path class="cls-14" d="M301.54,447.44l21.08,11.7.94-1.48-21.57-12C301.83,446.27,301.68,446.85,301.54,447.44Z"/><path class="cls-14" d="M299.82,457.14,318,467.19c.27-.52.54-1,.82-1.54l-18.71-10.38C300,455.9,299.9,456.52,299.82,457.14Z"/><path class="cls-14" d="M299.4,470.3l14,7.75c.19-.57.37-1.13.57-1.68l-14.62-8.11Q299.34,469.28,299.4,470.3Z"/><path class="cls-14" d="M300.86,477.86c.22.71.46,1.42.72,2.12l14.65,3a23.14,23.14,0,0,1-1.29-2.25Z"/><path class="cls-13" d="M395.44,437.46l1.46,1c2,1.29,4.23,2.61,6.57,4l1.48.93c2,1.28,4.16,2.66,6.3,4.19l1.41,1,1.23.94a31.8,31.8,0,0,1,9.87.64c.6.11,1.23.24,1.86.38a84,84,0,0,1,8.23,2.23,75.09,75.09,0,0,0-3.14-9.44c-.25-.63-.52-1.25-.8-1.88h0q-.33-.75-.69-1.5a79.59,79.59,0,0,0-4.6-8.29c-.34-.53-.67-1.05-1-1.58h0a76.78,76.78,0,0,0-4.73-6.42l-.49-.59-.67-.78a50.52,50.52,0,0,0-5.53-5.52c-.45-.38-.9-.74-1.36-1.09-4.32-3.29-8.82-5.06-13-4-4,1-8.16,4.69-10,9.1a12.14,12.14,0,0,0-1,5.11C386.86,430.73,390.33,434,395.44,437.46Z"/><path class="cls-14" d="M412.17,416.79,396.9,438.41l-1.46-1,15.37-21.76C411.27,416.05,411.72,416.41,412.17,416.79Z"/><path class="cls-14" d="M418.86,423.68,405,443.38l-1.48-.93,14.23-20.14C418.09,422.76,418.48,423.22,418.86,423.68Z"/><path class="cls-14" d="M424.62,431.68l-12,16.92-1.41-1L423.6,430.1C424,430.63,424.28,431.15,424.62,431.68Z"/><path class="cls-14" d="M423.76,450.18c.6.11,1.23.24,1.86.38l5.09-7.21c-.25-.63-.52-1.25-.8-1.88Z"/><path class="cls-2" d="M290.08,545.63c4.09,5,12.05,7.16,17.32,4.88a7.66,7.66,0,0,0,1-.53c4.25-2.56,5.17-8.43,9.36-21.73,5.88-18.69,13.49-37,17.12-36.33.51.1,1.29,1.16,2.85,3.28a40.7,40.7,0,0,1,3.34,5.32c2.24,4.39,26.09,40.33,44.68,59.34,24.55,25.09,64.68,43.51,70.6,36.55,8.44-9.91-49.34-74.76-39.74-84.62a16.52,16.52,0,0,1,5.74-3.26c6.37-2.18,12.33,0,14.69.8a29.05,29.05,0,0,1,3.6,1.58c9.63,5,15.68,14.48,17.45,17.33,12.25,19.71,17.69,36.39,21.41,45.84,2.15,5.45,3.72,8.51,5.71,8.37,5.08-.35,9.31-20,7.37-37a67.59,67.59,0,0,0-5.95-21.28c-8.36-17.34-20.44-21.42-45.72-42.06C428.3,471.75,408.43,455.52,411,451c.42-.73,1.42-1.2,2.89-1.43a31.8,31.8,0,0,1,9.87.64c.6.11,1.23.24,1.86.38a84,84,0,0,1,8.23,2.23A96.59,96.59,0,0,1,450.63,460c12,6.61,17.58,13.5,27.55,12.56,5.36-.51,13.52-3.43,14.62-8.57,2.37-11.17-29.47-28.92-54.75-36.48a146,146,0,0,0-19.68-4.39l-1.11-.16c-3.12-.46-6-.79-8.68-1l-2-.19c-2.76-.23-5.17-.38-7.15-.5-3.64-.21-7.47-.42-11.67-.41A115.31,115.31,0,0,0,370.92,422c-11.78,1.74-32.75,4.83-48.81,20.51-.69.67-1.38,1.37-2.05,2.1a71.43,71.43,0,0,0-10.27,14.72c-6.6,11.64-8,19.83-12.36,37.81C288.84,532.79,285.05,539.51,290.08,545.63Z"/><ellipse class="cls-15" cx="346.12" cy="360.32" rx="64.4" ry="68.24" transform="translate(-71.55 86.12) rotate(-12.87)"/><path class="cls-16" d="M372.48,324.25c23.67,22,25.07,24.74,26,24.06,3.45-2.38-9.64-38.38-34.2-45.47-3.34-1-10.11-2.33-11.33-.12C351.59,305.3,358.55,311.29,372.48,324.25Z"/><rect class="cls-17" x="362.55" y="388.98" width="19.46" height="2.14" rx="1.07" ry="1.07" transform="translate(900.59 282.26) rotate(122.13)"/><rect class="cls-17" x="350.59" y="391.71" width="19.46" height="2.14" rx="1.07" ry="1.07" transform="translate(264.11 -131.48) rotate(32.13)"/><rect class="cls-17" x="338.44" y="394.49" width="19.46" height="2.14" rx="1.07" ry="1.07" transform="translate(868.32 311.12) rotate(122.13)"/><rect class="cls-17" x="326.48" y="397.22" width="19.46" height="2.14" rx="1.07" ry="1.07" transform="translate(263.35 -117.81) rotate(32.13)"/><path class="cls-12" d="M296,437.64l1.41-.11,2.16-1.85-1.51.18Z"/><path class="cls-12" d="M292.51,437.92l1.41-.11,1.94-1.67-1.51.19Z"/><path class="cls-12" d="M289.31,438.18l1.42-.12,1.74-1.49-1.51.18Z"/><path class="cls-12" d="M286.14,438.43l1.42-.11L289.1,437l-1.5.18Z"/><path class="cls-18" d="M290.08,545.63c4.09,5,12.05,7.16,17.32,4.88a7.66,7.66,0,0,0,1-.53,48.2,48.2,0,0,1-9-5.8c-2-1.64-4.53-3.71-5.86-5.85-3.94-6.34,1-15.73,5.08-24.43,1.11-2.32,2.77-5.94,4.6-10.46,2.89-7.15,4.53-12.47,9.48-29s5.39-18.19,7.06-21.75a80.76,80.76,0,0,1,10.94-17.2h0a63.06,63.06,0,0,0-10.68,9.12,73.48,73.48,0,0,0-10.27,14.72c-6.6,11.64-8,19.83-12.36,37.81C288.84,532.79,285.05,539.51,290.08,545.63Z"/><path class="cls-19" d="M440.67,510.91c9.63,5,15.68,14.48,17.45,17.33,12.25,19.71,17.69,36.39,21.41,45.84,3.24-1.14,2.22-21.87-8.64-38.86C461,519.69,444.7,510.25,440.67,510.91Z"/><path class="cls-20" d="M330,435.21c0,.25,13.62,5.37,29.89,1.85,18-3.88,29.15-16.14,29.06-16.27a62.89,62.89,0,0,1-26.78,14.77C344.69,440,330,435,330,435.21Z"/><rect class="cls-21" x="345.18" y="465.64" width="15.65" height="19.36" rx="7.83" ry="7.83" transform="translate(906.84 684.66) rotate(147.31)"/><path class="cls-2" d="M357.51,472.45a5.15,5.15,0,0,0-2-1.94,5.79,5.79,0,0,0-.57-.25,4.76,4.76,0,0,0-.61-.19,5.72,5.72,0,0,0-.57-.11,5.1,5.1,0,0,0-5.26,3,5,5,0,0,0-.2.54,4.54,4.54,0,0,0-.22,1.12,4.14,4.14,0,0,0,0,.61,4.94,4.94,0,0,0,.68,2.36A5.1,5.1,0,0,0,350,479a3.53,3.53,0,0,0,.55.37,5.1,5.1,0,0,0,7.05-2l.24-.53a5.14,5.14,0,0,0,.28-1.09,4.91,4.91,0,0,0,.05-.67A5,5,0,0,0,357.51,472.45Zm.13,2.9a4,4,0,0,1-.35,1.41.08.08,0,0,1,0,.05,1.88,1.88,0,0,1-.22.45s0,0,0,.05a4.39,4.39,0,0,1-1.62,1.61,4.63,4.63,0,0,1-2.56.62,4.86,4.86,0,0,1-.55-.07,4.72,4.72,0,0,1-1.72-.71,4.74,4.74,0,0,1-1.37-1.47,4.42,4.42,0,0,1-.59-1.83c0-.21,0-.4,0-.6a4.67,4.67,0,0,1,.25-1.33c.07-.17.13-.34.21-.51a4.54,4.54,0,0,1,4.41-2.53h.05a2.85,2.85,0,0,1,.51.07s0,0,.05,0a4,4,0,0,1,.88.29,2.94,2.94,0,0,1,.53.27,4.6,4.6,0,0,1,1.57,1.59,4.64,4.64,0,0,1,.61,2C357.65,474.93,357.65,475.14,357.64,475.35Z"/><path class="cls-2" d="M357.27,476.81h0a4.51,4.51,0,0,1-3-2.13v0a2.27,2.27,0,0,1-.21-.41h0l0-.06v0a3.35,3.35,0,0,1-.18-.46v0a4.56,4.56,0,0,1,.17-3s0,0,0,0a3.88,3.88,0,0,1,.24-.45,5.67,5.67,0,0,0-.57-.1,3.54,3.54,0,0,0-.23.48s0,0,0,0a5.07,5.07,0,0,0,0,3.56h0a1.82,1.82,0,0,0,.08.19h0c0,.11.09.22.15.33a.65.65,0,0,0,.09.16h0c0,.05,0,.08.07.13a5.07,5.07,0,0,0,3.2,2.38h0a4.51,4.51,0,0,0,.53.09,2.94,2.94,0,0,0,.23-.51Z"/><path class="cls-2" d="M352.06,474.93a3.65,3.65,0,0,1-.56.18,1.92,1.92,0,0,1,.18.22h0a.88.88,0,0,1,.2-.18,1.67,1.67,0,0,1,.16-.12l.06-.05A.15.15,0,0,1,352.06,474.93Zm.34.52v0s0,0,0,0l-.26-.41a.15.15,0,0,1-.05-.06,5.21,5.21,0,0,0-3.58-2,5,5,0,0,0-.2.54,5.14,5.14,0,0,1,.55.06,4.44,4.44,0,0,1,2.67,1.58,1.92,1.92,0,0,1,.18.22h0l.15.24.08.12.05.09h0a4.6,4.6,0,0,1,.31,3.67,5.49,5.49,0,0,1-.21.51,5,5,0,0,0,.56.08,3.7,3.7,0,0,0,.2-.52A5.09,5.09,0,0,0,352.4,475.45Z"/><path class="cls-2" d="M353.72,474.8l.55-.13v0a2.27,2.27,0,0,1-.21-.41h0c-.13.14-.27.27-.41.4l-.35.26-.32.21-.06,0-.09.05a3.61,3.61,0,0,1-.44.22l-.07,0c-.08-.12-.16-.26-.25-.38h0a1,1,0,0,0-.15.13,1,1,0,0,0-.21.17s0,0-.07.05h0c0,.06.09.12.14.21v0l.07.12a.41.41,0,0,1,.07.11l.05-.06a2.63,2.63,0,0,1,.37-.29.15.15,0,0,1,.06-.05,2.07,2.07,0,0,1,.35-.22,2,2,0,0,1,.32-.17,4.07,4.07,0,0,1,.44-.18Zm3.93-.09a5.09,5.09,0,0,0-3.46-.6h-.11l-.07,0a4.77,4.77,0,0,0-.47.13l-.06,0a5.63,5.63,0,0,0-.94.42l-.43.28-.06.05a1.67,1.67,0,0,0-.16.12.88.88,0,0,0-.2.18l-.06.05-.31.32a5.1,5.1,0,0,0-1.25,2.65,5.16,5.16,0,0,0-.05.67,3.53,3.53,0,0,0,.55.37,4.5,4.5,0,0,1,1.41-3.6l.36-.3a.15.15,0,0,1,.06-.05,2.07,2.07,0,0,1,.35-.22l.06-.05.09-.05a4.89,4.89,0,0,1,.82-.34l.06,0a2,2,0,0,1,.48-.12l.07,0a4.59,4.59,0,0,1,3.31.72,3.81,3.81,0,0,1,.5.4,4.91,4.91,0,0,0,.05-.67A5.14,5.14,0,0,0,357.65,474.71Z"/><path class="cls-2" d="M354.08,474.12a3.84,3.84,0,0,1-.19-.51.2.2,0,0,1-.06.07,4.35,4.35,0,0,1-.36.38l-.07,0a4,4,0,0,1-.71.52l-.15.09-.48.22a.15.15,0,0,0,.05.06l-.06.05c.09.12.17.26.25.38l.07,0a3.61,3.61,0,0,0,.44-.22l.09-.05.06,0,.32-.21.35-.26s0,0,.06-.05a2.33,2.33,0,0,0,.36-.34s0,0,.05-.05S354.08,474.15,354.08,474.12Zm.84-3.86a5.91,5.91,0,0,1,0,.6,4.54,4.54,0,0,1-1.05,2.75.2.2,0,0,1-.06.07,4.35,4.35,0,0,1-.36.38l-.07,0a4,4,0,0,1-.71.52l-.15.09-.48.22a3.65,3.65,0,0,1-.56.18,4.57,4.57,0,0,1-2.92-.25,5.12,5.12,0,0,1-.52-.27,4.14,4.14,0,0,0,0,.61,3.57,3.57,0,0,0,.56.26,5.09,5.09,0,0,0,2.71.25l.45-.11.07,0,.46-.16.07,0a3.61,3.61,0,0,0,.44-.22l.09-.05.06,0,.32-.21.35-.26s0,0,.06-.05a2.33,2.33,0,0,0,.36-.34s0,0,.05-.05l.09-.08a5.08,5.08,0,0,0,1.28-3c0-.21,0-.42,0-.62A5.79,5.79,0,0,0,354.92,470.26Z"/><path class="cls-7" d="M980.91,361.85l-58,.15q9.21-9.87,18.43-19.75l42.21,6.49Z"/><path class="cls-8" d="M982.15,349.52l-41.1,4q-.24-5.64-.49-11.26H974Z"/><path class="cls-9" d="M983.58,348.74a2.84,2.84,0,0,0-.06.29,8.19,8.19,0,0,1-.25,1.22c-.43.44-4.72-3.85-8.38-5.78-3.46-1.83-6.22-1.48-13-1.26-4.51.15-10.94.24-18.93,0l1.41-2.05,29.7-.11Z"/><path class="cls-10" d="M981.3,349.07l-1.41.21-1.52.22-1.4.2-1.8.26-1.41.21-1.55.23-1.41.2-1.74.26-1.4.2-1.77.26-1.41.2-2.08.31L961,352l-9.44,1.4c-.35-.31-.71-.65-1.08-1s-.56-.62-.8-.92c2.87-.19,4.64-.34,5.75-.46l3.06-.3,1.51-.15,2.23-.23,1.51-.15,1.9-.19,1.51-.15,1.86-.19,1.51-.15,1.66-.17,1.51-.15,1.93-.2,1.51-.15,1.63-.16,1.5-.15Z"/><path class="cls-11" d="M945.78,464.61l-37.61,12.21,44-123.55,31.43-4.53Z"/><path class="cls-12" d="M975.17,350l-1.41.21-1.59-.84,1.51-.15Z"/><path class="cls-12" d="M978.37,349.5l-1.4.2-1.36-.72,1.51-.15Z"/><path class="cls-12" d="M981.3,349.07l-1.41.21-1.14-.61,1.5-.15Z"/><ellipse class="cls-2" cx="895.96" cy="289.13" rx="71.1" ry="76.61"/><path class="cls-13" d="M966.64,392.11c0,.74-.13,1.49-.23,2.23-1.61,12.15-8.91,24.22-17.68,34.57-.37.45-.75.89-1.13,1.33-2.08,2.38-4.22,4.66-6.38,6.82-.41.42-.82.83-1.24,1.23-2.4,2.36-4.81,4.57-7.16,6.6L931.49,446c-10.21,8.63-18.9,13.71-19.8,12.82-.55-.54,3.17-5.57,10.62-15.62l2.59-3.46,1.06-1.41c2.18-2.9,4.17-5.48,5.94-7.76l1.08-1.38c2.38-3,4.34-5.48,5.85-7.32l.29-.36.56-.68.26-.31c1.72-2.07,2.6-3.08,2.6-3.08a56.53,56.53,0,0,0,9.13-14.16c.46-1,.83-1.94,1.13-2.76a23.35,23.35,0,0,0,.76-2.47,7.23,7.23,0,0,0,0-4.5c-.7-1.87-2.46-3.93-6-8.05l-1.14-1.32c-1.75-2-3.51-3.79-5.22-5.49-.41-.42-.83-.83-1.24-1.23-2-1.93-3.82-3.71-5.5-5.41l-1.21-1.25c-4.22-4.47-6.87-8.47-5.93-13.21,1.25-6.29,8.3-11.26,14-11.38,4.33-.1,8.32,2.63,11.8,6.8.37.44.73.9,1.09,1.37a51.13,51.13,0,0,1,4.16,6.6c.28.53.56,1.07.82,1.61a77.18,77.18,0,0,1,3.19,7.3h0c.22.59.44,1.17.64,1.76a80.78,80.78,0,0,1,2.65,9.11c.12.54.23,1.08.33,1.61h0c.08.36.23,1.09.37,2A34.71,34.71,0,0,1,966.64,392.11Z"/><path class="cls-14" d="M954.22,354.4l-19.71,17.67-1.21-1.25L953.13,353C953.5,353.47,953.86,353.93,954.22,354.4Z"/><path class="cls-14" d="M948.73,428.91c-.37.45-.75.89-1.13,1.33l-8.77-8.35.29-.36.56-.68.26-.31Z"/><path class="cls-14" d="M941.22,437.06c-.41.42-.82.83-1.24,1.23l-8.08-7.7,1.08-1.38Z"/><path class="cls-14" d="M932.82,444.89,931.49,446l-6.59-6.26,1.06-1.41Z"/><path class="cls-14" d="M959.2,362.61l-18,16.1c-.41-.42-.83-.83-1.24-1.23L958.38,361C958.66,361.53,958.94,362.07,959.2,362.61Z"/><path class="cls-14" d="M963,371.68l-15.42,13.84-1.14-1.32,15.92-14.28C962.61,370.51,962.83,371.09,963,371.68Z"/><path class="cls-14" d="M966.38,384.42l-11.89,10.66c-.3-.51-.61-1-.92-1.51L966,382.41C966.15,383.08,966.27,383.75,966.38,384.42Z"/><path class="cls-14" d="M966.64,392.11c0,.74-.13,1.49-.23,2.23l-13.61,6.2a23.35,23.35,0,0,0,.76-2.47Z"/><path class="cls-13" d="M865.44,373.79,864.23,375c-1.68,1.7-3.55,3.48-5.5,5.41l-1.24,1.22c-1.71,1.71-3.47,3.53-5.22,5.5l-1.14,1.31-1,1.2a31.63,31.63,0,0,0-9.47,2.81c-.57.25-1.15.51-1.74.79-2.38,1.11-4.92,2.46-7.52,4a76.62,76.62,0,0,1,1-9.89c.11-.67.23-1.34.37-2h0c.1-.54.21-1.07.33-1.61a78.74,78.74,0,0,1,2.65-9.11c.2-.59.42-1.18.64-1.76h0a78.5,78.5,0,0,1,3.19-7.31l.34-.68.48-.92a51.13,51.13,0,0,1,4.16-6.6c.36-.47.72-.93,1.09-1.37,3.48-4.17,7.47-6.9,11.8-6.81,4.13.09,9,2.76,11.81,6.64a12.09,12.09,0,0,1,2.15,4.75C872.31,365.32,869.66,369.32,865.44,373.79Z"/><path class="cls-14" d="M844.52,357.37,864.22,375l1.22-1.25L845.61,356C845.24,356.44,844.88,356.9,844.52,357.37Z"/><path class="cls-14" d="M839.53,365.57l18,16.1,1.24-1.22L840.36,364Z"/><path class="cls-14" d="M835.7,374.65l15.43,13.84,1.14-1.32-15.92-14.28C836.13,373.47,835.91,374.06,835.7,374.65Z"/><path class="cls-14" d="M840.67,392.49c-.57.25-1.15.51-1.74.79l-6.57-5.89c.11-.67.23-1.34.37-2Z"/><path class="cls-2" d="M992.24,455.78c-2.88,5.76-10.16,9.67-15.8,8.62a9.16,9.16,0,0,1-1.12-.29c-4.71-1.55-6.92-7.07-14-19.1-9.9-16.91-21.39-33.05-24.78-31.6-.48.2-1,1.41-2.05,3.83a41.6,41.6,0,0,0-2.08,5.92c-1.2,4.78-16.45,45.14-30.34,67.81-18.34,29.92-53.36,56.81-60.69,51.35C831,534.53,872.88,458.45,861.33,451a16.88,16.88,0,0,0-6.33-1.9c-6.69-.71-12,2.7-14.14,4.05a30,30,0,0,0-3.16,2.34c-8.28,7-12.06,17.62-13.15,20.79-7.56,21.94-9.14,39.41-10.67,49.46-.88,5.79-1.73,9.12-3.7,9.43-5,.78-13.53-17.43-15.44-34.48a67.8,67.8,0,0,1,1.07-22.06c4.29-18.77,15.15-25.44,35.2-51.19,10-12.88,25.79-33.13,22.26-37-.56-.61-1.64-.85-3.13-.74a31.63,31.63,0,0,0-9.47,2.81c-.57.25-1.15.51-1.74.79-2.38,1.11-4.92,2.46-7.52,4A97.41,97.41,0,0,0,816.65,408c-10.26,9.12-14.14,17.08-24.06,18.38-5.34.7-14-.32-16.16-5.09-4.81-10.37,22.28-34.76,45.24-47.76a146.5,146.5,0,0,1,18.21-8.66l1-.41c2.94-1.14,5.71-2.11,8.23-3l1.92-.62c2.64-.84,4.95-1.53,6.86-2.08,3.5-1,7.19-2.08,11.28-3a113.49,113.49,0,0,1,16.68-2.54c11.88-.93,33-2.59,52.15,9.12.83.5,1.66,1,2.48,1.59a71.77,71.77,0,0,1,13.29,12.06c9,9.88,12.23,17.55,20.47,34.11C990.59,443,995.78,448.7,992.24,455.78Z"/><ellipse class="cls-15" cx="896.34" cy="287.61" rx="64.4" ry="68.24"/><path class="cls-16" d="M924.74,256.3c18.17,26.74,18.92,29.7,20,29.26,3.89-1.55-.85-39.57-23.23-51.95-3-1.68-9.33-4.52-11-2.63C908.59,233.18,914.05,240.57,924.74,256.3Z"/><rect class="cls-17" x="867.73" y="321.34" width="19.46" height="2.14" rx="1.07" ry="1.07" transform="translate(484.98 -526.02) rotate(45)"/><rect class="cls-17" x="879.99" y="321.34" width="19.46" height="2.14" rx="1.07" ry="1.07" transform="translate(1746.83 -78.74) rotate(135)"/><rect class="cls-17" x="892.46" y="321.34" width="19.46" height="2.14" rx="1.07" ry="1.07" transform="translate(492.22 -543.51) rotate(45)"/><rect class="cls-17" x="904.73" y="321.34" width="19.46" height="2.14" rx="1.07" ry="1.07" transform="translate(1789.06 -96.23) rotate(135)"/><path class="cls-12" d="M962.4,351.83,961,352l-2.51-1.32,1.51-.15Z"/><path class="cls-12" d="M965.89,351.32l-1.41.2-2.26-1.19,1.51-.15Z"/><path class="cls-12" d="M969.06,350.86l-1.4.2-2-1.07,1.51-.15Z"/><path class="cls-12" d="M972.21,350.4l-1.41.2-1.8-1,1.51-.15Z"/><path class="cls-18" d="M992.24,455.78c-2.88,5.76-10.16,9.67-15.8,8.62a9.16,9.16,0,0,1-1.12-.29,48.34,48.34,0,0,0,7.47-7.66c1.59-2,3.59-4.62,4.41-7,2.43-7.07-4.44-15.12-10.39-22.69-1.6-2-4-5.18-6.81-9.17-4.41-6.33-7.2-11.15-15.69-26.14s-9.31-16.53-11.74-19.63a81.06,81.06,0,0,0-14.49-14.33h0A63.85,63.85,0,0,1,940.53,364a74.22,74.22,0,0,1,13.29,12.06c9,9.88,12.23,17.55,20.47,34.11C990.59,443,995.78,448.7,992.24,455.78Z"/><path class="cls-19" d="M837.7,455.46c-8.28,7-12.06,17.62-13.15,20.79-7.56,21.94-9.14,39.41-10.67,49.46-3.41-.4-7-20.83-.22-39.81C819.88,468.54,833.62,455.72,837.7,455.46Z"/><path class="cls-20" d="M928.77,357c.09.23-12.08,8.26-28.73,8.46-18.4.21-32-9.25-31.95-9.39a63,63,0,0,0,29.4,8.43C915.48,365,928.68,356.77,928.77,357Z"/><rect class="cls-21" x="907.4" y="391.57" width="15.65" height="19.36" rx="7.83" ry="7.83" transform="translate(190.36 -286.65) rotate(19.83)"/><path class="cls-2" d="M910.21,399.45a5.12,5.12,0,0,1,1.54-2.34,4.62,4.62,0,0,1,.5-.37,3.76,3.76,0,0,1,.55-.32,5,5,0,0,1,.53-.23,5.09,5.09,0,0,1,5.79,1.72,4.9,4.9,0,0,1,.31.48,4.66,4.66,0,0,1,.47,1q.09.3.15.6a5.12,5.12,0,0,1-.14,2.45,5.2,5.2,0,0,1-.93,1.72,4.16,4.16,0,0,1-.46.48,5.12,5.12,0,0,1-1.87,1.11,5.1,5.1,0,0,1-5.45-1.52,5.55,5.55,0,0,1-.35-.46,5.1,5.1,0,0,1-.72-1.64A5,5,0,0,1,910.21,399.45Zm.52,2.86a4.18,4.18,0,0,0,.65,1.3l0,0a2.37,2.37,0,0,0,.32.39l0,0a4.33,4.33,0,0,0,1.94,1.21,4.54,4.54,0,0,0,2.63,0,4.61,4.61,0,0,0,2-1.26,4.87,4.87,0,0,0,.4-.5,4.62,4.62,0,0,0,.61-1.24,4.51,4.51,0,0,0,.17-1.92c0-.2-.06-.39-.11-.59a4.86,4.86,0,0,0-.54-1.24c-.1-.15-.2-.3-.32-.45a4.55,4.55,0,0,0-2.18-1.48,4.46,4.46,0,0,0-2.68,0h-.05a3.94,3.94,0,0,0-.48.18l-.05,0a4.27,4.27,0,0,0-.79.48,4,4,0,0,0-.46.38,4.54,4.54,0,0,0-1.32,4A6.23,6.23,0,0,0,910.73,402.31Z"/><path class="cls-2" d="M911.41,403.65l0,0a4.49,4.49,0,0,0,2.41-2.73v0a2.18,2.18,0,0,0,.11-.44v0s0,0,0-.06v0a2.89,2.89,0,0,0,.07-.49v0a4.53,4.53,0,0,0-.84-2.93l0,0a4,4,0,0,0-.33-.39,4.93,4.93,0,0,1,.53-.22,3.39,3.39,0,0,1,.33.42l0,0a5.08,5.08,0,0,1,.83,3.47h0a1.2,1.2,0,0,1,0,.2h0c0,.12,0,.23-.07.35a1.21,1.21,0,0,1-.05.18h0c0,.05,0,.09,0,.14a5.08,5.08,0,0,1-2.59,3h0a4.4,4.4,0,0,1-.5.21,3.79,3.79,0,0,1-.34-.45Z"/><path class="cls-2" d="M916.08,400.66a5.44,5.44,0,0,0,.58,0,2,2,0,0,0-.13.25h0a1.36,1.36,0,0,0-.24-.13l-.18-.08-.07,0A.25.25,0,0,0,916.08,400.66Zm-.22.58v0s0,0,0,0c0-.16.1-.3.16-.45a.25.25,0,0,0,0-.07,5.05,5.05,0,0,1,2.51-2.54.45.45,0,0,1,.84.27,5.34,5.34,0,0,0-.52.18,4.5,4.5,0,0,0-2.25,2.14,2,2,0,0,0-.13.25h0l-.1.27,0,.14,0,.1h0a4.56,4.56,0,0,0,.51,3.64,3.65,3.65,0,0,0,.32.45,4.87,4.87,0,0,1-.53.21,4.76,4.76,0,0,1-.31-.47A5.07,5.07,0,0,1,915.86,401.24Z"/><path class="cls-2" d="M914.43,400.9h-.57v0a2.18,2.18,0,0,0,.11-.44v0a4.94,4.94,0,0,0,.49.3,2.87,2.87,0,0,0,.4.18l.35.13.07,0,.1,0a4.15,4.15,0,0,0,.48.11H916c0-.14.1-.29.16-.43h0l.17.09.24.12.08,0h0c0,.07-.06.14-.09.23v0l0,.13a.56.56,0,0,0,0,.12l-.07,0a3.29,3.29,0,0,0-.42-.21l-.07,0a2.58,2.58,0,0,0-.39-.14l-.36-.09a3.69,3.69,0,0,0-.46-.08Zm-3.85.79a5.07,5.07,0,0,1,3.24-1.36H914a3.93,3.93,0,0,1,.48,0h.07a5.16,5.16,0,0,1,1,.2l.48.18.07,0,.18.08a1.36,1.36,0,0,1,.24.13l.07,0,.37.24a5.06,5.06,0,0,1,1.81,2.31,4.75,4.75,0,0,1,.2.64,4.16,4.16,0,0,1-.46.48,4.29,4.29,0,0,0-.14-.62,4.54,4.54,0,0,0-2-2.57l-.42-.22-.07,0a2.58,2.58,0,0,0-.39-.14l-.07,0-.1,0a4.28,4.28,0,0,0-.87-.15h-.07a2.68,2.68,0,0,0-.49,0h-.08a4.56,4.56,0,0,0-3.06,1.44,3.81,3.81,0,0,0-.4.5,4.75,4.75,0,0,1-.2-.64A5.11,5.11,0,0,1,910.58,401.69Z"/><path class="cls-2" d="M913.93,400.32a5,5,0,0,0,.07-.54.18.18,0,0,0,.07.05,4.17,4.17,0,0,0,.44.29l.07,0a4.83,4.83,0,0,0,.81.35l.17.05.52.11a.25.25,0,0,1,0,.07l.07,0c-.06.14-.11.29-.16.43h-.07a4.15,4.15,0,0,1-.48-.11l-.1,0-.07,0-.35-.13a2.87,2.87,0,0,1-.4-.18l-.07,0a3,3,0,0,1-.43-.25l-.06,0S913.93,400.35,913.93,400.32Zm-1.68-3.58a4.08,4.08,0,0,0,.11.59,4.55,4.55,0,0,0,1.64,2.45.18.18,0,0,0,.07.05,4.17,4.17,0,0,0,.44.29l.07,0a4.83,4.83,0,0,0,.81.35l.17.05.52.11a5.44,5.44,0,0,0,.58,0,4.56,4.56,0,0,0,2.79-.9,3.23,3.23,0,0,0,.45-.38q.09.3.15.6a5.72,5.72,0,0,1-.49.37,5.05,5.05,0,0,1-2.59.85,3.53,3.53,0,0,1-.46,0h-.08l-.48-.05h-.07a4.15,4.15,0,0,1-.48-.11l-.1,0-.07,0-.35-.13a2.87,2.87,0,0,1-.4-.18l-.07,0a3,3,0,0,1-.43-.25l-.06,0-.1-.06a5.13,5.13,0,0,1-1.92-2.62q-.09-.3-.15-.6A4.62,4.62,0,0,1,912.25,396.74Z"/><path class="cls-7" d="M1158.38,395.46l-58,.16,18.43-19.75,42.21,6.48Z"/><path class="cls-8" d="M1159.62,383.13l-41.1,4c-.16-3.75-.33-7.5-.49-11.25h33.45Z"/><path class="cls-9" d="M1161.05,382.35a2.6,2.6,0,0,0-.06.3,8.82,8.82,0,0,1-.25,1.22c-.43.44-4.72-3.85-8.38-5.79-3.46-1.83-6.22-1.47-13-1.25-4.52.14-10.94.23-18.93-.05l1.4-2,29.71-.12Z"/><path class="cls-10" d="M1158.77,382.68l-1.41.21-1.52.22-1.41.21-1.8.26-1.4.2-1.56.23-1.4.21-1.74.25-1.41.2-1.77.26-1.4.21-2.09.3-1.41.21L1129,387a14.59,14.59,0,0,1-1.07-1c-.3-.31-.56-.62-.8-.91,2.87-.19,4.63-.35,5.75-.46l3.06-.31,1.5-.15,2.24-.22,1.51-.16,1.89-.19,1.51-.15,1.86-.19,1.51-.15,1.67-.16,1.5-.16,1.93-.19,1.51-.15,1.63-.17,1.51-.15Z"/><path class="cls-11" d="M1123.25,498.22l-37.62,12.21,44-123.55,31.44-4.53Z"/><path class="cls-12" d="M1152.63,383.58l-1.4.2-1.59-.83,1.5-.16Z"/><path class="cls-12" d="M1155.84,383.11l-1.41.21-1.36-.72,1.51-.15Z"/><path class="cls-12" d="M1158.77,382.68l-1.41.21-1.15-.61,1.51-.15Z"/><ellipse class="cls-2" cx="1073.42" cy="322.74" rx="71.1" ry="76.61"/><path class="cls-13" d="M1144.11,425.72c-.06.75-.13,1.49-.23,2.24-1.61,12.15-8.91,24.21-17.68,34.57l-1.14,1.32c-2.07,2.38-4.21,4.66-6.37,6.83l-1.24,1.23c-2.4,2.35-4.82,4.56-7.16,6.59-.45.38-.89.77-1.34,1.14-10.21,8.62-18.89,13.7-19.79,12.82-.56-.54,3.17-5.57,10.62-15.62q1.34-1.8,2.59-3.47l1.05-1.4q3.28-4.35,5.95-7.76c.36-.48.72-.94,1.07-1.38,2.38-3.05,4.34-5.48,5.85-7.33l.3-.36.55-.67.26-.31c1.72-2.08,2.61-3.09,2.61-3.09a56.48,56.48,0,0,0,9.13-14.15c.46-1,.83-1.94,1.13-2.76a22.76,22.76,0,0,0,.76-2.48,7.17,7.17,0,0,0,0-4.49c-.7-1.88-2.45-3.94-6-8.06-.38-.45-.76-.88-1.14-1.31-1.74-2-3.5-3.79-5.21-5.5l-1.24-1.23c-2-1.92-3.82-3.7-5.5-5.4-.42-.42-.82-.84-1.21-1.26-4.23-4.46-6.87-8.47-5.93-13.21,1.25-6.29,8.29-11.25,14-11.38,4.34-.09,8.33,2.64,11.81,6.81.37.44.73.89,1.08,1.37a49.8,49.8,0,0,1,4.16,6.6c.28.53.56,1.06.83,1.6a75.84,75.84,0,0,1,3.18,7.31h0c.23.59.44,1.18.65,1.76a79.29,79.29,0,0,1,2.64,9.12c.12.53.24,1.07.34,1.61h0c.08.36.22,1.09.36,2A34.64,34.64,0,0,1,1144.11,425.72Z"/><path class="cls-14" d="M1131.68,388,1112,405.69l-1.21-1.25,19.83-17.79C1131,387.09,1131.33,387.55,1131.68,388Z"/><path class="cls-14" d="M1126.2,462.53l-1.14,1.32-8.77-8.35.3-.36.55-.67.26-.31Z"/><path class="cls-14" d="M1118.69,470.68l-1.24,1.23-8.08-7.7c.36-.48.72-.94,1.07-1.38Z"/><path class="cls-14" d="M1110.29,478.5c-.45.38-.89.77-1.34,1.14l-6.58-6.27,1.05-1.4Z"/><path class="cls-14" d="M1136.67,396.22l-18,16.1-1.24-1.23,18.36-16.47C1136.12,395.15,1136.4,395.68,1136.67,396.22Z"/><path class="cls-14" d="M1140.5,405.3l-15.43,13.83c-.38-.45-.76-.88-1.14-1.31l15.92-14.29C1140.08,404.12,1140.29,404.71,1140.5,405.3Z"/><path class="cls-14" d="M1143.84,418,1132,428.7c-.3-.52-.61-1-.93-1.51L1143.48,416C1143.61,416.7,1143.74,417.37,1143.84,418Z"/><path class="cls-14" d="M1144.11,425.72c-.06.75-.13,1.49-.23,2.24l-13.61,6.2a22.76,22.76,0,0,0,.76-2.48Z"/><path class="cls-13" d="M1042.9,407.4c-.39.42-.79.83-1.21,1.26-1.67,1.7-3.54,3.48-5.5,5.4l-1.24,1.23c-1.71,1.7-3.47,3.52-5.21,5.49q-.57.64-1.14,1.32l-1,1.19a31.83,31.83,0,0,0-9.48,2.82c-.57.24-1.15.51-1.74.78-2.38,1.12-4.92,2.46-7.52,4a75.09,75.09,0,0,1,1-9.9q.17-1,.36-2h0c.11-.54.22-1.08.34-1.62a79.74,79.74,0,0,1,2.64-9.11c.21-.58.42-1.17.65-1.76h0a77.27,77.27,0,0,1,3.18-7.31c.12-.23.23-.46.35-.68l.48-.92A49.8,49.8,0,0,1,1022,391c.36-.48.72-.93,1.08-1.37,3.48-4.17,7.48-6.91,11.81-6.81,4.13.09,9,2.75,11.81,6.63a12.14,12.14,0,0,1,2.14,4.75C1049.77,398.93,1047.13,402.93,1042.9,407.4Z"/><path class="cls-14" d="M1022,391l19.7,17.67,1.21-1.26-19.83-17.78C1022.71,390.06,1022.34,390.51,1022,391Z"/><path class="cls-14" d="M1017,399.19l18,16.1,1.24-1.23-18.36-16.47C1017.55,398.12,1017.27,398.65,1017,399.19Z"/><path class="cls-14" d="M1013.17,408.26l15.43,13.84q.57-.68,1.14-1.32l-15.92-14.28C1013.59,407.09,1013.38,407.68,1013.17,408.26Z"/><path class="cls-14" d="M1018.13,426.11c-.57.24-1.15.51-1.74.78l-6.56-5.89q.17-1,.36-2Z"/><path class="cls-2" d="M1169.71,489.39c-2.88,5.76-10.16,9.67-15.8,8.62a7.78,7.78,0,0,1-1.13-.28c-4.7-1.55-6.91-7.07-14-19.11-9.9-16.9-21.39-33-24.78-31.6-.48.21-1,1.41-2,3.83a41.47,41.47,0,0,0-2.08,5.93c-1.21,4.78-16.45,45.13-30.34,67.8-18.34,29.93-53.37,56.82-60.69,51.35-10.44-7.78,31.45-83.86,19.9-91.35a16.73,16.73,0,0,0-6.32-1.89c-6.7-.71-12,2.7-14.15,4.05a29.68,29.68,0,0,0-3.16,2.34c-8.27,7-12.06,17.61-13.15,20.78-7.55,21.95-9.14,39.41-10.66,49.46-.88,5.8-1.74,9.13-3.7,9.43-5,.79-13.54-17.43-15.44-34.47a68.24,68.24,0,0,1,1.06-22.06c4.29-18.78,15.16-25.44,35.21-51.19,10-12.88,25.79-33.13,22.26-37-.56-.62-1.65-.85-3.13-.75a31.83,31.83,0,0,0-9.48,2.82c-.57.24-1.15.51-1.74.78-2.38,1.12-4.92,2.46-7.52,4a97.72,97.72,0,0,0-14.76,10.74C983.85,450.76,980,458.72,970.05,460c-5.34.7-13.95-.33-16.15-5.1-4.81-10.36,22.28-34.75,45.24-47.76a144.94,144.94,0,0,1,18.21-8.65l1-.41c2.94-1.14,5.71-2.12,8.23-3l1.91-.63c2.64-.84,5-1.52,6.87-2.08,3.49-1,7.18-2.07,11.28-3a114.85,114.85,0,0,1,16.68-2.54c11.88-.93,33-2.58,52.15,9.12.83.51,1.65,1,2.47,1.6a71.44,71.44,0,0,1,13.29,12.06c9,9.88,12.24,17.55,20.47,34.11C1168.06,476.6,1173.25,482.31,1169.71,489.39Z"/><ellipse class="cls-15" cx="1073.81" cy="321.22" rx="64.4" ry="68.24"/><path class="cls-16" d="M1106,293.45c18.17,26.73,18.92,29.7,20,29.25,3.89-1.55-.85-39.56-23.23-51.95-3-1.68-9.33-4.51-11-2.63C1089.88,270.32,1095.34,277.71,1106,293.45Z"/><rect class="cls-17" x="1045.19" y="354.96" width="19.46" height="2.14" rx="1.07" ry="1.07" transform="translate(560.73 -641.66) rotate(45)"/><rect class="cls-17" x="1057.46" y="354.96" width="19.46" height="2.14" rx="1.07" ry="1.07" transform="translate(2073.55 -146.84) rotate(135)"/><rect class="cls-17" x="1069.93" y="354.96" width="19.46" height="2.14" rx="1.07" ry="1.07" transform="translate(567.97 -659.16) rotate(45)"/><rect class="cls-17" x="1082.2" y="354.96" width="19.46" height="2.14" rx="1.07" ry="1.07" transform="translate(2115.78 -164.34) rotate(135)"/><path class="cls-12" d="M1139.86,385.44l-1.41.21-2.5-1.33,1.5-.15Z"/><path class="cls-12" d="M1143.35,384.93l-1.4.21-2.26-1.19,1.51-.16Z"/><path class="cls-12" d="M1146.53,384.47l-1.41.2-2-1.07,1.51-.15Z"/><path class="cls-12" d="M1149.67,384l-1.4.21-1.81-1,1.51-.15Z"/><path class="cls-18" d="M1169.71,489.39c-2.88,5.76-10.16,9.67-15.8,8.62a7.78,7.78,0,0,1-1.13-.28,48.47,48.47,0,0,0,7.48-7.67c1.58-2,3.59-4.62,4.41-7,2.43-7.06-4.44-15.12-10.39-22.68-1.6-2-4-5.18-6.81-9.18-4.41-6.32-7.2-11.14-15.7-26.13s-9.31-16.54-11.73-19.63a80,80,0,0,0-14.5-14.33h0a62.21,62.21,0,0,1,12.45,6.51,73.55,73.55,0,0,1,13.29,12.06c9,9.88,12.24,17.55,20.47,34.11C1168.06,476.6,1173.25,482.31,1169.71,489.39Z"/><path class="cls-19" d="M1015.16,489.08c-8.27,7-12.06,17.61-13.15,20.78-7.55,21.95-9.14,39.41-10.66,49.46-3.41-.39-7-20.82-.23-39.81C997.34,502.16,1011.09,489.34,1015.16,489.08Z"/><path class="cls-20" d="M1106.24,390.63c.08.24-12.08,8.26-28.73,8.46-18.4.22-32-9.24-32-9.39a62.86,62.86,0,0,0,29.39,8.43C1092.94,398.58,1106.14,390.39,1106.24,390.63Z"/><rect class="cls-21" x="1084.87" y="425.19" width="15.65" height="19.36" rx="7.83" ry="7.83" transform="translate(212.29 -344.86) rotate(19.83)"/><path class="cls-2" d="M1087.67,433.07a5.12,5.12,0,0,1,1.54-2.34,4.62,4.62,0,0,1,.5-.37,3.76,3.76,0,0,1,.55-.32,5,5,0,0,1,.53-.23,5.09,5.09,0,0,1,5.79,1.72,4.9,4.9,0,0,1,.31.48,4.66,4.66,0,0,1,.47,1q.09.3.15.6a5.12,5.12,0,0,1-.14,2.45,5.2,5.2,0,0,1-.93,1.72,4.16,4.16,0,0,1-.46.48,5.12,5.12,0,0,1-1.87,1.11,5.1,5.1,0,0,1-5.45-1.52,5.55,5.55,0,0,1-.35-.46,5.1,5.1,0,0,1-.72-1.64A5,5,0,0,1,1087.67,433.07Zm.52,2.86a4.18,4.18,0,0,0,.65,1.3l0,0a2.37,2.37,0,0,0,.32.39l0,0a4.33,4.33,0,0,0,1.94,1.21,4.54,4.54,0,0,0,2.63,0,4.61,4.61,0,0,0,2-1.26,4.87,4.87,0,0,0,.4-.5,4.62,4.62,0,0,0,.61-1.24A4.51,4.51,0,0,0,1097,434c0-.2-.06-.39-.11-.59a4.86,4.86,0,0,0-.54-1.24c-.1-.15-.2-.3-.32-.45a4.55,4.55,0,0,0-2.18-1.48,4.46,4.46,0,0,0-2.68,0h0a3.94,3.94,0,0,0-.48.18l-.05,0a4.27,4.27,0,0,0-.79.48,4,4,0,0,0-.46.38,4.54,4.54,0,0,0-1.32,4A6.23,6.23,0,0,0,1088.19,435.93Z"/><path class="cls-2" d="M1088.87,437.27l0,0a4.49,4.49,0,0,0,2.41-2.73v0a2.18,2.18,0,0,0,.11-.44s0,0,0,0,0,0,0-.06v0a2.89,2.89,0,0,0,.07-.49v0a4.53,4.53,0,0,0-.84-2.93l0,0a4,4,0,0,0-.33-.39,4.93,4.93,0,0,1,.53-.22,3.39,3.39,0,0,1,.33.42l0,0a5.08,5.08,0,0,1,.83,3.47h0a1.2,1.2,0,0,1,0,.2h0c0,.12,0,.23-.07.35a1.21,1.21,0,0,1,0,.18h0c0,.05,0,.09,0,.14a5.08,5.08,0,0,1-2.59,3h0a4.4,4.4,0,0,1-.5.21,3.79,3.79,0,0,1-.34-.45Z"/><path class="cls-2" d="M1093.54,434.28a5.44,5.44,0,0,0,.58.05,2,2,0,0,0-.13.25h0a1.36,1.36,0,0,0-.24-.13l-.18-.08-.07,0A.25.25,0,0,0,1093.54,434.28Zm-.22.58v0l0,0c.05-.16.1-.3.16-.45a.25.25,0,0,0,0-.07,5.05,5.05,0,0,1,2.51-2.54.45.45,0,0,1,.84.27,5.34,5.34,0,0,0-.52.18,4.5,4.5,0,0,0-2.25,2.14,2,2,0,0,0-.13.25h0l-.1.27-.05.14,0,.1h0a4.56,4.56,0,0,0,.51,3.64,3.65,3.65,0,0,0,.32.45,4.87,4.87,0,0,1-.53.21,4.76,4.76,0,0,1-.31-.47A5.07,5.07,0,0,1,1093.32,434.86Z"/><path class="cls-2" d="M1091.89,434.52h-.57v0a2.18,2.18,0,0,0,.11-.44s0,0,0,0a4.94,4.94,0,0,0,.49.3,2.87,2.87,0,0,0,.4.18l.35.13.07,0,.1,0a4.15,4.15,0,0,0,.48.11h.07c0-.14.1-.29.16-.43h0l.17.09a1.34,1.34,0,0,1,.24.12l.08,0h0c0,.07-.06.14-.09.23v0l0,.13a.56.56,0,0,0,0,.12l-.07,0a3.29,3.29,0,0,0-.42-.21l-.07,0a2.58,2.58,0,0,0-.39-.14,2,2,0,0,0-.35-.09,2.43,2.43,0,0,0-.47-.08A1.46,1.46,0,0,0,1091.89,434.52Zm-3.85.79a5.07,5.07,0,0,1,3.24-1.36h.18a3.93,3.93,0,0,1,.48,0h.07a5.16,5.16,0,0,1,1,.2l.48.18.07,0,.18.08a1.36,1.36,0,0,1,.24.13l.07,0,.37.24a5.06,5.06,0,0,1,1.81,2.31,4.75,4.75,0,0,1,.2.64,4.16,4.16,0,0,1-.46.48,4.29,4.29,0,0,0-.14-.62,4.54,4.54,0,0,0-2-2.57l-.42-.22-.07,0a2.58,2.58,0,0,0-.39-.14l-.07,0-.1,0a4.28,4.28,0,0,0-.87-.15h-.07a2.68,2.68,0,0,0-.49,0h-.08a4.56,4.56,0,0,0-3.06,1.44,3.81,3.81,0,0,0-.4.5,4.75,4.75,0,0,1-.2-.64A5.11,5.11,0,0,1,1088,435.31Z"/><path class="cls-2" d="M1091.39,433.94a5,5,0,0,0,.07-.54.18.18,0,0,0,.07.05,4.17,4.17,0,0,0,.44.29l.07,0a4.83,4.83,0,0,0,.81.35l.17.05.52.11a.25.25,0,0,1,0,.07l.07,0c-.06.14-.11.29-.16.43h-.07a4.15,4.15,0,0,1-.48-.11l-.1,0-.07,0-.35-.13a2.87,2.87,0,0,1-.4-.18l-.07,0a3,3,0,0,1-.43-.25l-.06,0S1091.39,434,1091.39,433.94Zm-1.68-3.58a4.08,4.08,0,0,0,.11.59,4.55,4.55,0,0,0,1.64,2.45.18.18,0,0,0,.07.05,4.17,4.17,0,0,0,.44.29l.07,0a4.83,4.83,0,0,0,.81.35l.17.05.52.11a5.44,5.44,0,0,0,.58.05,4.56,4.56,0,0,0,2.79-.9,3.23,3.23,0,0,0,.45-.38q.09.3.15.6a5.72,5.72,0,0,1-.49.37,5.05,5.05,0,0,1-2.59.85,3.53,3.53,0,0,1-.46,0h-.08l-.48-.05h-.07a4.15,4.15,0,0,1-.48-.11l-.1,0-.07,0-.35-.13a2.87,2.87,0,0,1-.4-.18l-.07,0a3,3,0,0,1-.43-.25l-.06,0-.1-.06a5.13,5.13,0,0,1-1.92-2.62q-.09-.3-.15-.6A4.62,4.62,0,0,1,1089.71,430.36Z"/></g></g></svg>